G04 #@! TF.FileFunction,Copper,L1,Top,Signal*
%FSLAX46Y46*%
G04 Gerber Fmt 4.6, Leading zero omitted, Abs format (unit mm)*
G04 Created by KiCad (PCBNEW (2016-01-25 BZR 6514, Git a23e712)-product) date Tue 24 May 2016 07:00:10 PM CST*
%MOMM*%
G01*
G04 APERTURE LIST*
%ADD10C,0.100000*%
%ADD11R,1.400000X0.700000*%
%ADD12R,1.250000X1.000000*%
%ADD13R,1.300000X1.800000*%
%ADD14O,1.300000X1.800000*%
%ADD15C,1.000000*%
%ADD16C,0.250000*%
%ADD17C,0.254000*%
G04 APERTURE END LIST*
D10*
D11*
X3300000Y7950000D03*
X3300000Y7000000D03*
X3300000Y6050000D03*
X6700000Y6050000D03*
X6700000Y7000000D03*
X6700000Y7950000D03*
D12*
X1000000Y8000000D03*
X1000000Y6000000D03*
X9000000Y8000000D03*
X9000000Y6000000D03*
X1000000Y25000000D03*
X1000000Y23000000D03*
X9000000Y23000000D03*
X9000000Y25000000D03*
X1000000Y42000000D03*
X1000000Y40000000D03*
X9000000Y42000000D03*
X9000000Y40000000D03*
D13*
X2000000Y16750000D03*
D14*
X2000000Y14250000D03*
X4000000Y16750000D03*
X4000000Y14250000D03*
X6000000Y16750000D03*
X6000000Y14250000D03*
X8000000Y16750000D03*
X8000000Y14250000D03*
D11*
X3300000Y41950000D03*
X3300000Y41000000D03*
X3300000Y40050000D03*
X6700000Y40050000D03*
X6700000Y41000000D03*
X6700000Y41950000D03*
X3300000Y24950000D03*
X3300000Y24000000D03*
X3300000Y23050000D03*
X6700000Y23050000D03*
X6700000Y24000000D03*
X6700000Y24950000D03*
D15*
X998401Y43998401D03*
X998401Y26563445D03*
X7000000Y10500000D03*
X4983227Y38095206D03*
X6688357Y36946095D03*
D16*
X998401Y43998401D02*
X998401Y42001599D01*
X998401Y42001599D02*
X1000000Y42000000D01*
X3300000Y41950000D02*
X1050000Y41950000D01*
X1050000Y41950000D02*
X1000000Y42000000D01*
X9000000Y42000000D02*
X9000000Y43500000D01*
X9000000Y43500000D02*
X8500000Y44000000D01*
X4000000Y44000000D02*
X3300000Y43300000D01*
X8500000Y44000000D02*
X4000000Y44000000D01*
X3300000Y43300000D02*
X3300000Y41950000D01*
X1000000Y26561846D02*
X998401Y26563445D01*
X1000000Y25000000D02*
X1000000Y26561846D01*
X9000000Y8000000D02*
X9000000Y8550763D01*
X9000000Y8550763D02*
X7050763Y10500000D01*
X7050763Y10500000D02*
X7000000Y10500000D01*
X7000000Y10500000D02*
X7000000Y10513840D01*
X7000000Y10513840D02*
X9263700Y12777540D01*
X9263700Y12777540D02*
X9263700Y22736300D01*
X9263700Y22736300D02*
X9000000Y23000000D01*
X1000000Y25000000D02*
X3250000Y25000000D01*
X3250000Y25000000D02*
X3300000Y24950000D01*
X1000000Y8000000D02*
X3250000Y8000000D01*
X3250000Y8000000D02*
X3300000Y7950000D01*
X2000000Y14500000D02*
X1000000Y13500000D01*
X1000000Y13500000D02*
X1000000Y8000000D01*
X1000000Y23000000D02*
X1000000Y19249208D01*
X1000000Y19249208D02*
X2000000Y18249208D01*
X2000000Y18249208D02*
X2000000Y16500000D01*
X6748643Y26500000D02*
X8500000Y26500000D01*
X3500000Y36000000D02*
X6841196Y36000000D01*
X5000000Y26500000D02*
X6748643Y26500000D01*
X6748643Y26500000D02*
X6748643Y35907447D01*
X6841196Y36000000D02*
X8500000Y36000000D01*
X6748643Y35907447D02*
X6841196Y36000000D01*
X8500000Y36000000D02*
X9000000Y36500000D01*
X9000000Y36500000D02*
X9000000Y40000000D01*
X3300000Y36200000D02*
X3500000Y36000000D01*
X3300000Y40050000D02*
X3300000Y36200000D01*
X3300000Y40050000D02*
X3300000Y41000000D01*
X1000000Y40000000D02*
X3250000Y40000000D01*
X3250000Y40000000D02*
X3300000Y40050000D01*
X3300000Y24000000D02*
X4250000Y24000000D01*
X4250000Y24000000D02*
X4500000Y24250000D01*
X4500000Y24250000D02*
X4500000Y26000000D01*
X4500000Y26000000D02*
X5000000Y26500000D01*
X8500000Y26500000D02*
X9000000Y26000000D01*
X9000000Y26000000D02*
X9000000Y25000000D01*
X3300000Y23050000D02*
X3300000Y24000000D01*
X1000000Y23000000D02*
X3250000Y23000000D01*
X3250000Y23000000D02*
X3300000Y23050000D01*
X4578082Y4500000D02*
X4666490Y4588408D01*
X4666490Y4588408D02*
X4666490Y8567791D01*
X4666490Y8567791D02*
X2998688Y10235593D01*
X2998688Y10235593D02*
X2998688Y15501312D01*
X2998688Y15501312D02*
X2000000Y16500000D01*
X4578082Y4500000D02*
X4000000Y4500000D01*
X8250000Y4500000D02*
X4578082Y4500000D01*
X4000000Y4500000D02*
X3300000Y5200000D01*
X3300000Y5200000D02*
X3300000Y6050000D01*
X9000000Y6000000D02*
X9000000Y5250000D01*
X9000000Y5250000D02*
X8250000Y4500000D01*
X3300000Y6050000D02*
X3300000Y7000000D01*
X1000000Y6000000D02*
X3250000Y6000000D01*
X3250000Y6000000D02*
X3300000Y6050000D01*
X6700000Y7950000D02*
X6700000Y8806225D01*
X6700000Y8806225D02*
X5227089Y10279136D01*
X5227089Y10279136D02*
X5227089Y12785043D01*
X5227089Y12785043D02*
X5003152Y13008980D01*
X5003152Y13008980D02*
X5003152Y15496848D01*
X5003152Y15496848D02*
X4000000Y16500000D01*
X6700000Y6050000D02*
X5871794Y6050000D01*
X5871794Y6050000D02*
X5368997Y6552797D01*
X5368997Y8950636D02*
X4446679Y9872954D01*
X4446679Y9872954D02*
X4446679Y11439919D01*
X5368997Y6552797D02*
X5368997Y8950636D01*
X4000000Y11886598D02*
X4000000Y14500000D01*
X4446679Y11439919D02*
X4000000Y11886598D01*
X6700000Y24950000D02*
X5750000Y24950000D01*
X5750000Y24950000D02*
X5465694Y24665694D01*
X5465694Y24665694D02*
X5465694Y17034306D01*
X5465694Y17034306D02*
X6000000Y16500000D01*
X6700000Y23050000D02*
X6700000Y22450000D01*
X6700000Y22450000D02*
X6975010Y22174990D01*
X6975010Y22174990D02*
X6975010Y15475010D01*
X6975010Y15475010D02*
X6000000Y14500000D01*
X4983227Y38802312D02*
X4983227Y38095206D01*
X4983227Y41183227D02*
X4983227Y38802312D01*
X5750000Y41950000D02*
X4983227Y41183227D01*
X6700000Y41950000D02*
X5750000Y41950000D01*
X6700000Y36957738D02*
X6688357Y36946095D01*
X6700000Y40050000D02*
X6700000Y36957738D01*
D17*
G36*
X4666849Y6261958D02*
X4831596Y6015396D01*
X5334393Y5512599D01*
X5395505Y5471765D01*
X5396838Y5464683D01*
X5535910Y5248559D01*
X5748110Y5103569D01*
X6000000Y5052560D01*
X7400000Y5052560D01*
X7635317Y5096838D01*
X7808513Y5208286D01*
X7836673Y5140302D01*
X8015301Y4961673D01*
X8248690Y4865000D01*
X8714250Y4865000D01*
X8873000Y5023750D01*
X8873000Y5873000D01*
X8853000Y5873000D01*
X8853000Y6127000D01*
X8873000Y6127000D01*
X8873000Y6147000D01*
X9127000Y6147000D01*
X9127000Y6127000D01*
X9147000Y6127000D01*
X9147000Y5873000D01*
X9127000Y5873000D01*
X9127000Y5023750D01*
X9285750Y4865000D01*
X9290000Y4865000D01*
X9290000Y710000D01*
X710000Y710000D01*
X710000Y4865000D01*
X714250Y4865000D01*
X873000Y5023750D01*
X873000Y5873000D01*
X1127000Y5873000D01*
X1127000Y5023750D01*
X1285750Y4865000D01*
X1751310Y4865000D01*
X1984699Y4961673D01*
X2163327Y5140302D01*
X2192132Y5209843D01*
X2240302Y5161673D01*
X2473691Y5065000D01*
X3014250Y5065000D01*
X3173000Y5223750D01*
X3173000Y5923000D01*
X3427000Y5923000D01*
X3427000Y5223750D01*
X3585750Y5065000D01*
X4126309Y5065000D01*
X4359698Y5161673D01*
X4538327Y5340301D01*
X4635000Y5573690D01*
X4635000Y5764250D01*
X4476250Y5923000D01*
X3427000Y5923000D01*
X3173000Y5923000D01*
X2123750Y5923000D01*
X2073750Y5873000D01*
X1127000Y5873000D01*
X873000Y5873000D01*
X853000Y5873000D01*
X853000Y6127000D01*
X873000Y6127000D01*
X873000Y6147000D01*
X1127000Y6147000D01*
X1127000Y6127000D01*
X2101250Y6127000D01*
X2151250Y6177000D01*
X2174975Y6177000D01*
X2240302Y6111673D01*
X2473691Y6015000D01*
X3014250Y6015000D01*
X3173000Y6173750D01*
X3173000Y6197000D01*
X3427000Y6197000D01*
X3427000Y6173750D01*
X3585750Y6015000D01*
X4126309Y6015000D01*
X4359698Y6111673D01*
X4425025Y6177000D01*
X4476250Y6177000D01*
X4635000Y6335750D01*
X4635000Y6422072D01*
X4666849Y6261958D01*
X4666849Y6261958D01*
G37*
X4666849Y6261958D02*
X4831596Y6015396D01*
X5334393Y5512599D01*
X5395505Y5471765D01*
X5396838Y5464683D01*
X5535910Y5248559D01*
X5748110Y5103569D01*
X6000000Y5052560D01*
X7400000Y5052560D01*
X7635317Y5096838D01*
X7808513Y5208286D01*
X7836673Y5140302D01*
X8015301Y4961673D01*
X8248690Y4865000D01*
X8714250Y4865000D01*
X8873000Y5023750D01*
X8873000Y5873000D01*
X8853000Y5873000D01*
X8853000Y6127000D01*
X8873000Y6127000D01*
X8873000Y6147000D01*
X9127000Y6147000D01*
X9127000Y6127000D01*
X9147000Y6127000D01*
X9147000Y5873000D01*
X9127000Y5873000D01*
X9127000Y5023750D01*
X9285750Y4865000D01*
X9290000Y4865000D01*
X9290000Y710000D01*
X710000Y710000D01*
X710000Y4865000D01*
X714250Y4865000D01*
X873000Y5023750D01*
X873000Y5873000D01*
X1127000Y5873000D01*
X1127000Y5023750D01*
X1285750Y4865000D01*
X1751310Y4865000D01*
X1984699Y4961673D01*
X2163327Y5140302D01*
X2192132Y5209843D01*
X2240302Y5161673D01*
X2473691Y5065000D01*
X3014250Y5065000D01*
X3173000Y5223750D01*
X3173000Y5923000D01*
X3427000Y5923000D01*
X3427000Y5223750D01*
X3585750Y5065000D01*
X4126309Y5065000D01*
X4359698Y5161673D01*
X4538327Y5340301D01*
X4635000Y5573690D01*
X4635000Y5764250D01*
X4476250Y5923000D01*
X3427000Y5923000D01*
X3173000Y5923000D01*
X2123750Y5923000D01*
X2073750Y5873000D01*
X1127000Y5873000D01*
X873000Y5873000D01*
X853000Y5873000D01*
X853000Y6127000D01*
X873000Y6127000D01*
X873000Y6147000D01*
X1127000Y6147000D01*
X1127000Y6127000D01*
X2101250Y6127000D01*
X2151250Y6177000D01*
X2174975Y6177000D01*
X2240302Y6111673D01*
X2473691Y6015000D01*
X3014250Y6015000D01*
X3173000Y6173750D01*
X3173000Y6197000D01*
X3427000Y6197000D01*
X3427000Y6173750D01*
X3585750Y6015000D01*
X4126309Y6015000D01*
X4359698Y6111673D01*
X4425025Y6177000D01*
X4476250Y6177000D01*
X4635000Y6335750D01*
X4635000Y6422072D01*
X4666849Y6261958D01*
G36*
X3091368Y13061296D02*
X3240000Y12961983D01*
X3240000Y11886598D01*
X3297852Y11595759D01*
X3462599Y11349197D01*
X3686679Y11125116D01*
X3686679Y9872954D01*
X3744531Y9582115D01*
X3909278Y9335553D01*
X4608997Y8635834D01*
X4608997Y8504307D01*
X4603162Y8535317D01*
X4464090Y8751441D01*
X4251890Y8896431D01*
X4000000Y8947440D01*
X2600000Y8947440D01*
X2364683Y8903162D01*
X2191759Y8791889D01*
X2089090Y8951441D01*
X1876890Y9096431D01*
X1760000Y9120102D01*
X1760000Y12732667D01*
X2000000Y12684928D01*
X2491748Y12782743D01*
X2908632Y13061296D01*
X3000000Y13198038D01*
X3091368Y13061296D01*
X3091368Y13061296D01*
G37*
X3091368Y13061296D02*
X3240000Y12961983D01*
X3240000Y11886598D01*
X3297852Y11595759D01*
X3462599Y11349197D01*
X3686679Y11125116D01*
X3686679Y9872954D01*
X3744531Y9582115D01*
X3909278Y9335553D01*
X4608997Y8635834D01*
X4608997Y8504307D01*
X4603162Y8535317D01*
X4464090Y8751441D01*
X4251890Y8896431D01*
X4000000Y8947440D01*
X2600000Y8947440D01*
X2364683Y8903162D01*
X2191759Y8791889D01*
X2089090Y8951441D01*
X1876890Y9096431D01*
X1760000Y9120102D01*
X1760000Y12732667D01*
X2000000Y12684928D01*
X2491748Y12782743D01*
X2908632Y13061296D01*
X3000000Y13198038D01*
X3091368Y13061296D01*
G36*
X3427000Y40173750D02*
X3447000Y40153750D01*
X3447000Y39923000D01*
X3427000Y39923000D01*
X3427000Y39223750D01*
X3585750Y39065000D01*
X4126309Y39065000D01*
X4223227Y39105145D01*
X4223227Y38940265D01*
X4021582Y38738971D01*
X3848424Y38321962D01*
X3848030Y37870431D01*
X4020460Y37453120D01*
X4339462Y37133561D01*
X4756471Y36960403D01*
X5208002Y36960009D01*
X5553493Y37102763D01*
X5553160Y36721320D01*
X5725590Y36304009D01*
X6044592Y35984450D01*
X6461601Y35811292D01*
X6913132Y35810898D01*
X7330443Y35983328D01*
X7650002Y36302330D01*
X7823160Y36719339D01*
X7823554Y37170870D01*
X7651124Y37588181D01*
X7460000Y37779639D01*
X7460000Y39063850D01*
X7635317Y39096838D01*
X7808513Y39208286D01*
X7836673Y39140302D01*
X8015301Y38961673D01*
X8248690Y38865000D01*
X8714250Y38865000D01*
X8873000Y39023750D01*
X8873000Y39873000D01*
X8853000Y39873000D01*
X8853000Y40127000D01*
X8873000Y40127000D01*
X8873000Y40147000D01*
X9127000Y40147000D01*
X9127000Y40127000D01*
X9147000Y40127000D01*
X9147000Y39873000D01*
X9127000Y39873000D01*
X9127000Y39023750D01*
X9285750Y38865000D01*
X9290000Y38865000D01*
X9290000Y26135000D01*
X9285750Y26135000D01*
X9127000Y25976250D01*
X9127000Y25127000D01*
X9147000Y25127000D01*
X9147000Y24873000D01*
X9127000Y24873000D01*
X9127000Y24853000D01*
X8873000Y24853000D01*
X8873000Y24873000D01*
X8853000Y24873000D01*
X8853000Y25127000D01*
X8873000Y25127000D01*
X8873000Y25976250D01*
X8714250Y26135000D01*
X8248690Y26135000D01*
X8015301Y26038327D01*
X7836673Y25859698D01*
X7807771Y25789922D01*
X7651890Y25896431D01*
X7400000Y25947440D01*
X6000000Y25947440D01*
X5764683Y25903162D01*
X5548559Y25764090D01*
X5474103Y25655120D01*
X5459160Y25652148D01*
X5212599Y25487401D01*
X4928293Y25203095D01*
X4763546Y24956533D01*
X4705694Y24665694D01*
X4705694Y18074303D01*
X4491748Y18217257D01*
X4000000Y18315072D01*
X3508252Y18217257D01*
X3190341Y18004836D01*
X3188327Y18009699D01*
X3009698Y18188327D01*
X2776309Y18285000D01*
X2285750Y18285000D01*
X2127000Y18126250D01*
X2127000Y16877000D01*
X2147000Y16877000D01*
X2147000Y16623000D01*
X2127000Y16623000D01*
X2127000Y16603000D01*
X1873000Y16603000D01*
X1873000Y16623000D01*
X873750Y16623000D01*
X715000Y16464250D01*
X715000Y15723690D01*
X811673Y15490301D01*
X990302Y15311673D01*
X1002980Y15306422D01*
X812815Y15021820D01*
X715000Y14530072D01*
X715000Y14289802D01*
X710000Y14284802D01*
X710000Y17776310D01*
X715000Y17776310D01*
X715000Y17035750D01*
X873750Y16877000D01*
X1873000Y16877000D01*
X1873000Y18126250D01*
X1714250Y18285000D01*
X1223691Y18285000D01*
X990302Y18188327D01*
X811673Y18009699D01*
X715000Y17776310D01*
X710000Y17776310D01*
X710000Y21865000D01*
X714250Y21865000D01*
X873000Y22023750D01*
X873000Y22873000D01*
X1127000Y22873000D01*
X1127000Y22023750D01*
X1285750Y21865000D01*
X1751310Y21865000D01*
X1984699Y21961673D01*
X2163327Y22140302D01*
X2192132Y22209843D01*
X2240302Y22161673D01*
X2473691Y22065000D01*
X3014250Y22065000D01*
X3173000Y22223750D01*
X3173000Y22923000D01*
X3427000Y22923000D01*
X3427000Y22223750D01*
X3585750Y22065000D01*
X4126309Y22065000D01*
X4359698Y22161673D01*
X4538327Y22340301D01*
X4635000Y22573690D01*
X4635000Y22764250D01*
X4476250Y22923000D01*
X3427000Y22923000D01*
X3173000Y22923000D01*
X2123750Y22923000D01*
X2073750Y22873000D01*
X1127000Y22873000D01*
X873000Y22873000D01*
X853000Y22873000D01*
X853000Y23127000D01*
X873000Y23127000D01*
X873000Y23147000D01*
X1127000Y23147000D01*
X1127000Y23127000D01*
X2101250Y23127000D01*
X2151250Y23177000D01*
X2174975Y23177000D01*
X2240302Y23111673D01*
X2473691Y23015000D01*
X3014250Y23015000D01*
X3173000Y23173750D01*
X3173000Y23197000D01*
X3427000Y23197000D01*
X3427000Y23173750D01*
X3585750Y23015000D01*
X4126309Y23015000D01*
X4359698Y23111673D01*
X4425025Y23177000D01*
X4476250Y23177000D01*
X4635000Y23335750D01*
X4635000Y23714250D01*
X4476250Y23873000D01*
X4425025Y23873000D01*
X4359698Y23938327D01*
X4223712Y23994654D01*
X4235317Y23996838D01*
X4437594Y24127000D01*
X4476250Y24127000D01*
X4635000Y24285750D01*
X4635000Y24476310D01*
X4626532Y24496753D01*
X4647440Y24600000D01*
X4647440Y25300000D01*
X4603162Y25535317D01*
X4464090Y25751441D01*
X4251890Y25896431D01*
X4000000Y25947440D01*
X2600000Y25947440D01*
X2364683Y25903162D01*
X2191759Y25791889D01*
X2089090Y25951441D01*
X1998840Y26013106D01*
X2133204Y26336689D01*
X2133598Y26788220D01*
X1961168Y27205531D01*
X1642166Y27525090D01*
X1225157Y27698248D01*
X773626Y27698642D01*
X710000Y27672352D01*
X710000Y38865000D01*
X714250Y38865000D01*
X873000Y39023750D01*
X873000Y39873000D01*
X1127000Y39873000D01*
X1127000Y39023750D01*
X1285750Y38865000D01*
X1751310Y38865000D01*
X1984699Y38961673D01*
X2163327Y39140302D01*
X2192132Y39209843D01*
X2240302Y39161673D01*
X2473691Y39065000D01*
X3014250Y39065000D01*
X3173000Y39223750D01*
X3173000Y39923000D01*
X2123750Y39923000D01*
X2073750Y39873000D01*
X1127000Y39873000D01*
X873000Y39873000D01*
X853000Y39873000D01*
X853000Y40127000D01*
X873000Y40127000D01*
X873000Y40147000D01*
X1127000Y40147000D01*
X1127000Y40127000D01*
X2101250Y40127000D01*
X2151250Y40177000D01*
X2174975Y40177000D01*
X2240302Y40111673D01*
X2473691Y40015000D01*
X3014250Y40015000D01*
X3173000Y40173750D01*
X3173000Y40197000D01*
X3427000Y40197000D01*
X3427000Y40173750D01*
X3427000Y40173750D01*
G37*
X3427000Y40173750D02*
X3447000Y40153750D01*
X3447000Y39923000D01*
X3427000Y39923000D01*
X3427000Y39223750D01*
X3585750Y39065000D01*
X4126309Y39065000D01*
X4223227Y39105145D01*
X4223227Y38940265D01*
X4021582Y38738971D01*
X3848424Y38321962D01*
X3848030Y37870431D01*
X4020460Y37453120D01*
X4339462Y37133561D01*
X4756471Y36960403D01*
X5208002Y36960009D01*
X5553493Y37102763D01*
X5553160Y36721320D01*
X5725590Y36304009D01*
X6044592Y35984450D01*
X6461601Y35811292D01*
X6913132Y35810898D01*
X7330443Y35983328D01*
X7650002Y36302330D01*
X7823160Y36719339D01*
X7823554Y37170870D01*
X7651124Y37588181D01*
X7460000Y37779639D01*
X7460000Y39063850D01*
X7635317Y39096838D01*
X7808513Y39208286D01*
X7836673Y39140302D01*
X8015301Y38961673D01*
X8248690Y38865000D01*
X8714250Y38865000D01*
X8873000Y39023750D01*
X8873000Y39873000D01*
X8853000Y39873000D01*
X8853000Y40127000D01*
X8873000Y40127000D01*
X8873000Y40147000D01*
X9127000Y40147000D01*
X9127000Y40127000D01*
X9147000Y40127000D01*
X9147000Y39873000D01*
X9127000Y39873000D01*
X9127000Y39023750D01*
X9285750Y38865000D01*
X9290000Y38865000D01*
X9290000Y26135000D01*
X9285750Y26135000D01*
X9127000Y25976250D01*
X9127000Y25127000D01*
X9147000Y25127000D01*
X9147000Y24873000D01*
X9127000Y24873000D01*
X9127000Y24853000D01*
X8873000Y24853000D01*
X8873000Y24873000D01*
X8853000Y24873000D01*
X8853000Y25127000D01*
X8873000Y25127000D01*
X8873000Y25976250D01*
X8714250Y26135000D01*
X8248690Y26135000D01*
X8015301Y26038327D01*
X7836673Y25859698D01*
X7807771Y25789922D01*
X7651890Y25896431D01*
X7400000Y25947440D01*
X6000000Y25947440D01*
X5764683Y25903162D01*
X5548559Y25764090D01*
X5474103Y25655120D01*
X5459160Y25652148D01*
X5212599Y25487401D01*
X4928293Y25203095D01*
X4763546Y24956533D01*
X4705694Y24665694D01*
X4705694Y18074303D01*
X4491748Y18217257D01*
X4000000Y18315072D01*
X3508252Y18217257D01*
X3190341Y18004836D01*
X3188327Y18009699D01*
X3009698Y18188327D01*
X2776309Y18285000D01*
X2285750Y18285000D01*
X2127000Y18126250D01*
X2127000Y16877000D01*
X2147000Y16877000D01*
X2147000Y16623000D01*
X2127000Y16623000D01*
X2127000Y16603000D01*
X1873000Y16603000D01*
X1873000Y16623000D01*
X873750Y16623000D01*
X715000Y16464250D01*
X715000Y15723690D01*
X811673Y15490301D01*
X990302Y15311673D01*
X1002980Y15306422D01*
X812815Y15021820D01*
X715000Y14530072D01*
X715000Y14289802D01*
X710000Y14284802D01*
X710000Y17776310D01*
X715000Y17776310D01*
X715000Y17035750D01*
X873750Y16877000D01*
X1873000Y16877000D01*
X1873000Y18126250D01*
X1714250Y18285000D01*
X1223691Y18285000D01*
X990302Y18188327D01*
X811673Y18009699D01*
X715000Y17776310D01*
X710000Y17776310D01*
X710000Y21865000D01*
X714250Y21865000D01*
X873000Y22023750D01*
X873000Y22873000D01*
X1127000Y22873000D01*
X1127000Y22023750D01*
X1285750Y21865000D01*
X1751310Y21865000D01*
X1984699Y21961673D01*
X2163327Y22140302D01*
X2192132Y22209843D01*
X2240302Y22161673D01*
X2473691Y22065000D01*
X3014250Y22065000D01*
X3173000Y22223750D01*
X3173000Y22923000D01*
X3427000Y22923000D01*
X3427000Y22223750D01*
X3585750Y22065000D01*
X4126309Y22065000D01*
X4359698Y22161673D01*
X4538327Y22340301D01*
X4635000Y22573690D01*
X4635000Y22764250D01*
X4476250Y22923000D01*
X3427000Y22923000D01*
X3173000Y22923000D01*
X2123750Y22923000D01*
X2073750Y22873000D01*
X1127000Y22873000D01*
X873000Y22873000D01*
X853000Y22873000D01*
X853000Y23127000D01*
X873000Y23127000D01*
X873000Y23147000D01*
X1127000Y23147000D01*
X1127000Y23127000D01*
X2101250Y23127000D01*
X2151250Y23177000D01*
X2174975Y23177000D01*
X2240302Y23111673D01*
X2473691Y23015000D01*
X3014250Y23015000D01*
X3173000Y23173750D01*
X3173000Y23197000D01*
X3427000Y23197000D01*
X3427000Y23173750D01*
X3585750Y23015000D01*
X4126309Y23015000D01*
X4359698Y23111673D01*
X4425025Y23177000D01*
X4476250Y23177000D01*
X4635000Y23335750D01*
X4635000Y23714250D01*
X4476250Y23873000D01*
X4425025Y23873000D01*
X4359698Y23938327D01*
X4223712Y23994654D01*
X4235317Y23996838D01*
X4437594Y24127000D01*
X4476250Y24127000D01*
X4635000Y24285750D01*
X4635000Y24476310D01*
X4626532Y24496753D01*
X4647440Y24600000D01*
X4647440Y25300000D01*
X4603162Y25535317D01*
X4464090Y25751441D01*
X4251890Y25896431D01*
X4000000Y25947440D01*
X2600000Y25947440D01*
X2364683Y25903162D01*
X2191759Y25791889D01*
X2089090Y25951441D01*
X1998840Y26013106D01*
X2133204Y26336689D01*
X2133598Y26788220D01*
X1961168Y27205531D01*
X1642166Y27525090D01*
X1225157Y27698248D01*
X773626Y27698642D01*
X710000Y27672352D01*
X710000Y38865000D01*
X714250Y38865000D01*
X873000Y39023750D01*
X873000Y39873000D01*
X1127000Y39873000D01*
X1127000Y39023750D01*
X1285750Y38865000D01*
X1751310Y38865000D01*
X1984699Y38961673D01*
X2163327Y39140302D01*
X2192132Y39209843D01*
X2240302Y39161673D01*
X2473691Y39065000D01*
X3014250Y39065000D01*
X3173000Y39223750D01*
X3173000Y39923000D01*
X2123750Y39923000D01*
X2073750Y39873000D01*
X1127000Y39873000D01*
X873000Y39873000D01*
X853000Y39873000D01*
X853000Y40127000D01*
X873000Y40127000D01*
X873000Y40147000D01*
X1127000Y40147000D01*
X1127000Y40127000D01*
X2101250Y40127000D01*
X2151250Y40177000D01*
X2174975Y40177000D01*
X2240302Y40111673D01*
X2473691Y40015000D01*
X3014250Y40015000D01*
X3173000Y40173750D01*
X3173000Y40197000D01*
X3427000Y40197000D01*
X3427000Y40173750D01*
M02*
