G04 #@! TF.FileFunction,Legend,Top*
%FSLAX46Y46*%
G04 Gerber Fmt 4.6, Leading zero omitted, Abs format (unit mm)*
G04 Created by KiCad (PCBNEW (2016-01-25 BZR 6514, Git a23e712)-product) date Tue 24 May 2016 07:00:10 PM CST*
%MOMM*%
G01*
G04 APERTURE LIST*
%ADD10C,0.100000*%
%ADD11C,0.150000*%
G04 APERTURE END LIST*
D10*
D11*
X3300000Y5300000D02*
X6800000Y5300000D01*
X3300000Y8700000D02*
X6800000Y8700000D01*
X1850000Y6500000D02*
X1850000Y7500000D01*
X150000Y7500000D02*
X150000Y6500000D01*
X9850000Y6500000D02*
X9850000Y7500000D01*
X8150000Y7500000D02*
X8150000Y6500000D01*
X1850000Y23500000D02*
X1850000Y24500000D01*
X150000Y24500000D02*
X150000Y23500000D01*
X8150000Y24500000D02*
X8150000Y23500000D01*
X9850000Y23500000D02*
X9850000Y24500000D01*
X1850000Y40500000D02*
X1850000Y41500000D01*
X150000Y41500000D02*
X150000Y40500000D01*
X9850000Y40500000D02*
X9850000Y41500000D01*
X8150000Y41500000D02*
X8150000Y40500000D01*
X3300000Y39300000D02*
X6800000Y39300000D01*
X3300000Y42700000D02*
X6800000Y42700000D01*
X3300000Y22300000D02*
X6800000Y22300000D01*
X3300000Y25700000D02*
X6800000Y25700000D01*
X3988095Y4847619D02*
X3988095Y4038095D01*
X4035714Y3942857D01*
X4083333Y3895238D01*
X4178571Y3847619D01*
X4369048Y3847619D01*
X4464286Y3895238D01*
X4511905Y3942857D01*
X4559524Y4038095D01*
X4559524Y4847619D01*
X5559524Y3847619D02*
X4988095Y3847619D01*
X5273809Y3847619D02*
X5273809Y4847619D01*
X5178571Y4704762D01*
X5083333Y4609524D01*
X4988095Y4561905D01*
X2800000Y9347619D02*
X2800000Y9109524D01*
X2561905Y9204762D02*
X2800000Y9109524D01*
X3038096Y9204762D01*
X2657143Y8919048D02*
X2800000Y9109524D01*
X2942858Y8919048D01*
X1607143Y4083334D02*
X1654762Y4035715D01*
X1702381Y3892858D01*
X1702381Y3797620D01*
X1654762Y3654762D01*
X1559524Y3559524D01*
X1464286Y3511905D01*
X1273810Y3464286D01*
X1130952Y3464286D01*
X940476Y3511905D01*
X845238Y3559524D01*
X750000Y3654762D01*
X702381Y3797620D01*
X702381Y3892858D01*
X750000Y4035715D01*
X797619Y4083334D01*
X1702381Y5035715D02*
X1702381Y4464286D01*
X1702381Y4750000D02*
X702381Y4750000D01*
X845238Y4654762D01*
X940476Y4559524D01*
X988095Y4464286D01*
X9357143Y3833334D02*
X9404762Y3785715D01*
X9452381Y3642858D01*
X9452381Y3547620D01*
X9404762Y3404762D01*
X9309524Y3309524D01*
X9214286Y3261905D01*
X9023810Y3214286D01*
X8880952Y3214286D01*
X8690476Y3261905D01*
X8595238Y3309524D01*
X8500000Y3404762D01*
X8452381Y3547620D01*
X8452381Y3642858D01*
X8500000Y3785715D01*
X8547619Y3833334D01*
X8547619Y4214286D02*
X8500000Y4261905D01*
X8452381Y4357143D01*
X8452381Y4595239D01*
X8500000Y4690477D01*
X8547619Y4738096D01*
X8642857Y4785715D01*
X8738095Y4785715D01*
X8880952Y4738096D01*
X9452381Y4166667D01*
X9452381Y4785715D01*
X1357143Y20833334D02*
X1404762Y20785715D01*
X1452381Y20642858D01*
X1452381Y20547620D01*
X1404762Y20404762D01*
X1309524Y20309524D01*
X1214286Y20261905D01*
X1023810Y20214286D01*
X880952Y20214286D01*
X690476Y20261905D01*
X595238Y20309524D01*
X500000Y20404762D01*
X452381Y20547620D01*
X452381Y20642858D01*
X500000Y20785715D01*
X547619Y20833334D01*
X452381Y21166667D02*
X452381Y21785715D01*
X833333Y21452381D01*
X833333Y21595239D01*
X880952Y21690477D01*
X928571Y21738096D01*
X1023810Y21785715D01*
X1261905Y21785715D01*
X1357143Y21738096D01*
X1404762Y21690477D01*
X1452381Y21595239D01*
X1452381Y21309524D01*
X1404762Y21214286D01*
X1357143Y21166667D01*
X9357143Y20833334D02*
X9404762Y20785715D01*
X9452381Y20642858D01*
X9452381Y20547620D01*
X9404762Y20404762D01*
X9309524Y20309524D01*
X9214286Y20261905D01*
X9023810Y20214286D01*
X8880952Y20214286D01*
X8690476Y20261905D01*
X8595238Y20309524D01*
X8500000Y20404762D01*
X8452381Y20547620D01*
X8452381Y20642858D01*
X8500000Y20785715D01*
X8547619Y20833334D01*
X8785714Y21690477D02*
X9452381Y21690477D01*
X8404762Y21452381D02*
X9119048Y21214286D01*
X9119048Y21833334D01*
X1357143Y37833334D02*
X1404762Y37785715D01*
X1452381Y37642858D01*
X1452381Y37547620D01*
X1404762Y37404762D01*
X1309524Y37309524D01*
X1214286Y37261905D01*
X1023810Y37214286D01*
X880952Y37214286D01*
X690476Y37261905D01*
X595238Y37309524D01*
X500000Y37404762D01*
X452381Y37547620D01*
X452381Y37642858D01*
X500000Y37785715D01*
X547619Y37833334D01*
X452381Y38738096D02*
X452381Y38261905D01*
X928571Y38214286D01*
X880952Y38261905D01*
X833333Y38357143D01*
X833333Y38595239D01*
X880952Y38690477D01*
X928571Y38738096D01*
X1023810Y38785715D01*
X1261905Y38785715D01*
X1357143Y38738096D01*
X1404762Y38690477D01*
X1452381Y38595239D01*
X1452381Y38357143D01*
X1404762Y38261905D01*
X1357143Y38214286D01*
X9357143Y37833334D02*
X9404762Y37785715D01*
X9452381Y37642858D01*
X9452381Y37547620D01*
X9404762Y37404762D01*
X9309524Y37309524D01*
X9214286Y37261905D01*
X9023810Y37214286D01*
X8880952Y37214286D01*
X8690476Y37261905D01*
X8595238Y37309524D01*
X8500000Y37404762D01*
X8452381Y37547620D01*
X8452381Y37642858D01*
X8500000Y37785715D01*
X8547619Y37833334D01*
X8452381Y38690477D02*
X8452381Y38500000D01*
X8500000Y38404762D01*
X8547619Y38357143D01*
X8690476Y38261905D01*
X8880952Y38214286D01*
X9261905Y38214286D01*
X9357143Y38261905D01*
X9404762Y38309524D01*
X9452381Y38404762D01*
X9452381Y38595239D01*
X9404762Y38690477D01*
X9357143Y38738096D01*
X9261905Y38785715D01*
X9023810Y38785715D01*
X8928571Y38738096D01*
X8880952Y38690477D01*
X8833333Y38595239D01*
X8833333Y38404762D01*
X8880952Y38309524D01*
X8928571Y38261905D01*
X9023810Y38214286D01*
X3988095Y38847619D02*
X3988095Y38038095D01*
X4035714Y37942857D01*
X4083333Y37895238D01*
X4178571Y37847619D01*
X4369048Y37847619D01*
X4464286Y37895238D01*
X4511905Y37942857D01*
X4559524Y38038095D01*
X4559524Y38847619D01*
X4940476Y38847619D02*
X5559524Y38847619D01*
X5226190Y38466667D01*
X5369048Y38466667D01*
X5464286Y38419048D01*
X5511905Y38371429D01*
X5559524Y38276190D01*
X5559524Y38038095D01*
X5511905Y37942857D01*
X5464286Y37895238D01*
X5369048Y37847619D01*
X5083333Y37847619D01*
X4988095Y37895238D01*
X4940476Y37942857D01*
X2800000Y43347619D02*
X2800000Y43109524D01*
X2561905Y43204762D02*
X2800000Y43109524D01*
X3038096Y43204762D01*
X2657143Y42919048D02*
X2800000Y43109524D01*
X2942858Y42919048D01*
X3988095Y21847619D02*
X3988095Y21038095D01*
X4035714Y20942857D01*
X4083333Y20895238D01*
X4178571Y20847619D01*
X4369048Y20847619D01*
X4464286Y20895238D01*
X4511905Y20942857D01*
X4559524Y21038095D01*
X4559524Y21847619D01*
X4988095Y21752381D02*
X5035714Y21800000D01*
X5130952Y21847619D01*
X5369048Y21847619D01*
X5464286Y21800000D01*
X5511905Y21752381D01*
X5559524Y21657143D01*
X5559524Y21561905D01*
X5511905Y21419048D01*
X4940476Y20847619D01*
X5559524Y20847619D01*
X2800000Y26347619D02*
X2800000Y26109524D01*
X2561905Y26204762D02*
X2800000Y26109524D01*
X3038096Y26204762D01*
X2657143Y25919048D02*
X2800000Y26109524D01*
X2942858Y25919048D01*
M02*
