G04 #@! TF.FileFunction,Legend,Bot*
%FSLAX46Y46*%
G04 Gerber Fmt 4.6, Leading zero omitted, Abs format (unit mm)*
G04 Created by KiCad (PCBNEW (2016-01-25 BZR 6514, Git a23e712)-product) date Tue 24 May 2016 06:54:16 PM CST*
%MOMM*%
G01*
G04 APERTURE LIST*
%ADD10C,0.100000*%
%ADD11C,0.300000*%
%ADD12C,0.200000*%
%ADD13C,0.150000*%
G04 APERTURE END LIST*
D10*
D11*
X7321429Y12678572D02*
X7321429Y11821429D01*
X7321429Y12250001D02*
X8821429Y12250001D01*
X8607143Y12107144D01*
X8464286Y11964286D01*
X8392857Y11821429D01*
D12*
X3378571Y33821428D02*
X1878571Y33821428D01*
X1878571Y33464285D01*
X1950000Y33250000D01*
X2092857Y33107142D01*
X2235714Y33035714D01*
X2521429Y32964285D01*
X2735714Y32964285D01*
X3021429Y33035714D01*
X3164286Y33107142D01*
X3307143Y33250000D01*
X3378571Y33464285D01*
X3378571Y33821428D01*
X3378571Y32321428D02*
X1878571Y32321428D01*
X2378571Y31392856D02*
X3378571Y31749999D01*
X1878571Y31749999D02*
X1878571Y31607142D01*
X1950000Y31535714D01*
X2378571Y31392856D01*
X3378571Y31035714D01*
X5678571Y37214285D02*
X5678571Y37928571D01*
X4178571Y37928571D01*
X4892857Y36714285D02*
X4892857Y36214285D01*
X5678571Y35999999D02*
X5678571Y36714285D01*
X4178571Y36714285D01*
X4178571Y35999999D01*
X5678571Y35357142D02*
X4178571Y35357142D01*
X4178571Y34999999D01*
X4250000Y34785714D01*
X4392857Y34642856D01*
X4535714Y34571428D01*
X4821429Y34499999D01*
X5035714Y34499999D01*
X5321429Y34571428D01*
X5464286Y34642856D01*
X5607143Y34785714D01*
X5678571Y34999999D01*
X5678571Y35357142D01*
X5678571Y32714285D02*
X4178571Y32714285D01*
X4750000Y32714285D02*
X4678571Y32571428D01*
X4678571Y32285714D01*
X4750000Y32142857D01*
X4821429Y32071428D01*
X4964286Y31999999D01*
X5392857Y31999999D01*
X5535714Y32071428D01*
X5607143Y32142857D01*
X5678571Y32285714D01*
X5678571Y32571428D01*
X5607143Y32714285D01*
X5678571Y31142856D02*
X5607143Y31285714D01*
X5535714Y31357142D01*
X5392857Y31428571D01*
X4964286Y31428571D01*
X4821429Y31357142D01*
X4750000Y31285714D01*
X4678571Y31142856D01*
X4678571Y30928571D01*
X4750000Y30785714D01*
X4821429Y30714285D01*
X4964286Y30642856D01*
X5392857Y30642856D01*
X5535714Y30714285D01*
X5607143Y30785714D01*
X5678571Y30928571D01*
X5678571Y31142856D01*
X5678571Y29357142D02*
X4892857Y29357142D01*
X4750000Y29428571D01*
X4678571Y29571428D01*
X4678571Y29857142D01*
X4750000Y29999999D01*
X5607143Y29357142D02*
X5678571Y29499999D01*
X5678571Y29857142D01*
X5607143Y29999999D01*
X5464286Y30071428D01*
X5321429Y30071428D01*
X5178571Y29999999D01*
X5107143Y29857142D01*
X5107143Y29499999D01*
X5035714Y29357142D01*
X5678571Y28642856D02*
X4678571Y28642856D01*
X4964286Y28642856D02*
X4821429Y28571428D01*
X4750000Y28499999D01*
X4678571Y28357142D01*
X4678571Y28214285D01*
X5678571Y27071428D02*
X4178571Y27071428D01*
X5607143Y27071428D02*
X5678571Y27214285D01*
X5678571Y27499999D01*
X5607143Y27642857D01*
X5535714Y27714285D01*
X5392857Y27785714D01*
X4964286Y27785714D01*
X4821429Y27714285D01*
X4750000Y27642857D01*
X4678571Y27499999D01*
X4678571Y27214285D01*
X4750000Y27071428D01*
X6978571Y40178570D02*
X7978571Y39821427D01*
X6978571Y39464285D01*
X6478571Y38607142D02*
X6478571Y38464285D01*
X6550000Y38321428D01*
X6621429Y38249999D01*
X6764286Y38178570D01*
X7050000Y38107142D01*
X7407143Y38107142D01*
X7692857Y38178570D01*
X7835714Y38249999D01*
X7907143Y38321428D01*
X7978571Y38464285D01*
X7978571Y38607142D01*
X7907143Y38749999D01*
X7835714Y38821428D01*
X7692857Y38892856D01*
X7407143Y38964285D01*
X7050000Y38964285D01*
X6764286Y38892856D01*
X6621429Y38821428D01*
X6550000Y38749999D01*
X6478571Y38607142D01*
X7835714Y37464285D02*
X7907143Y37392857D01*
X7978571Y37464285D01*
X7907143Y37535714D01*
X7835714Y37464285D01*
X7978571Y37464285D01*
X7978571Y36678571D02*
X7978571Y36392856D01*
X7907143Y36249999D01*
X7835714Y36178571D01*
X7621429Y36035713D01*
X7335714Y35964285D01*
X6764286Y35964285D01*
X6621429Y36035713D01*
X6550000Y36107142D01*
X6478571Y36249999D01*
X6478571Y36535713D01*
X6550000Y36678571D01*
X6621429Y36749999D01*
X6764286Y36821428D01*
X7121429Y36821428D01*
X7264286Y36749999D01*
X7335714Y36678571D01*
X7407143Y36535713D01*
X7407143Y36249999D01*
X7335714Y36107142D01*
X7264286Y36035713D01*
X7121429Y35964285D01*
X7407143Y35321428D02*
X7407143Y34178571D01*
X6478571Y33607142D02*
X6478571Y32678571D01*
X7050000Y33178571D01*
X7050000Y32964285D01*
X7121429Y32821428D01*
X7192857Y32749999D01*
X7335714Y32678571D01*
X7692857Y32678571D01*
X7835714Y32749999D01*
X7907143Y32821428D01*
X7978571Y32964285D01*
X7978571Y33392857D01*
X7907143Y33535714D01*
X7835714Y33607142D01*
X7978571Y32178571D02*
X6978571Y31392857D01*
X6978571Y32178571D02*
X7978571Y31392857D01*
X7407143Y30821428D02*
X7407143Y29678571D01*
X7978571Y28178571D02*
X7978571Y29035714D01*
X7978571Y28607142D02*
X6478571Y28607142D01*
X6692857Y28749999D01*
X6835714Y28892857D01*
X6907143Y29035714D01*
X7907143Y26892857D02*
X7978571Y27035714D01*
X7978571Y27321428D01*
X7907143Y27464286D01*
X7835714Y27535714D01*
X7692857Y27607143D01*
X7264286Y27607143D01*
X7121429Y27535714D01*
X7050000Y27464286D01*
X6978571Y27321428D01*
X6978571Y27035714D01*
X7050000Y26892857D01*
X7978571Y26250000D02*
X6978571Y26250000D01*
X7121429Y26250000D02*
X7050000Y26178572D01*
X6978571Y26035714D01*
X6978571Y25821429D01*
X7050000Y25678572D01*
X7192857Y25607143D01*
X7978571Y25607143D01*
X7192857Y25607143D02*
X7050000Y25535714D01*
X6978571Y25392857D01*
X6978571Y25178572D01*
X7050000Y25035714D01*
X7192857Y24964286D01*
X7978571Y24964286D01*
D13*
X9000000Y15500000D02*
X7000000Y15500000D01*
X1000000Y17500000D02*
X1000000Y13500000D01*
X1000000Y13500000D02*
X9000000Y13500000D01*
X9000000Y17500000D02*
X1000000Y17500000D01*
X9000000Y13500000D02*
X9000000Y17500000D01*
X7000000Y15500000D02*
X7000000Y13500000D01*
D10*
X8600000Y16500000D02*
X8600000Y17000000D01*
X7400000Y16500000D02*
X7400000Y17000000D01*
X8600000Y17000000D02*
G75*
G03X7400000Y17000000I-600000J0D01*
G01*
X7400000Y16500000D02*
G75*
G03X8600000Y16500000I600000J0D01*
G01*
X6600000Y14000000D02*
X6600000Y14500000D01*
X5400000Y14000000D02*
X5400000Y14500000D01*
X6600000Y14500000D02*
G75*
G03X5400000Y14500000I-600000J0D01*
G01*
X5400000Y14000000D02*
G75*
G03X6600000Y14000000I600000J0D01*
G01*
X6600000Y16500000D02*
X6600000Y17000000D01*
X5400000Y16500000D02*
X5400000Y17000000D01*
X6600000Y17000000D02*
G75*
G03X5400000Y17000000I-600000J0D01*
G01*
X5400000Y16500000D02*
G75*
G03X6600000Y16500000I600000J0D01*
G01*
X4600000Y14000000D02*
X4600000Y14500000D01*
X3400000Y14000000D02*
X3400000Y14500000D01*
X4600000Y14500000D02*
G75*
G03X3400000Y14500000I-600000J0D01*
G01*
X3400000Y14000000D02*
G75*
G03X4600000Y14000000I600000J0D01*
G01*
X4600000Y16500000D02*
X4600000Y17000000D01*
X3400000Y16500000D02*
X3400000Y17000000D01*
X4600000Y17000000D02*
G75*
G03X3400000Y17000000I-600000J0D01*
G01*
X3400000Y16500000D02*
G75*
G03X4600000Y16500000I600000J0D01*
G01*
X2600000Y14000000D02*
X2600000Y14500000D01*
X1400000Y14000000D02*
X1400000Y14500000D01*
X2600000Y14500000D02*
G75*
G03X1400000Y14500000I-600000J0D01*
G01*
X1400000Y14000000D02*
G75*
G03X2600000Y14000000I600000J0D01*
G01*
X2600000Y16500000D02*
X2600000Y17000000D01*
X1400000Y16500000D02*
X1400000Y17000000D01*
X2600000Y17000000D02*
G75*
G03X1400000Y17000000I-600000J0D01*
G01*
X1400000Y16500000D02*
G75*
G03X2600000Y16500000I600000J0D01*
G01*
D13*
X5738095Y18297619D02*
X5738095Y19297619D01*
X5357142Y19297619D01*
X5261904Y19250000D01*
X5214285Y19202381D01*
X5166666Y19107143D01*
X5166666Y18964286D01*
X5214285Y18869048D01*
X5261904Y18821429D01*
X5357142Y18773810D01*
X5738095Y18773810D01*
X4214285Y18297619D02*
X4785714Y18297619D01*
X4500000Y18297619D02*
X4500000Y19297619D01*
X4595238Y19154762D01*
X4690476Y19059524D01*
X4785714Y19011905D01*
M02*
