G04 #@! TF.FileFunction,Copper,L2,Bot,Signal*
%FSLAX46Y46*%
G04 Gerber Fmt 4.6, Leading zero omitted, Abs format (unit mm)*
G04 Created by KiCad (PCBNEW (2016-01-25 BZR 6514, Git a23e712)-product) date Tue 24 May 2016 06:54:16 PM CST*
%MOMM*%
G01*
G04 APERTURE LIST*
%ADD10C,0.100000*%
%ADD11R,1.900000X2.000000*%
%ADD12C,1.900000*%
%ADD13R,1.300000X1.800000*%
%ADD14O,1.300000X1.800000*%
%ADD15C,0.500000*%
%ADD16C,0.254000*%
G04 APERTURE END LIST*
D10*
D11*
X3710000Y7000000D03*
D12*
X6250000Y7000000D03*
D11*
X3750000Y41000000D03*
D12*
X6290000Y41000000D03*
D11*
X3750000Y24000000D03*
D12*
X6290000Y24000000D03*
D13*
X8000000Y14250000D03*
D14*
X8000000Y16750000D03*
X6000000Y14250000D03*
X6000000Y16750000D03*
X4000000Y14250000D03*
X4000000Y16750000D03*
X2000000Y14250000D03*
X2000000Y16750000D03*
D15*
X3750000Y37500000D02*
X3750000Y41000000D01*
X8000000Y33250000D02*
X3750000Y37500000D01*
X8000000Y16500000D02*
X8000000Y33250000D01*
X3750000Y20250000D02*
X3750000Y24000000D01*
X6000000Y18000000D02*
X3750000Y20250000D01*
X6000000Y16500000D02*
X6000000Y18000000D01*
X3710000Y7000000D02*
X2260000Y7000000D01*
X2260000Y7000000D02*
X750000Y8510000D01*
X750000Y8510000D02*
X750000Y17863374D01*
X750000Y17863374D02*
X1515488Y18628862D01*
X1515488Y18628862D02*
X3132150Y18628862D01*
X3132150Y18628862D02*
X4000000Y17761012D01*
X4000000Y17761012D02*
X4000000Y16500000D01*
D16*
G36*
X9315000Y685000D02*
X685000Y685000D01*
X685000Y7323420D01*
X1634208Y6374213D01*
X1634210Y6374210D01*
X1921325Y6182367D01*
X2112560Y6144328D01*
X2112560Y6000000D01*
X2156838Y5764683D01*
X2295910Y5548559D01*
X2508110Y5403569D01*
X2760000Y5352560D01*
X4660000Y5352560D01*
X4895317Y5396838D01*
X5111441Y5535910D01*
X5256431Y5748110D01*
X5257055Y5751192D01*
X5350997Y5657086D01*
X5933341Y5415276D01*
X6563893Y5414725D01*
X7146657Y5655519D01*
X7592914Y6100997D01*
X7834724Y6683341D01*
X7835275Y7313893D01*
X7594481Y7896657D01*
X7149003Y8342914D01*
X6566659Y8584724D01*
X5936107Y8585275D01*
X5353343Y8344481D01*
X5255663Y8246971D01*
X5124090Y8451441D01*
X4911890Y8596431D01*
X4660000Y8647440D01*
X2760000Y8647440D01*
X2524683Y8603162D01*
X2308559Y8464090D01*
X2202586Y8308993D01*
X1635000Y8876580D01*
X1635000Y12757531D01*
X2000000Y12684928D01*
X2491748Y12782743D01*
X2908632Y13061296D01*
X3000000Y13198038D01*
X3091368Y13061296D01*
X3508252Y12782743D01*
X4000000Y12684928D01*
X4491748Y12782743D01*
X4908632Y13061296D01*
X5000000Y13198038D01*
X5091368Y13061296D01*
X5508252Y12782743D01*
X6000000Y12684928D01*
X6491748Y12782743D01*
X6819510Y13001747D01*
X6885910Y12898559D01*
X7098110Y12753569D01*
X7350000Y12702560D01*
X8650000Y12702560D01*
X8885317Y12746838D01*
X9101441Y12885910D01*
X9246431Y13098110D01*
X9297440Y13350000D01*
X9297440Y15150000D01*
X9253162Y15385317D01*
X9114090Y15601441D01*
X8991448Y15685239D01*
X9187185Y15978180D01*
X9285000Y16469928D01*
X9285000Y17030072D01*
X9187185Y17521820D01*
X8908632Y17938704D01*
X8885000Y17954494D01*
X8885000Y33249995D01*
X8885001Y33250000D01*
X8817633Y33588674D01*
X8817633Y33588675D01*
X8625790Y33875790D01*
X8625787Y33875792D01*
X4635000Y37866580D01*
X4635000Y39352560D01*
X4700000Y39352560D01*
X4935317Y39396838D01*
X5151441Y39535910D01*
X5296431Y39748110D01*
X5297055Y39751192D01*
X5390997Y39657086D01*
X5973341Y39415276D01*
X6603893Y39414725D01*
X7186657Y39655519D01*
X7632914Y40100997D01*
X7874724Y40683341D01*
X7875275Y41313893D01*
X7634481Y41896657D01*
X7189003Y42342914D01*
X6606659Y42584724D01*
X5976107Y42585275D01*
X5393343Y42344481D01*
X5295663Y42246971D01*
X5164090Y42451441D01*
X4951890Y42596431D01*
X4700000Y42647440D01*
X2800000Y42647440D01*
X2564683Y42603162D01*
X2348559Y42464090D01*
X2203569Y42251890D01*
X2152560Y42000000D01*
X2152560Y40000000D01*
X2196838Y39764683D01*
X2335910Y39548559D01*
X2548110Y39403569D01*
X2800000Y39352560D01*
X2865000Y39352560D01*
X2865000Y37500005D01*
X2864999Y37500000D01*
X2921190Y37217516D01*
X2932367Y37161325D01*
X3124210Y36874210D01*
X7115000Y32883421D01*
X7115000Y25373643D01*
X6606659Y25584724D01*
X5976107Y25585275D01*
X5393343Y25344481D01*
X5295663Y25246971D01*
X5164090Y25451441D01*
X4951890Y25596431D01*
X4700000Y25647440D01*
X2800000Y25647440D01*
X2564683Y25603162D01*
X2348559Y25464090D01*
X2203569Y25251890D01*
X2152560Y25000000D01*
X2152560Y23000000D01*
X2196838Y22764683D01*
X2335910Y22548559D01*
X2548110Y22403569D01*
X2800000Y22352560D01*
X2865000Y22352560D01*
X2865000Y20250005D01*
X2864999Y20250000D01*
X2921190Y19967516D01*
X2932367Y19911325D01*
X3124210Y19624210D01*
X3259986Y19488434D01*
X3132150Y19513863D01*
X3132145Y19513862D01*
X1515493Y19513862D01*
X1515488Y19513863D01*
X1176814Y19446496D01*
X1081542Y19382837D01*
X889698Y19254652D01*
X889696Y19254649D01*
X685000Y19049953D01*
X685000Y47315000D01*
X9315000Y47315000D01*
X9315000Y685000D01*
X9315000Y685000D01*
G37*
X9315000Y685000D02*
X685000Y685000D01*
X685000Y7323420D01*
X1634208Y6374213D01*
X1634210Y6374210D01*
X1921325Y6182367D01*
X2112560Y6144328D01*
X2112560Y6000000D01*
X2156838Y5764683D01*
X2295910Y5548559D01*
X2508110Y5403569D01*
X2760000Y5352560D01*
X4660000Y5352560D01*
X4895317Y5396838D01*
X5111441Y5535910D01*
X5256431Y5748110D01*
X5257055Y5751192D01*
X5350997Y5657086D01*
X5933341Y5415276D01*
X6563893Y5414725D01*
X7146657Y5655519D01*
X7592914Y6100997D01*
X7834724Y6683341D01*
X7835275Y7313893D01*
X7594481Y7896657D01*
X7149003Y8342914D01*
X6566659Y8584724D01*
X5936107Y8585275D01*
X5353343Y8344481D01*
X5255663Y8246971D01*
X5124090Y8451441D01*
X4911890Y8596431D01*
X4660000Y8647440D01*
X2760000Y8647440D01*
X2524683Y8603162D01*
X2308559Y8464090D01*
X2202586Y8308993D01*
X1635000Y8876580D01*
X1635000Y12757531D01*
X2000000Y12684928D01*
X2491748Y12782743D01*
X2908632Y13061296D01*
X3000000Y13198038D01*
X3091368Y13061296D01*
X3508252Y12782743D01*
X4000000Y12684928D01*
X4491748Y12782743D01*
X4908632Y13061296D01*
X5000000Y13198038D01*
X5091368Y13061296D01*
X5508252Y12782743D01*
X6000000Y12684928D01*
X6491748Y12782743D01*
X6819510Y13001747D01*
X6885910Y12898559D01*
X7098110Y12753569D01*
X7350000Y12702560D01*
X8650000Y12702560D01*
X8885317Y12746838D01*
X9101441Y12885910D01*
X9246431Y13098110D01*
X9297440Y13350000D01*
X9297440Y15150000D01*
X9253162Y15385317D01*
X9114090Y15601441D01*
X8991448Y15685239D01*
X9187185Y15978180D01*
X9285000Y16469928D01*
X9285000Y17030072D01*
X9187185Y17521820D01*
X8908632Y17938704D01*
X8885000Y17954494D01*
X8885000Y33249995D01*
X8885001Y33250000D01*
X8817633Y33588674D01*
X8817633Y33588675D01*
X8625790Y33875790D01*
X8625787Y33875792D01*
X4635000Y37866580D01*
X4635000Y39352560D01*
X4700000Y39352560D01*
X4935317Y39396838D01*
X5151441Y39535910D01*
X5296431Y39748110D01*
X5297055Y39751192D01*
X5390997Y39657086D01*
X5973341Y39415276D01*
X6603893Y39414725D01*
X7186657Y39655519D01*
X7632914Y40100997D01*
X7874724Y40683341D01*
X7875275Y41313893D01*
X7634481Y41896657D01*
X7189003Y42342914D01*
X6606659Y42584724D01*
X5976107Y42585275D01*
X5393343Y42344481D01*
X5295663Y42246971D01*
X5164090Y42451441D01*
X4951890Y42596431D01*
X4700000Y42647440D01*
X2800000Y42647440D01*
X2564683Y42603162D01*
X2348559Y42464090D01*
X2203569Y42251890D01*
X2152560Y42000000D01*
X2152560Y40000000D01*
X2196838Y39764683D01*
X2335910Y39548559D01*
X2548110Y39403569D01*
X2800000Y39352560D01*
X2865000Y39352560D01*
X2865000Y37500005D01*
X2864999Y37500000D01*
X2921190Y37217516D01*
X2932367Y37161325D01*
X3124210Y36874210D01*
X7115000Y32883421D01*
X7115000Y25373643D01*
X6606659Y25584724D01*
X5976107Y25585275D01*
X5393343Y25344481D01*
X5295663Y25246971D01*
X5164090Y25451441D01*
X4951890Y25596431D01*
X4700000Y25647440D01*
X2800000Y25647440D01*
X2564683Y25603162D01*
X2348559Y25464090D01*
X2203569Y25251890D01*
X2152560Y25000000D01*
X2152560Y23000000D01*
X2196838Y22764683D01*
X2335910Y22548559D01*
X2548110Y22403569D01*
X2800000Y22352560D01*
X2865000Y22352560D01*
X2865000Y20250005D01*
X2864999Y20250000D01*
X2921190Y19967516D01*
X2932367Y19911325D01*
X3124210Y19624210D01*
X3259986Y19488434D01*
X3132150Y19513863D01*
X3132145Y19513862D01*
X1515493Y19513862D01*
X1515488Y19513863D01*
X1176814Y19446496D01*
X1081542Y19382837D01*
X889698Y19254652D01*
X889696Y19254649D01*
X685000Y19049953D01*
X685000Y47315000D01*
X9315000Y47315000D01*
X9315000Y685000D01*
G36*
X5390997Y22657086D02*
X5973341Y22415276D01*
X6603893Y22414725D01*
X7115000Y22625911D01*
X7115000Y17954494D01*
X7091368Y17938704D01*
X7000000Y17801962D01*
X6908632Y17938704D01*
X6885000Y17954494D01*
X6885000Y17999995D01*
X6885001Y18000000D01*
X6817634Y18338674D01*
X6657291Y18578645D01*
X6625790Y18625790D01*
X6625787Y18625792D01*
X4635000Y20616580D01*
X4635000Y22352560D01*
X4700000Y22352560D01*
X4935317Y22396838D01*
X5151441Y22535910D01*
X5296431Y22748110D01*
X5297055Y22751192D01*
X5390997Y22657086D01*
X5390997Y22657086D01*
G37*
X5390997Y22657086D02*
X5973341Y22415276D01*
X6603893Y22414725D01*
X7115000Y22625911D01*
X7115000Y17954494D01*
X7091368Y17938704D01*
X7000000Y17801962D01*
X6908632Y17938704D01*
X6885000Y17954494D01*
X6885000Y17999995D01*
X6885001Y18000000D01*
X6817634Y18338674D01*
X6657291Y18578645D01*
X6625790Y18625790D01*
X6625787Y18625792D01*
X4635000Y20616580D01*
X4635000Y22352560D01*
X4700000Y22352560D01*
X4935317Y22396838D01*
X5151441Y22535910D01*
X5296431Y22748110D01*
X5297055Y22751192D01*
X5390997Y22657086D01*
M02*
