G04 #@! TF.FileFunction,Legend,Bot*
%FSLAX46Y46*%
G04 Gerber Fmt 4.6, Leading zero omitted, Abs format (unit mm)*
G04 Created by KiCad (PCBNEW (2016-01-25 BZR 6514, Git a23e712)-product) date Tue 24 May 2016 06:15:30 PM CST*
%MOMM*%
G01*
G04 APERTURE LIST*
%ADD10C,0.100000*%
%ADD11C,0.400000*%
%ADD12C,0.150000*%
G04 APERTURE END LIST*
D10*
D11*
X6500000Y55845238D02*
X6500000Y55369048D01*
X6023809Y55559524D02*
X6500000Y55369048D01*
X6976190Y55559524D01*
X6214285Y54988095D02*
X6500000Y55369048D01*
X6785714Y54988095D01*
D12*
X28525000Y31050000D02*
X28525000Y32050000D01*
X25175000Y31050000D02*
X25175000Y32050000D01*
X7175000Y54375000D02*
X7510000Y54375000D01*
X7175000Y46625000D02*
X7510000Y46625000D01*
X20325000Y46625000D02*
X19990000Y46625000D01*
X20325000Y54375000D02*
X19990000Y54375000D01*
X7175000Y54375000D02*
X7175000Y46625000D01*
X20325000Y54375000D02*
X20325000Y46625000D01*
X7510000Y54375000D02*
X7510000Y56175000D01*
X25250000Y48150000D02*
X24250000Y48150000D01*
X24250000Y49850000D02*
X25250000Y49850000D01*
X25250000Y52400000D02*
X24250000Y52400000D01*
X24250000Y54100000D02*
X25250000Y54100000D01*
X33625000Y39650000D02*
X33625000Y40850000D01*
X31875000Y40850000D02*
X31875000Y39650000D01*
X33575000Y22650000D02*
X33575000Y23850000D01*
X31825000Y23850000D02*
X31825000Y22650000D01*
X28150000Y8375000D02*
X29350000Y8375000D01*
X29350000Y10125000D02*
X28150000Y10125000D01*
X16775000Y31000000D02*
X16775000Y32000000D01*
X13425000Y31000000D02*
X13425000Y32000000D01*
X30202381Y32916666D02*
X29726190Y33250000D01*
X30202381Y33488095D02*
X29202381Y33488095D01*
X29202381Y33107142D01*
X29250000Y33011904D01*
X29297619Y32964285D01*
X29392857Y32916666D01*
X29535714Y32916666D01*
X29630952Y32964285D01*
X29678571Y33011904D01*
X29726190Y33107142D01*
X29726190Y33488095D01*
X30202381Y32488095D02*
X29202381Y32488095D01*
X29202381Y32107142D01*
X29250000Y32011904D01*
X29297619Y31964285D01*
X29392857Y31916666D01*
X29535714Y31916666D01*
X29630952Y31964285D01*
X29678571Y32011904D01*
X29726190Y32107142D01*
X29726190Y32488095D01*
X30202381Y30964285D02*
X30202381Y31535714D01*
X30202381Y31250000D02*
X29202381Y31250000D01*
X29345238Y31345238D01*
X29440476Y31440476D01*
X29488095Y31535714D01*
X5702381Y51261905D02*
X6511905Y51261905D01*
X6607143Y51214286D01*
X6654762Y51166667D01*
X6702381Y51071429D01*
X6702381Y50880952D01*
X6654762Y50785714D01*
X6607143Y50738095D01*
X6511905Y50690476D01*
X5702381Y50690476D01*
X5797619Y50261905D02*
X5750000Y50214286D01*
X5702381Y50119048D01*
X5702381Y49880952D01*
X5750000Y49785714D01*
X5797619Y49738095D01*
X5892857Y49690476D01*
X5988095Y49690476D01*
X6130952Y49738095D01*
X6702381Y50309524D01*
X6702381Y49690476D01*
X24916666Y46542857D02*
X24964285Y46495238D01*
X25107142Y46447619D01*
X25202380Y46447619D01*
X25345238Y46495238D01*
X25440476Y46590476D01*
X25488095Y46685714D01*
X25535714Y46876190D01*
X25535714Y47019048D01*
X25488095Y47209524D01*
X25440476Y47304762D01*
X25345238Y47400000D01*
X25202380Y47447619D01*
X25107142Y47447619D01*
X24964285Y47400000D01*
X24916666Y47352381D01*
X23964285Y46447619D02*
X24535714Y46447619D01*
X24250000Y46447619D02*
X24250000Y47447619D01*
X24345238Y47304762D01*
X24440476Y47209524D01*
X24535714Y47161905D01*
X24916666Y50792857D02*
X24964285Y50745238D01*
X25107142Y50697619D01*
X25202380Y50697619D01*
X25345238Y50745238D01*
X25440476Y50840476D01*
X25488095Y50935714D01*
X25535714Y51126190D01*
X25535714Y51269048D01*
X25488095Y51459524D01*
X25440476Y51554762D01*
X25345238Y51650000D01*
X25202380Y51697619D01*
X25107142Y51697619D01*
X24964285Y51650000D01*
X24916666Y51602381D01*
X24535714Y51602381D02*
X24488095Y51650000D01*
X24392857Y51697619D01*
X24154761Y51697619D01*
X24059523Y51650000D01*
X24011904Y51602381D01*
X23964285Y51507143D01*
X23964285Y51411905D01*
X24011904Y51269048D01*
X24583333Y50697619D01*
X23964285Y50697619D01*
X31102381Y40416666D02*
X30626190Y40750000D01*
X31102381Y40988095D02*
X30102381Y40988095D01*
X30102381Y40607142D01*
X30150000Y40511904D01*
X30197619Y40464285D01*
X30292857Y40416666D01*
X30435714Y40416666D01*
X30530952Y40464285D01*
X30578571Y40511904D01*
X30626190Y40607142D01*
X30626190Y40988095D01*
X30102381Y40083333D02*
X30102381Y39416666D01*
X31102381Y39845238D01*
X31052381Y23416666D02*
X30576190Y23750000D01*
X31052381Y23988095D02*
X30052381Y23988095D01*
X30052381Y23607142D01*
X30100000Y23511904D01*
X30147619Y23464285D01*
X30242857Y23416666D01*
X30385714Y23416666D01*
X30480952Y23464285D01*
X30528571Y23511904D01*
X30576190Y23607142D01*
X30576190Y23988095D01*
X30480952Y22845238D02*
X30433333Y22940476D01*
X30385714Y22988095D01*
X30290476Y23035714D01*
X30242857Y23035714D01*
X30147619Y22988095D01*
X30100000Y22940476D01*
X30052381Y22845238D01*
X30052381Y22654761D01*
X30100000Y22559523D01*
X30147619Y22511904D01*
X30242857Y22464285D01*
X30290476Y22464285D01*
X30385714Y22511904D01*
X30433333Y22559523D01*
X30480952Y22654761D01*
X30480952Y22845238D01*
X30528571Y22940476D01*
X30576190Y22988095D01*
X30671429Y23035714D01*
X30861905Y23035714D01*
X30957143Y22988095D01*
X31004762Y22940476D01*
X31052381Y22845238D01*
X31052381Y22654761D01*
X31004762Y22559523D01*
X30957143Y22511904D01*
X30861905Y22464285D01*
X30671429Y22464285D01*
X30576190Y22511904D01*
X30528571Y22559523D01*
X30480952Y22654761D01*
X28916666Y10897619D02*
X29250000Y11373810D01*
X29488095Y10897619D02*
X29488095Y11897619D01*
X29107142Y11897619D01*
X29011904Y11850000D01*
X28964285Y11802381D01*
X28916666Y11707143D01*
X28916666Y11564286D01*
X28964285Y11469048D01*
X29011904Y11421429D01*
X29107142Y11373810D01*
X29488095Y11373810D01*
X28440476Y10897619D02*
X28250000Y10897619D01*
X28154761Y10945238D01*
X28107142Y10992857D01*
X28011904Y11135714D01*
X27964285Y11326190D01*
X27964285Y11707143D01*
X28011904Y11802381D01*
X28059523Y11850000D01*
X28154761Y11897619D01*
X28345238Y11897619D01*
X28440476Y11850000D01*
X28488095Y11802381D01*
X28535714Y11707143D01*
X28535714Y11469048D01*
X28488095Y11373810D01*
X28440476Y11326190D01*
X28345238Y11278571D01*
X28154761Y11278571D01*
X28059523Y11326190D01*
X28011904Y11373810D01*
X27964285Y11469048D01*
X12752381Y32166666D02*
X12276190Y32500000D01*
X12752381Y32738095D02*
X11752381Y32738095D01*
X11752381Y32357142D01*
X11800000Y32261904D01*
X11847619Y32214285D01*
X11942857Y32166666D01*
X12085714Y32166666D01*
X12180952Y32214285D01*
X12228571Y32261904D01*
X12276190Y32357142D01*
X12276190Y32738095D01*
X12752381Y31738095D02*
X11752381Y31738095D01*
X11752381Y31357142D01*
X11800000Y31261904D01*
X11847619Y31214285D01*
X11942857Y31166666D01*
X12085714Y31166666D01*
X12180952Y31214285D01*
X12228571Y31261904D01*
X12276190Y31357142D01*
X12276190Y31738095D01*
X11847619Y30785714D02*
X11800000Y30738095D01*
X11752381Y30642857D01*
X11752381Y30404761D01*
X11800000Y30309523D01*
X11847619Y30261904D01*
X11942857Y30214285D01*
X12038095Y30214285D01*
X12180952Y30261904D01*
X12752381Y30833333D01*
X12752381Y30214285D01*
M02*
