G04 #@! TF.FileFunction,Copper,L1,Top,Signal*
%FSLAX46Y46*%
G04 Gerber Fmt 4.6, Leading zero omitted, Abs format (unit mm)*
G04 Created by KiCad (PCBNEW (2016-01-25 BZR 6514, Git a23e712)-product) date Tue 24 May 2016 06:15:30 PM CST*
%MOMM*%
G01*
G04 APERTURE LIST*
%ADD10C,0.100000*%
%ADD11O,3.000000X1.600000*%
%ADD12R,1.900000X2.000000*%
%ADD13C,1.900000*%
%ADD14R,1.800000X1.300000*%
%ADD15O,1.800000X1.300000*%
%ADD16C,1.000000*%
%ADD17C,1.000000*%
%ADD18C,0.300000*%
%ADD19C,0.250000*%
%ADD20C,0.254000*%
G04 APERTURE END LIST*
D10*
D11*
X7780000Y42810000D03*
X7780000Y40270000D03*
X7780000Y37730000D03*
X7780000Y35190000D03*
X7780000Y32650000D03*
X7780000Y30110000D03*
X7780000Y27570000D03*
X7780000Y25030000D03*
X7780000Y22490000D03*
X7780000Y19950000D03*
X7780000Y17410000D03*
X7780000Y14870000D03*
X7780000Y12330000D03*
X7780000Y9790000D03*
X7780000Y7250000D03*
X21720000Y7250000D03*
X21720000Y9790000D03*
X21720000Y12330000D03*
X21720000Y14870000D03*
X21720000Y17410000D03*
X21720000Y19950000D03*
X21720000Y22490000D03*
X21720000Y25030000D03*
X21720000Y27570000D03*
X21720000Y30110000D03*
X21720000Y32650000D03*
X21720000Y35190000D03*
X21720000Y37730000D03*
X21720000Y40270000D03*
X21720000Y42810000D03*
D12*
X34500000Y47250000D03*
D13*
X31960000Y47250000D03*
D12*
X34540000Y30250000D03*
D13*
X32000000Y30250000D03*
D12*
X34500000Y13250000D03*
D13*
X31960000Y13250000D03*
D14*
X26000000Y41750000D03*
D15*
X28500000Y41750000D03*
X26000000Y39750000D03*
X28500000Y39750000D03*
X26000000Y37750000D03*
X28500000Y37750000D03*
X26000000Y35750000D03*
X28500000Y35750000D03*
D14*
X26000000Y24750000D03*
D15*
X28500000Y24750000D03*
X26000000Y22750000D03*
X28500000Y22750000D03*
X26000000Y20750000D03*
X28500000Y20750000D03*
X26000000Y18750000D03*
X28500000Y18750000D03*
D16*
X15100000Y28700000D03*
X26272967Y29013556D03*
X28250000Y53250000D03*
X14666540Y50264044D03*
X16948543Y50154068D03*
X18183740Y41819171D03*
X11250457Y35109840D03*
X14963704Y52760441D03*
X27750000Y51000000D03*
X14700000Y34250000D03*
X19171337Y51878623D03*
X14347712Y37036478D03*
X16912612Y40278409D03*
X24908585Y27567631D03*
X24169695Y32350010D03*
D17*
X22370000Y9790000D02*
X25432533Y9790000D01*
X25432533Y9790000D02*
X28892533Y13250000D01*
X28892533Y13250000D02*
X31960000Y13250000D01*
X15100000Y12646792D02*
X15100000Y28700000D01*
X22370000Y9790000D02*
X17535505Y9790000D01*
X15100000Y12646792D02*
X15100000Y12225505D01*
X15100000Y12225505D02*
X17535505Y9790000D01*
X26272967Y29013556D02*
X30763556Y29013556D01*
X30763556Y29013556D02*
X32000000Y30250000D01*
X26272967Y29013556D02*
X26272967Y28329250D01*
X26272967Y28329250D02*
X26272967Y24772967D01*
X32000000Y30250000D02*
X32000000Y41441701D01*
X32000000Y41441701D02*
X32000000Y47210000D01*
X28250000Y41750000D02*
X31691701Y41750000D01*
X31691701Y41750000D02*
X32000000Y41441701D01*
X31960000Y13250000D02*
X31960000Y18695283D01*
X31960000Y18695283D02*
X31960000Y30210000D01*
X26272967Y24772967D02*
X26250000Y24750000D01*
X32000000Y47210000D02*
X31960000Y47250000D01*
X31960000Y30210000D02*
X32000000Y30250000D01*
D18*
X26250000Y39750000D02*
X24895899Y39750000D01*
X24895899Y39750000D02*
X24586029Y40059870D01*
X24586029Y40059870D02*
X24586029Y44663971D01*
X24586029Y44663971D02*
X18188630Y51061370D01*
X18188630Y51061370D02*
X15463866Y51061370D01*
X15463866Y51061370D02*
X15166539Y50764043D01*
X15166539Y50764043D02*
X14666540Y50264044D01*
X17448542Y49654069D02*
X16948543Y50154068D01*
X23919605Y43183006D02*
X17448542Y49654069D01*
X23919605Y38542897D02*
X23919605Y43183006D01*
X24712502Y37750000D02*
X23919605Y38542897D01*
X26250000Y37750000D02*
X24712502Y37750000D01*
X26250000Y35750000D02*
X24133215Y35750000D01*
X24133215Y35750000D02*
X23421644Y36461571D01*
X23421644Y36461571D02*
X19288429Y36461571D01*
X18183740Y41112065D02*
X18183740Y41819171D01*
X19288429Y36461571D02*
X18183740Y37566260D01*
X18183740Y37566260D02*
X18183740Y41112065D01*
X11250457Y35816946D02*
X11250457Y35109840D01*
X11250457Y51150457D02*
X11250457Y35816946D01*
X14963704Y52760441D02*
X12860441Y52760441D01*
X12860441Y52760441D02*
X11250457Y51150457D01*
X15670810Y52760441D02*
X14963704Y52760441D01*
X25989559Y52760441D02*
X15670810Y52760441D01*
X27750000Y51000000D02*
X25989559Y52760441D01*
X14700000Y34250000D02*
X14700000Y34957106D01*
X13476835Y36180271D02*
X13476835Y36186347D01*
X14700000Y34957106D02*
X13476835Y36180271D01*
X19171337Y51878623D02*
X13728623Y51878623D01*
X13728623Y51878623D02*
X12650000Y50800000D01*
X12650000Y50800000D02*
X12650000Y37013182D01*
X12650000Y37013182D02*
X13476835Y36186347D01*
X28250000Y37750000D02*
X28250000Y37806516D01*
X28250000Y37806516D02*
X27253259Y38803257D01*
D19*
X27253259Y38803257D02*
X27253259Y43163496D01*
X27253259Y43163496D02*
X27225001Y43191754D01*
D18*
X27225001Y43824959D02*
X19671336Y51378624D01*
X19671336Y51378624D02*
X19171337Y51878623D01*
X27225001Y43191754D02*
X27225001Y43824959D01*
X16531657Y37036478D02*
X15054818Y37036478D01*
X15054818Y37036478D02*
X14347712Y37036478D01*
X16912612Y37417433D02*
X16531657Y37036478D01*
X28250000Y35750000D02*
X28250000Y34910990D01*
X28250000Y34910990D02*
X27260301Y33921291D01*
X27260301Y33921291D02*
X20408754Y33921291D01*
X20408754Y33921291D02*
X16912612Y37417433D01*
X16912612Y37417433D02*
X16912612Y39571303D01*
X16912612Y39571303D02*
X16912612Y40278409D01*
X24408586Y27067632D02*
X24908585Y27567631D01*
X22370000Y25030000D02*
X22370954Y25030000D01*
X22370954Y25030000D02*
X24408586Y27067632D01*
X23674999Y29262242D02*
X23674999Y31148208D01*
X22881753Y28468996D02*
X23674999Y29262242D01*
X22881753Y28468996D02*
X22881753Y28081753D01*
X22881753Y28081753D02*
X22370000Y27570000D01*
X23674999Y31148208D02*
X24169695Y31642904D01*
X24169695Y31642904D02*
X24169695Y32350010D01*
D20*
G36*
X12040000Y57750000D02*
X12094046Y57478295D01*
X12247954Y57247954D01*
X12478295Y57094046D01*
X12750000Y57040000D01*
X32750000Y57040000D01*
X33021705Y57094046D01*
X33252046Y57247954D01*
X33405954Y57478295D01*
X33460000Y57750000D01*
X33460000Y59790000D01*
X37040000Y59790000D01*
X37040000Y710000D01*
X33460000Y710000D01*
X33460000Y2750000D01*
X33405954Y3021705D01*
X33252046Y3252046D01*
X33021705Y3405954D01*
X32750000Y3460000D01*
X12750000Y3460000D01*
X12478295Y3405954D01*
X12247954Y3252046D01*
X12094046Y3021705D01*
X12040000Y2750000D01*
X12040000Y710000D01*
X8460000Y710000D01*
X8460000Y2750000D01*
X8405954Y3021705D01*
X8252046Y3252046D01*
X8021705Y3405954D01*
X7750000Y3460000D01*
X3460000Y3460000D01*
X3460000Y6900961D01*
X5688096Y6900961D01*
X5705633Y6818181D01*
X5975500Y6325104D01*
X6413517Y5972834D01*
X6953000Y5815000D01*
X7653000Y5815000D01*
X7653000Y7123000D01*
X7907000Y7123000D01*
X7907000Y5815000D01*
X8607000Y5815000D01*
X9146483Y5972834D01*
X9584500Y6325104D01*
X9854367Y6818181D01*
X9871904Y6900961D01*
X19628096Y6900961D01*
X19645633Y6818181D01*
X19915500Y6325104D01*
X20353517Y5972834D01*
X20893000Y5815000D01*
X21593000Y5815000D01*
X21593000Y7123000D01*
X21847000Y7123000D01*
X21847000Y5815000D01*
X22547000Y5815000D01*
X23086483Y5972834D01*
X23524500Y6325104D01*
X23794367Y6818181D01*
X23811904Y6900961D01*
X23689915Y7123000D01*
X21847000Y7123000D01*
X21593000Y7123000D01*
X19750085Y7123000D01*
X19628096Y6900961D01*
X9871904Y6900961D01*
X9749915Y7123000D01*
X7907000Y7123000D01*
X7653000Y7123000D01*
X5810085Y7123000D01*
X5688096Y6900961D01*
X3460000Y6900961D01*
X3460000Y9440961D01*
X5688096Y9440961D01*
X5705633Y9358181D01*
X5975500Y8865104D01*
X6404607Y8520000D01*
X5975500Y8174896D01*
X5705633Y7681819D01*
X5688096Y7599039D01*
X5810085Y7377000D01*
X7653000Y7377000D01*
X7653000Y9663000D01*
X7907000Y9663000D01*
X7907000Y7377000D01*
X9749915Y7377000D01*
X9871904Y7599039D01*
X9854367Y7681819D01*
X9584500Y8174896D01*
X9155393Y8520000D01*
X9584500Y8865104D01*
X9854367Y9358181D01*
X9871904Y9440961D01*
X9749915Y9663000D01*
X7907000Y9663000D01*
X7653000Y9663000D01*
X5810085Y9663000D01*
X5688096Y9440961D01*
X3460000Y9440961D01*
X3460000Y9750000D01*
X3405954Y10021705D01*
X3252046Y10252046D01*
X3021705Y10405954D01*
X2750000Y10460000D01*
X710000Y10460000D01*
X710000Y11980961D01*
X5688096Y11980961D01*
X5705633Y11898181D01*
X5975500Y11405104D01*
X6404607Y11060000D01*
X5975500Y10714896D01*
X5705633Y10221819D01*
X5688096Y10139039D01*
X5810085Y9917000D01*
X7653000Y9917000D01*
X7653000Y12203000D01*
X7907000Y12203000D01*
X7907000Y9917000D01*
X9749915Y9917000D01*
X9871904Y10139039D01*
X9854367Y10221819D01*
X9584500Y10714896D01*
X9155393Y11060000D01*
X9584500Y11405104D01*
X9854367Y11898181D01*
X9871904Y11980961D01*
X9749915Y12203000D01*
X7907000Y12203000D01*
X7653000Y12203000D01*
X5810085Y12203000D01*
X5688096Y11980961D01*
X710000Y11980961D01*
X710000Y14520961D01*
X5688096Y14520961D01*
X5705633Y14438181D01*
X5975500Y13945104D01*
X6404607Y13600000D01*
X5975500Y13254896D01*
X5705633Y12761819D01*
X5688096Y12679039D01*
X5810085Y12457000D01*
X7653000Y12457000D01*
X7653000Y14743000D01*
X7907000Y14743000D01*
X7907000Y12457000D01*
X9749915Y12457000D01*
X9871904Y12679039D01*
X9854367Y12761819D01*
X9584500Y13254896D01*
X9155393Y13600000D01*
X9584500Y13945104D01*
X9854367Y14438181D01*
X9871904Y14520961D01*
X9749915Y14743000D01*
X7907000Y14743000D01*
X7653000Y14743000D01*
X5810085Y14743000D01*
X5688096Y14520961D01*
X710000Y14520961D01*
X710000Y16040000D01*
X2750000Y16040000D01*
X3021705Y16094046D01*
X3252046Y16247954D01*
X3405954Y16478295D01*
X3460000Y16750000D01*
X3460000Y17060961D01*
X5688096Y17060961D01*
X5705633Y16978181D01*
X5975500Y16485104D01*
X6404607Y16140000D01*
X5975500Y15794896D01*
X5705633Y15301819D01*
X5688096Y15219039D01*
X5810085Y14997000D01*
X7653000Y14997000D01*
X7653000Y17283000D01*
X7907000Y17283000D01*
X7907000Y14997000D01*
X9749915Y14997000D01*
X9871904Y15219039D01*
X9854367Y15301819D01*
X9584500Y15794896D01*
X9155393Y16140000D01*
X9584500Y16485104D01*
X9854367Y16978181D01*
X9871904Y17060961D01*
X9749915Y17283000D01*
X7907000Y17283000D01*
X7653000Y17283000D01*
X5810085Y17283000D01*
X5688096Y17060961D01*
X3460000Y17060961D01*
X3460000Y32650000D01*
X5603173Y32650000D01*
X5712406Y32100849D01*
X6023475Y31635302D01*
X6405561Y31380000D01*
X6023475Y31124698D01*
X5712406Y30659151D01*
X5603173Y30110000D01*
X5712406Y29560849D01*
X6023475Y29095302D01*
X6405561Y28840000D01*
X6023475Y28584698D01*
X5712406Y28119151D01*
X5603173Y27570000D01*
X5712406Y27020849D01*
X6023475Y26555302D01*
X6405561Y26300000D01*
X6023475Y26044698D01*
X5712406Y25579151D01*
X5603173Y25030000D01*
X5712406Y24480849D01*
X6023475Y24015302D01*
X6405561Y23760000D01*
X6023475Y23504698D01*
X5712406Y23039151D01*
X5603173Y22490000D01*
X5712406Y21940849D01*
X6023475Y21475302D01*
X6405561Y21220000D01*
X6023475Y20964698D01*
X5712406Y20499151D01*
X5603173Y19950000D01*
X5712406Y19400849D01*
X6023475Y18935302D01*
X6405040Y18680348D01*
X5975500Y18334896D01*
X5705633Y17841819D01*
X5688096Y17759039D01*
X5810085Y17537000D01*
X7653000Y17537000D01*
X7653000Y17557000D01*
X7907000Y17557000D01*
X7907000Y17537000D01*
X9749915Y17537000D01*
X9871904Y17759039D01*
X9854367Y17841819D01*
X9584500Y18334896D01*
X9154960Y18680348D01*
X9536525Y18935302D01*
X9847594Y19400849D01*
X9956827Y19950000D01*
X9847594Y20499151D01*
X9536525Y20964698D01*
X9154439Y21220000D01*
X9536525Y21475302D01*
X9847594Y21940849D01*
X9956827Y22490000D01*
X9847594Y23039151D01*
X9536525Y23504698D01*
X9154439Y23760000D01*
X9536525Y24015302D01*
X9847594Y24480849D01*
X9956827Y25030000D01*
X9847594Y25579151D01*
X9536525Y26044698D01*
X9154439Y26300000D01*
X9536525Y26555302D01*
X9847594Y27020849D01*
X9956827Y27570000D01*
X9847594Y28119151D01*
X9536525Y28584698D01*
X9154439Y28840000D01*
X9536525Y29095302D01*
X9847594Y29560849D01*
X9956827Y30110000D01*
X9847594Y30659151D01*
X9536525Y31124698D01*
X9154439Y31380000D01*
X9536525Y31635302D01*
X9847594Y32100849D01*
X9956827Y32650000D01*
X9847594Y33199151D01*
X9536525Y33664698D01*
X9154960Y33919652D01*
X9584500Y34265104D01*
X9854367Y34758181D01*
X9871904Y34840961D01*
X9847674Y34885065D01*
X10115260Y34885065D01*
X10287690Y34467754D01*
X10606692Y34148195D01*
X11023701Y33975037D01*
X11475232Y33974643D01*
X11892543Y34147073D01*
X12212102Y34466075D01*
X12385260Y34883084D01*
X12385654Y35334615D01*
X12213224Y35751926D01*
X12035457Y35930003D01*
X12035457Y36547097D01*
X12094921Y36458103D01*
X12909521Y35643503D01*
X12921756Y35625192D01*
X13713365Y34833583D01*
X13565197Y34476756D01*
X13564803Y34025225D01*
X13737233Y33607914D01*
X14056235Y33288355D01*
X14473244Y33115197D01*
X14924775Y33114803D01*
X15342086Y33287233D01*
X15661645Y33606235D01*
X15834803Y34023244D01*
X15835197Y34474775D01*
X15662767Y34892086D01*
X15456916Y35098297D01*
X15425245Y35257512D01*
X15422335Y35261867D01*
X15255079Y35512185D01*
X15255076Y35512187D01*
X14780169Y35987094D01*
X14989798Y36073711D01*
X15167875Y36251478D01*
X16531657Y36251478D01*
X16832064Y36311233D01*
X16877976Y36341911D01*
X19799938Y33419949D01*
X19652406Y33199151D01*
X19543173Y32650000D01*
X19652406Y32100849D01*
X19963475Y31635302D01*
X20345561Y31380000D01*
X19963475Y31124698D01*
X19652406Y30659151D01*
X19543173Y30110000D01*
X19652406Y29560849D01*
X19963475Y29095302D01*
X20345561Y28840000D01*
X19963475Y28584698D01*
X19652406Y28119151D01*
X19543173Y27570000D01*
X19652406Y27020849D01*
X19963475Y26555302D01*
X20345561Y26300000D01*
X19963475Y26044698D01*
X19652406Y25579151D01*
X19543173Y25030000D01*
X19652406Y24480849D01*
X19963475Y24015302D01*
X20345561Y23760000D01*
X19963475Y23504698D01*
X19652406Y23039151D01*
X19543173Y22490000D01*
X19652406Y21940849D01*
X19963475Y21475302D01*
X20345561Y21220000D01*
X19963475Y20964698D01*
X19652406Y20499151D01*
X19543173Y19950000D01*
X19652406Y19400849D01*
X19963475Y18935302D01*
X20345561Y18680000D01*
X19963475Y18424698D01*
X19652406Y17959151D01*
X19543173Y17410000D01*
X19652406Y16860849D01*
X19963475Y16395302D01*
X20345561Y16140000D01*
X19963475Y15884698D01*
X19652406Y15419151D01*
X19543173Y14870000D01*
X19652406Y14320849D01*
X19963475Y13855302D01*
X20345561Y13600000D01*
X19963475Y13344698D01*
X19652406Y12879151D01*
X19543173Y12330000D01*
X19652406Y11780849D01*
X19963475Y11315302D01*
X20345561Y11060000D01*
X20143519Y10925000D01*
X18005637Y10925000D01*
X16235000Y12695637D01*
X16235000Y28699009D01*
X16235197Y28924775D01*
X16062767Y29342086D01*
X15743765Y29661645D01*
X15326756Y29834803D01*
X14875225Y29835197D01*
X14457914Y29662767D01*
X14138355Y29343765D01*
X13965197Y28926756D01*
X13964803Y28475225D01*
X13965000Y28474748D01*
X13965000Y12225505D01*
X14051397Y11791159D01*
X14177415Y11602560D01*
X14297434Y11422939D01*
X16732939Y8987434D01*
X17101159Y8741397D01*
X17535505Y8655000D01*
X20143519Y8655000D01*
X20345040Y8520348D01*
X19915500Y8174896D01*
X19645633Y7681819D01*
X19628096Y7599039D01*
X19750085Y7377000D01*
X21593000Y7377000D01*
X21593000Y7397000D01*
X21847000Y7397000D01*
X21847000Y7377000D01*
X23689915Y7377000D01*
X23811904Y7599039D01*
X23794367Y7681819D01*
X23524500Y8174896D01*
X23094960Y8520348D01*
X23296481Y8655000D01*
X25432533Y8655000D01*
X25866879Y8741397D01*
X26235099Y8987434D01*
X29362665Y12115000D01*
X30853446Y12115000D01*
X31060997Y11907086D01*
X31643341Y11665276D01*
X32273893Y11664725D01*
X32856657Y11905519D01*
X32954337Y12003029D01*
X33085910Y11798559D01*
X33298110Y11653569D01*
X33550000Y11602560D01*
X35450000Y11602560D01*
X35685317Y11646838D01*
X35901441Y11785910D01*
X36046431Y11998110D01*
X36097440Y12250000D01*
X36097440Y14250000D01*
X36053162Y14485317D01*
X35914090Y14701441D01*
X35701890Y14846431D01*
X35450000Y14897440D01*
X33550000Y14897440D01*
X33314683Y14853162D01*
X33098559Y14714090D01*
X33095000Y14708881D01*
X33095000Y28846594D01*
X33125910Y28798559D01*
X33338110Y28653569D01*
X33590000Y28602560D01*
X35490000Y28602560D01*
X35725317Y28646838D01*
X35941441Y28785910D01*
X36086431Y28998110D01*
X36137440Y29250000D01*
X36137440Y31250000D01*
X36093162Y31485317D01*
X35954090Y31701441D01*
X35741890Y31846431D01*
X35490000Y31897440D01*
X33590000Y31897440D01*
X33354683Y31853162D01*
X33138559Y31714090D01*
X33135000Y31708881D01*
X33135000Y45765017D01*
X33298110Y45653569D01*
X33550000Y45602560D01*
X35450000Y45602560D01*
X35685317Y45646838D01*
X35901441Y45785910D01*
X36046431Y45998110D01*
X36097440Y46250000D01*
X36097440Y48250000D01*
X36053162Y48485317D01*
X35914090Y48701441D01*
X35701890Y48846431D01*
X35450000Y48897440D01*
X33550000Y48897440D01*
X33314683Y48853162D01*
X33098559Y48714090D01*
X32953569Y48501890D01*
X32952945Y48498808D01*
X32859003Y48592914D01*
X32276659Y48834724D01*
X31646107Y48835275D01*
X31063343Y48594481D01*
X30617086Y48149003D01*
X30375276Y47566659D01*
X30374725Y46936107D01*
X30615519Y46353343D01*
X30865000Y46103426D01*
X30865000Y42885000D01*
X29349920Y42885000D01*
X29271820Y42937185D01*
X28780072Y43035000D01*
X28219928Y43035000D01*
X28013259Y42993891D01*
X28013259Y43163496D01*
X28008820Y43185814D01*
X28010001Y43191754D01*
X28010001Y43824959D01*
X27950246Y44125365D01*
X27780080Y44380038D01*
X27780077Y44380040D01*
X20306316Y51853802D01*
X20306422Y51975441D01*
X25664401Y51975441D01*
X26615021Y51024822D01*
X26614803Y50775225D01*
X26787233Y50357914D01*
X27106235Y50038355D01*
X27523244Y49865197D01*
X27974775Y49864803D01*
X28392086Y50037233D01*
X28711645Y50356235D01*
X28884803Y50773244D01*
X28885197Y51224775D01*
X28712767Y51642086D01*
X28393765Y51961645D01*
X27976756Y52134803D01*
X27725135Y52135023D01*
X26544638Y53315520D01*
X26289966Y53485686D01*
X25989559Y53545441D01*
X15783806Y53545441D01*
X15607469Y53722086D01*
X15190460Y53895244D01*
X14738929Y53895638D01*
X14321618Y53723208D01*
X14143541Y53545441D01*
X12860441Y53545441D01*
X12560034Y53485686D01*
X12305362Y53315520D01*
X10695378Y51705536D01*
X10525212Y51450864D01*
X10480645Y51226811D01*
X10465457Y51150457D01*
X10465457Y35929942D01*
X10288812Y35753605D01*
X10115654Y35336596D01*
X10115260Y34885065D01*
X9847674Y34885065D01*
X9749915Y35063000D01*
X7907000Y35063000D01*
X7907000Y35043000D01*
X7653000Y35043000D01*
X7653000Y35063000D01*
X5810085Y35063000D01*
X5688096Y34840961D01*
X5705633Y34758181D01*
X5975500Y34265104D01*
X6405040Y33919652D01*
X6023475Y33664698D01*
X5712406Y33199151D01*
X5603173Y32650000D01*
X3460000Y32650000D01*
X3460000Y42810000D01*
X5603173Y42810000D01*
X5712406Y42260849D01*
X6023475Y41795302D01*
X6405561Y41540000D01*
X6023475Y41284698D01*
X5712406Y40819151D01*
X5603173Y40270000D01*
X5712406Y39720849D01*
X6023475Y39255302D01*
X6405561Y39000000D01*
X6023475Y38744698D01*
X5712406Y38279151D01*
X5603173Y37730000D01*
X5712406Y37180849D01*
X6023475Y36715302D01*
X6405040Y36460348D01*
X5975500Y36114896D01*
X5705633Y35621819D01*
X5688096Y35539039D01*
X5810085Y35317000D01*
X7653000Y35317000D01*
X7653000Y35337000D01*
X7907000Y35337000D01*
X7907000Y35317000D01*
X9749915Y35317000D01*
X9871904Y35539039D01*
X9854367Y35621819D01*
X9584500Y36114896D01*
X9154960Y36460348D01*
X9536525Y36715302D01*
X9847594Y37180849D01*
X9956827Y37730000D01*
X9847594Y38279151D01*
X9536525Y38744698D01*
X9154439Y39000000D01*
X9536525Y39255302D01*
X9847594Y39720849D01*
X9956827Y40270000D01*
X9847594Y40819151D01*
X9536525Y41284698D01*
X9154439Y41540000D01*
X9536525Y41795302D01*
X9847594Y42260849D01*
X9956827Y42810000D01*
X9847594Y43359151D01*
X9536525Y43824698D01*
X9070978Y44135767D01*
X8521827Y44245000D01*
X7038173Y44245000D01*
X6489022Y44135767D01*
X6023475Y43824698D01*
X5712406Y43359151D01*
X5603173Y42810000D01*
X3460000Y42810000D01*
X3460000Y43750000D01*
X3405954Y44021705D01*
X3252046Y44252046D01*
X3021705Y44405954D01*
X2750000Y44460000D01*
X710000Y44460000D01*
X710000Y50040000D01*
X2750000Y50040000D01*
X3021705Y50094046D01*
X3252046Y50247954D01*
X3405954Y50478295D01*
X3460000Y50750000D01*
X3460000Y57040000D01*
X7750000Y57040000D01*
X8021705Y57094046D01*
X8252046Y57247954D01*
X8405954Y57478295D01*
X8460000Y57750000D01*
X8460000Y59790000D01*
X12040000Y59790000D01*
X12040000Y57750000D01*
X12040000Y57750000D01*
G37*
X12040000Y57750000D02*
X12094046Y57478295D01*
X12247954Y57247954D01*
X12478295Y57094046D01*
X12750000Y57040000D01*
X32750000Y57040000D01*
X33021705Y57094046D01*
X33252046Y57247954D01*
X33405954Y57478295D01*
X33460000Y57750000D01*
X33460000Y59790000D01*
X37040000Y59790000D01*
X37040000Y710000D01*
X33460000Y710000D01*
X33460000Y2750000D01*
X33405954Y3021705D01*
X33252046Y3252046D01*
X33021705Y3405954D01*
X32750000Y3460000D01*
X12750000Y3460000D01*
X12478295Y3405954D01*
X12247954Y3252046D01*
X12094046Y3021705D01*
X12040000Y2750000D01*
X12040000Y710000D01*
X8460000Y710000D01*
X8460000Y2750000D01*
X8405954Y3021705D01*
X8252046Y3252046D01*
X8021705Y3405954D01*
X7750000Y3460000D01*
X3460000Y3460000D01*
X3460000Y6900961D01*
X5688096Y6900961D01*
X5705633Y6818181D01*
X5975500Y6325104D01*
X6413517Y5972834D01*
X6953000Y5815000D01*
X7653000Y5815000D01*
X7653000Y7123000D01*
X7907000Y7123000D01*
X7907000Y5815000D01*
X8607000Y5815000D01*
X9146483Y5972834D01*
X9584500Y6325104D01*
X9854367Y6818181D01*
X9871904Y6900961D01*
X19628096Y6900961D01*
X19645633Y6818181D01*
X19915500Y6325104D01*
X20353517Y5972834D01*
X20893000Y5815000D01*
X21593000Y5815000D01*
X21593000Y7123000D01*
X21847000Y7123000D01*
X21847000Y5815000D01*
X22547000Y5815000D01*
X23086483Y5972834D01*
X23524500Y6325104D01*
X23794367Y6818181D01*
X23811904Y6900961D01*
X23689915Y7123000D01*
X21847000Y7123000D01*
X21593000Y7123000D01*
X19750085Y7123000D01*
X19628096Y6900961D01*
X9871904Y6900961D01*
X9749915Y7123000D01*
X7907000Y7123000D01*
X7653000Y7123000D01*
X5810085Y7123000D01*
X5688096Y6900961D01*
X3460000Y6900961D01*
X3460000Y9440961D01*
X5688096Y9440961D01*
X5705633Y9358181D01*
X5975500Y8865104D01*
X6404607Y8520000D01*
X5975500Y8174896D01*
X5705633Y7681819D01*
X5688096Y7599039D01*
X5810085Y7377000D01*
X7653000Y7377000D01*
X7653000Y9663000D01*
X7907000Y9663000D01*
X7907000Y7377000D01*
X9749915Y7377000D01*
X9871904Y7599039D01*
X9854367Y7681819D01*
X9584500Y8174896D01*
X9155393Y8520000D01*
X9584500Y8865104D01*
X9854367Y9358181D01*
X9871904Y9440961D01*
X9749915Y9663000D01*
X7907000Y9663000D01*
X7653000Y9663000D01*
X5810085Y9663000D01*
X5688096Y9440961D01*
X3460000Y9440961D01*
X3460000Y9750000D01*
X3405954Y10021705D01*
X3252046Y10252046D01*
X3021705Y10405954D01*
X2750000Y10460000D01*
X710000Y10460000D01*
X710000Y11980961D01*
X5688096Y11980961D01*
X5705633Y11898181D01*
X5975500Y11405104D01*
X6404607Y11060000D01*
X5975500Y10714896D01*
X5705633Y10221819D01*
X5688096Y10139039D01*
X5810085Y9917000D01*
X7653000Y9917000D01*
X7653000Y12203000D01*
X7907000Y12203000D01*
X7907000Y9917000D01*
X9749915Y9917000D01*
X9871904Y10139039D01*
X9854367Y10221819D01*
X9584500Y10714896D01*
X9155393Y11060000D01*
X9584500Y11405104D01*
X9854367Y11898181D01*
X9871904Y11980961D01*
X9749915Y12203000D01*
X7907000Y12203000D01*
X7653000Y12203000D01*
X5810085Y12203000D01*
X5688096Y11980961D01*
X710000Y11980961D01*
X710000Y14520961D01*
X5688096Y14520961D01*
X5705633Y14438181D01*
X5975500Y13945104D01*
X6404607Y13600000D01*
X5975500Y13254896D01*
X5705633Y12761819D01*
X5688096Y12679039D01*
X5810085Y12457000D01*
X7653000Y12457000D01*
X7653000Y14743000D01*
X7907000Y14743000D01*
X7907000Y12457000D01*
X9749915Y12457000D01*
X9871904Y12679039D01*
X9854367Y12761819D01*
X9584500Y13254896D01*
X9155393Y13600000D01*
X9584500Y13945104D01*
X9854367Y14438181D01*
X9871904Y14520961D01*
X9749915Y14743000D01*
X7907000Y14743000D01*
X7653000Y14743000D01*
X5810085Y14743000D01*
X5688096Y14520961D01*
X710000Y14520961D01*
X710000Y16040000D01*
X2750000Y16040000D01*
X3021705Y16094046D01*
X3252046Y16247954D01*
X3405954Y16478295D01*
X3460000Y16750000D01*
X3460000Y17060961D01*
X5688096Y17060961D01*
X5705633Y16978181D01*
X5975500Y16485104D01*
X6404607Y16140000D01*
X5975500Y15794896D01*
X5705633Y15301819D01*
X5688096Y15219039D01*
X5810085Y14997000D01*
X7653000Y14997000D01*
X7653000Y17283000D01*
X7907000Y17283000D01*
X7907000Y14997000D01*
X9749915Y14997000D01*
X9871904Y15219039D01*
X9854367Y15301819D01*
X9584500Y15794896D01*
X9155393Y16140000D01*
X9584500Y16485104D01*
X9854367Y16978181D01*
X9871904Y17060961D01*
X9749915Y17283000D01*
X7907000Y17283000D01*
X7653000Y17283000D01*
X5810085Y17283000D01*
X5688096Y17060961D01*
X3460000Y17060961D01*
X3460000Y32650000D01*
X5603173Y32650000D01*
X5712406Y32100849D01*
X6023475Y31635302D01*
X6405561Y31380000D01*
X6023475Y31124698D01*
X5712406Y30659151D01*
X5603173Y30110000D01*
X5712406Y29560849D01*
X6023475Y29095302D01*
X6405561Y28840000D01*
X6023475Y28584698D01*
X5712406Y28119151D01*
X5603173Y27570000D01*
X5712406Y27020849D01*
X6023475Y26555302D01*
X6405561Y26300000D01*
X6023475Y26044698D01*
X5712406Y25579151D01*
X5603173Y25030000D01*
X5712406Y24480849D01*
X6023475Y24015302D01*
X6405561Y23760000D01*
X6023475Y23504698D01*
X5712406Y23039151D01*
X5603173Y22490000D01*
X5712406Y21940849D01*
X6023475Y21475302D01*
X6405561Y21220000D01*
X6023475Y20964698D01*
X5712406Y20499151D01*
X5603173Y19950000D01*
X5712406Y19400849D01*
X6023475Y18935302D01*
X6405040Y18680348D01*
X5975500Y18334896D01*
X5705633Y17841819D01*
X5688096Y17759039D01*
X5810085Y17537000D01*
X7653000Y17537000D01*
X7653000Y17557000D01*
X7907000Y17557000D01*
X7907000Y17537000D01*
X9749915Y17537000D01*
X9871904Y17759039D01*
X9854367Y17841819D01*
X9584500Y18334896D01*
X9154960Y18680348D01*
X9536525Y18935302D01*
X9847594Y19400849D01*
X9956827Y19950000D01*
X9847594Y20499151D01*
X9536525Y20964698D01*
X9154439Y21220000D01*
X9536525Y21475302D01*
X9847594Y21940849D01*
X9956827Y22490000D01*
X9847594Y23039151D01*
X9536525Y23504698D01*
X9154439Y23760000D01*
X9536525Y24015302D01*
X9847594Y24480849D01*
X9956827Y25030000D01*
X9847594Y25579151D01*
X9536525Y26044698D01*
X9154439Y26300000D01*
X9536525Y26555302D01*
X9847594Y27020849D01*
X9956827Y27570000D01*
X9847594Y28119151D01*
X9536525Y28584698D01*
X9154439Y28840000D01*
X9536525Y29095302D01*
X9847594Y29560849D01*
X9956827Y30110000D01*
X9847594Y30659151D01*
X9536525Y31124698D01*
X9154439Y31380000D01*
X9536525Y31635302D01*
X9847594Y32100849D01*
X9956827Y32650000D01*
X9847594Y33199151D01*
X9536525Y33664698D01*
X9154960Y33919652D01*
X9584500Y34265104D01*
X9854367Y34758181D01*
X9871904Y34840961D01*
X9847674Y34885065D01*
X10115260Y34885065D01*
X10287690Y34467754D01*
X10606692Y34148195D01*
X11023701Y33975037D01*
X11475232Y33974643D01*
X11892543Y34147073D01*
X12212102Y34466075D01*
X12385260Y34883084D01*
X12385654Y35334615D01*
X12213224Y35751926D01*
X12035457Y35930003D01*
X12035457Y36547097D01*
X12094921Y36458103D01*
X12909521Y35643503D01*
X12921756Y35625192D01*
X13713365Y34833583D01*
X13565197Y34476756D01*
X13564803Y34025225D01*
X13737233Y33607914D01*
X14056235Y33288355D01*
X14473244Y33115197D01*
X14924775Y33114803D01*
X15342086Y33287233D01*
X15661645Y33606235D01*
X15834803Y34023244D01*
X15835197Y34474775D01*
X15662767Y34892086D01*
X15456916Y35098297D01*
X15425245Y35257512D01*
X15422335Y35261867D01*
X15255079Y35512185D01*
X15255076Y35512187D01*
X14780169Y35987094D01*
X14989798Y36073711D01*
X15167875Y36251478D01*
X16531657Y36251478D01*
X16832064Y36311233D01*
X16877976Y36341911D01*
X19799938Y33419949D01*
X19652406Y33199151D01*
X19543173Y32650000D01*
X19652406Y32100849D01*
X19963475Y31635302D01*
X20345561Y31380000D01*
X19963475Y31124698D01*
X19652406Y30659151D01*
X19543173Y30110000D01*
X19652406Y29560849D01*
X19963475Y29095302D01*
X20345561Y28840000D01*
X19963475Y28584698D01*
X19652406Y28119151D01*
X19543173Y27570000D01*
X19652406Y27020849D01*
X19963475Y26555302D01*
X20345561Y26300000D01*
X19963475Y26044698D01*
X19652406Y25579151D01*
X19543173Y25030000D01*
X19652406Y24480849D01*
X19963475Y24015302D01*
X20345561Y23760000D01*
X19963475Y23504698D01*
X19652406Y23039151D01*
X19543173Y22490000D01*
X19652406Y21940849D01*
X19963475Y21475302D01*
X20345561Y21220000D01*
X19963475Y20964698D01*
X19652406Y20499151D01*
X19543173Y19950000D01*
X19652406Y19400849D01*
X19963475Y18935302D01*
X20345561Y18680000D01*
X19963475Y18424698D01*
X19652406Y17959151D01*
X19543173Y17410000D01*
X19652406Y16860849D01*
X19963475Y16395302D01*
X20345561Y16140000D01*
X19963475Y15884698D01*
X19652406Y15419151D01*
X19543173Y14870000D01*
X19652406Y14320849D01*
X19963475Y13855302D01*
X20345561Y13600000D01*
X19963475Y13344698D01*
X19652406Y12879151D01*
X19543173Y12330000D01*
X19652406Y11780849D01*
X19963475Y11315302D01*
X20345561Y11060000D01*
X20143519Y10925000D01*
X18005637Y10925000D01*
X16235000Y12695637D01*
X16235000Y28699009D01*
X16235197Y28924775D01*
X16062767Y29342086D01*
X15743765Y29661645D01*
X15326756Y29834803D01*
X14875225Y29835197D01*
X14457914Y29662767D01*
X14138355Y29343765D01*
X13965197Y28926756D01*
X13964803Y28475225D01*
X13965000Y28474748D01*
X13965000Y12225505D01*
X14051397Y11791159D01*
X14177415Y11602560D01*
X14297434Y11422939D01*
X16732939Y8987434D01*
X17101159Y8741397D01*
X17535505Y8655000D01*
X20143519Y8655000D01*
X20345040Y8520348D01*
X19915500Y8174896D01*
X19645633Y7681819D01*
X19628096Y7599039D01*
X19750085Y7377000D01*
X21593000Y7377000D01*
X21593000Y7397000D01*
X21847000Y7397000D01*
X21847000Y7377000D01*
X23689915Y7377000D01*
X23811904Y7599039D01*
X23794367Y7681819D01*
X23524500Y8174896D01*
X23094960Y8520348D01*
X23296481Y8655000D01*
X25432533Y8655000D01*
X25866879Y8741397D01*
X26235099Y8987434D01*
X29362665Y12115000D01*
X30853446Y12115000D01*
X31060997Y11907086D01*
X31643341Y11665276D01*
X32273893Y11664725D01*
X32856657Y11905519D01*
X32954337Y12003029D01*
X33085910Y11798559D01*
X33298110Y11653569D01*
X33550000Y11602560D01*
X35450000Y11602560D01*
X35685317Y11646838D01*
X35901441Y11785910D01*
X36046431Y11998110D01*
X36097440Y12250000D01*
X36097440Y14250000D01*
X36053162Y14485317D01*
X35914090Y14701441D01*
X35701890Y14846431D01*
X35450000Y14897440D01*
X33550000Y14897440D01*
X33314683Y14853162D01*
X33098559Y14714090D01*
X33095000Y14708881D01*
X33095000Y28846594D01*
X33125910Y28798559D01*
X33338110Y28653569D01*
X33590000Y28602560D01*
X35490000Y28602560D01*
X35725317Y28646838D01*
X35941441Y28785910D01*
X36086431Y28998110D01*
X36137440Y29250000D01*
X36137440Y31250000D01*
X36093162Y31485317D01*
X35954090Y31701441D01*
X35741890Y31846431D01*
X35490000Y31897440D01*
X33590000Y31897440D01*
X33354683Y31853162D01*
X33138559Y31714090D01*
X33135000Y31708881D01*
X33135000Y45765017D01*
X33298110Y45653569D01*
X33550000Y45602560D01*
X35450000Y45602560D01*
X35685317Y45646838D01*
X35901441Y45785910D01*
X36046431Y45998110D01*
X36097440Y46250000D01*
X36097440Y48250000D01*
X36053162Y48485317D01*
X35914090Y48701441D01*
X35701890Y48846431D01*
X35450000Y48897440D01*
X33550000Y48897440D01*
X33314683Y48853162D01*
X33098559Y48714090D01*
X32953569Y48501890D01*
X32952945Y48498808D01*
X32859003Y48592914D01*
X32276659Y48834724D01*
X31646107Y48835275D01*
X31063343Y48594481D01*
X30617086Y48149003D01*
X30375276Y47566659D01*
X30374725Y46936107D01*
X30615519Y46353343D01*
X30865000Y46103426D01*
X30865000Y42885000D01*
X29349920Y42885000D01*
X29271820Y42937185D01*
X28780072Y43035000D01*
X28219928Y43035000D01*
X28013259Y42993891D01*
X28013259Y43163496D01*
X28008820Y43185814D01*
X28010001Y43191754D01*
X28010001Y43824959D01*
X27950246Y44125365D01*
X27780080Y44380038D01*
X27780077Y44380040D01*
X20306316Y51853802D01*
X20306422Y51975441D01*
X25664401Y51975441D01*
X26615021Y51024822D01*
X26614803Y50775225D01*
X26787233Y50357914D01*
X27106235Y50038355D01*
X27523244Y49865197D01*
X27974775Y49864803D01*
X28392086Y50037233D01*
X28711645Y50356235D01*
X28884803Y50773244D01*
X28885197Y51224775D01*
X28712767Y51642086D01*
X28393765Y51961645D01*
X27976756Y52134803D01*
X27725135Y52135023D01*
X26544638Y53315520D01*
X26289966Y53485686D01*
X25989559Y53545441D01*
X15783806Y53545441D01*
X15607469Y53722086D01*
X15190460Y53895244D01*
X14738929Y53895638D01*
X14321618Y53723208D01*
X14143541Y53545441D01*
X12860441Y53545441D01*
X12560034Y53485686D01*
X12305362Y53315520D01*
X10695378Y51705536D01*
X10525212Y51450864D01*
X10480645Y51226811D01*
X10465457Y51150457D01*
X10465457Y35929942D01*
X10288812Y35753605D01*
X10115654Y35336596D01*
X10115260Y34885065D01*
X9847674Y34885065D01*
X9749915Y35063000D01*
X7907000Y35063000D01*
X7907000Y35043000D01*
X7653000Y35043000D01*
X7653000Y35063000D01*
X5810085Y35063000D01*
X5688096Y34840961D01*
X5705633Y34758181D01*
X5975500Y34265104D01*
X6405040Y33919652D01*
X6023475Y33664698D01*
X5712406Y33199151D01*
X5603173Y32650000D01*
X3460000Y32650000D01*
X3460000Y42810000D01*
X5603173Y42810000D01*
X5712406Y42260849D01*
X6023475Y41795302D01*
X6405561Y41540000D01*
X6023475Y41284698D01*
X5712406Y40819151D01*
X5603173Y40270000D01*
X5712406Y39720849D01*
X6023475Y39255302D01*
X6405561Y39000000D01*
X6023475Y38744698D01*
X5712406Y38279151D01*
X5603173Y37730000D01*
X5712406Y37180849D01*
X6023475Y36715302D01*
X6405040Y36460348D01*
X5975500Y36114896D01*
X5705633Y35621819D01*
X5688096Y35539039D01*
X5810085Y35317000D01*
X7653000Y35317000D01*
X7653000Y35337000D01*
X7907000Y35337000D01*
X7907000Y35317000D01*
X9749915Y35317000D01*
X9871904Y35539039D01*
X9854367Y35621819D01*
X9584500Y36114896D01*
X9154960Y36460348D01*
X9536525Y36715302D01*
X9847594Y37180849D01*
X9956827Y37730000D01*
X9847594Y38279151D01*
X9536525Y38744698D01*
X9154439Y39000000D01*
X9536525Y39255302D01*
X9847594Y39720849D01*
X9956827Y40270000D01*
X9847594Y40819151D01*
X9536525Y41284698D01*
X9154439Y41540000D01*
X9536525Y41795302D01*
X9847594Y42260849D01*
X9956827Y42810000D01*
X9847594Y43359151D01*
X9536525Y43824698D01*
X9070978Y44135767D01*
X8521827Y44245000D01*
X7038173Y44245000D01*
X6489022Y44135767D01*
X6023475Y43824698D01*
X5712406Y43359151D01*
X5603173Y42810000D01*
X3460000Y42810000D01*
X3460000Y43750000D01*
X3405954Y44021705D01*
X3252046Y44252046D01*
X3021705Y44405954D01*
X2750000Y44460000D01*
X710000Y44460000D01*
X710000Y50040000D01*
X2750000Y50040000D01*
X3021705Y50094046D01*
X3252046Y50247954D01*
X3405954Y50478295D01*
X3460000Y50750000D01*
X3460000Y57040000D01*
X7750000Y57040000D01*
X8021705Y57094046D01*
X8252046Y57247954D01*
X8405954Y57478295D01*
X8460000Y57750000D01*
X8460000Y59790000D01*
X12040000Y59790000D01*
X12040000Y57750000D01*
M02*
