G04 #@! TF.FileFunction,Legend,Top*
%FSLAX46Y46*%
G04 Gerber Fmt 4.6, Leading zero omitted, Abs format (unit mm)*
G04 Created by KiCad (PCBNEW (2016-01-25 BZR 6514, Git a23e712)-product) date Tue 24 May 2016 06:15:30 PM CST*
%MOMM*%
G01*
G04 APERTURE LIST*
%ADD10C,0.100000*%
%ADD11C,0.300000*%
%ADD12C,0.150000*%
%ADD13C,0.500000*%
G04 APERTURE END LIST*
D10*
D11*
X26678571Y27178572D02*
X26678571Y26321429D01*
X26678571Y26750001D02*
X25178571Y26750001D01*
X25392857Y26607144D01*
X25535714Y26464286D01*
X25607143Y26321429D01*
X26678571Y44428572D02*
X26678571Y43571429D01*
X26678571Y44000001D02*
X25178571Y44000001D01*
X25392857Y43857144D01*
X25535714Y43714286D01*
X25607143Y43571429D01*
X31507143Y34392857D02*
X31578571Y34607143D01*
X31578571Y34964286D01*
X31507143Y35107143D01*
X31435714Y35178572D01*
X31292857Y35250000D01*
X31150000Y35250000D01*
X31007143Y35178572D01*
X30935714Y35107143D01*
X30864286Y34964286D01*
X30792857Y34678572D01*
X30721429Y34535714D01*
X30650000Y34464286D01*
X30507143Y34392857D01*
X30364286Y34392857D01*
X30221429Y34464286D01*
X30150000Y34535714D01*
X30078571Y34678572D01*
X30078571Y35035714D01*
X30150000Y35250000D01*
X31507143Y36464285D02*
X31578571Y36321428D01*
X31578571Y36035714D01*
X31507143Y35892857D01*
X31364286Y35821428D01*
X30792857Y35821428D01*
X30650000Y35892857D01*
X30578571Y36035714D01*
X30578571Y36321428D01*
X30650000Y36464285D01*
X30792857Y36535714D01*
X30935714Y36535714D01*
X31078571Y35821428D01*
X30578571Y37178571D02*
X31578571Y37178571D01*
X30721429Y37178571D02*
X30650000Y37249999D01*
X30578571Y37392857D01*
X30578571Y37607142D01*
X30650000Y37749999D01*
X30792857Y37821428D01*
X31578571Y37821428D01*
X31507143Y38464285D02*
X31578571Y38607142D01*
X31578571Y38892857D01*
X31507143Y39035714D01*
X31364286Y39107142D01*
X31292857Y39107142D01*
X31150000Y39035714D01*
X31078571Y38892857D01*
X31078571Y38678571D01*
X31007143Y38535714D01*
X30864286Y38464285D01*
X30792857Y38464285D01*
X30650000Y38535714D01*
X30578571Y38678571D01*
X30578571Y38892857D01*
X30650000Y39035714D01*
X31578571Y39964286D02*
X31507143Y39821428D01*
X31435714Y39750000D01*
X31292857Y39678571D01*
X30864286Y39678571D01*
X30721429Y39750000D01*
X30650000Y39821428D01*
X30578571Y39964286D01*
X30578571Y40178571D01*
X30650000Y40321428D01*
X30721429Y40392857D01*
X30864286Y40464286D01*
X31292857Y40464286D01*
X31435714Y40392857D01*
X31507143Y40321428D01*
X31578571Y40178571D01*
X31578571Y39964286D01*
X31578571Y41107143D02*
X30578571Y41107143D01*
X30864286Y41107143D02*
X30721429Y41178571D01*
X30650000Y41250000D01*
X30578571Y41392857D01*
X30578571Y41535714D01*
X31507143Y41964285D02*
X31578571Y42107142D01*
X31578571Y42392857D01*
X31507143Y42535714D01*
X31364286Y42607142D01*
X31292857Y42607142D01*
X31150000Y42535714D01*
X31078571Y42392857D01*
X31078571Y42178571D01*
X31007143Y42035714D01*
X30864286Y41964285D01*
X30792857Y41964285D01*
X30650000Y42035714D01*
X30578571Y42178571D01*
X30578571Y42392857D01*
X30650000Y42535714D01*
X31678571Y20178572D02*
X31678571Y19464286D01*
X30178571Y19464286D01*
X30892857Y20678572D02*
X30892857Y21178572D01*
X31678571Y21392858D02*
X31678571Y20678572D01*
X30178571Y20678572D01*
X30178571Y21392858D01*
X31678571Y22035715D02*
X30178571Y22035715D01*
X30178571Y22392858D01*
X30250000Y22607143D01*
X30392857Y22750001D01*
X30535714Y22821429D01*
X30821429Y22892858D01*
X31035714Y22892858D01*
X31321429Y22821429D01*
X31464286Y22750001D01*
X31607143Y22607143D01*
X31678571Y22392858D01*
X31678571Y22035715D01*
X31607143Y23464286D02*
X31678571Y23607143D01*
X31678571Y23892858D01*
X31607143Y24035715D01*
X31464286Y24107143D01*
X31392857Y24107143D01*
X31250000Y24035715D01*
X31178571Y23892858D01*
X31178571Y23678572D01*
X31107143Y23535715D01*
X30964286Y23464286D01*
X30892857Y23464286D01*
X30750000Y23535715D01*
X30678571Y23678572D01*
X30678571Y23892858D01*
X30750000Y24035715D01*
X12343751Y53671429D02*
X12531251Y55171429D01*
X12888394Y55171429D01*
X13093750Y55100000D01*
X13218751Y54957143D01*
X13272322Y54814286D01*
X13308036Y54528571D01*
X13281251Y54314286D01*
X13174107Y54028571D01*
X13084822Y53885714D01*
X12924107Y53742857D01*
X12700894Y53671429D01*
X12343751Y53671429D01*
X13843751Y53671429D02*
X14031251Y55171429D01*
X14897323Y54671429D02*
X14415180Y53671429D01*
X14602680Y55171429D02*
X14745537Y55171429D01*
X14808036Y55100000D01*
X14897323Y54671429D01*
X15129465Y53671429D01*
X5504466Y51414286D02*
X5424108Y51342857D01*
X5200894Y51271429D01*
X5058037Y51271429D01*
X4852680Y51342857D01*
X4727679Y51485714D01*
X4674108Y51628571D01*
X4638394Y51914286D01*
X4665179Y52128571D01*
X4772323Y52414286D01*
X4861608Y52557143D01*
X5022323Y52700000D01*
X5245537Y52771429D01*
X5388394Y52771429D01*
X5593751Y52700000D01*
X5656251Y52628571D01*
X6343752Y51271429D02*
X6209822Y51342857D01*
X6147323Y51414286D01*
X6093751Y51557143D01*
X6147322Y51985714D01*
X6236608Y52128571D01*
X6316965Y52200000D01*
X6468752Y52271429D01*
X6683037Y52271429D01*
X6816965Y52200000D01*
X6879465Y52128571D01*
X6933037Y51985714D01*
X6879466Y51557143D01*
X6790180Y51414286D01*
X6709822Y51342857D01*
X6558037Y51271429D01*
X6343752Y51271429D01*
X7611609Y52271429D02*
X7486609Y51271429D01*
X7593751Y52128571D02*
X7674108Y52200000D01*
X7825895Y52271429D01*
X8040180Y52271429D01*
X8174108Y52200000D01*
X8227680Y52057143D01*
X8129466Y51271429D01*
X8754466Y52271429D02*
X9325895Y52271429D01*
X9031252Y52771429D02*
X8870537Y51485714D01*
X8924108Y51342857D01*
X9058038Y51271429D01*
X9200895Y51271429D01*
X9700895Y51271429D02*
X9825895Y52271429D01*
X9790180Y51985714D02*
X9879465Y52128571D01*
X9959823Y52200000D01*
X10111609Y52271429D01*
X10254466Y52271429D01*
X10843752Y51271429D02*
X10709822Y51342857D01*
X10647323Y51414286D01*
X10593751Y51557143D01*
X10647322Y51985714D01*
X10736608Y52128571D01*
X10816965Y52200000D01*
X10968752Y52271429D01*
X11183037Y52271429D01*
X11316965Y52200000D01*
X11379465Y52128571D01*
X11433037Y51985714D01*
X11379466Y51557143D01*
X11290180Y51414286D01*
X11209822Y51342857D01*
X11058037Y51271429D01*
X10843752Y51271429D01*
X12200895Y51271429D02*
X12066965Y51342857D01*
X12013394Y51485714D01*
X12174109Y52771429D01*
X12986609Y51271429D02*
X12852679Y51342857D01*
X12799108Y51485714D01*
X12959823Y52771429D01*
X14138393Y51342857D02*
X13986608Y51271429D01*
X13700894Y51271429D01*
X13566965Y51342857D01*
X13513393Y51485714D01*
X13584822Y52057143D01*
X13674108Y52200000D01*
X13825894Y52271429D01*
X14111608Y52271429D01*
X14245536Y52200000D01*
X14299108Y52057143D01*
X14281251Y51914286D01*
X13549108Y51771429D01*
X14843751Y51271429D02*
X14968751Y52271429D01*
X14933036Y51985714D02*
X15022321Y52128571D01*
X15102679Y52200000D01*
X15254465Y52271429D01*
X15397322Y52271429D01*
X17513393Y52057143D02*
X17718750Y51985714D01*
X17781250Y51914286D01*
X17834822Y51771429D01*
X17808036Y51557143D01*
X17718750Y51414286D01*
X17638393Y51342857D01*
X17486607Y51271429D01*
X16915179Y51271429D01*
X17102679Y52771429D01*
X17602679Y52771429D01*
X17736607Y52700000D01*
X17799107Y52628571D01*
X17852678Y52485714D01*
X17834821Y52342857D01*
X17745536Y52200000D01*
X17665178Y52128571D01*
X17513393Y52057143D01*
X17013393Y52057143D01*
X18629465Y51271429D02*
X18495535Y51342857D01*
X18433036Y51414286D01*
X18379464Y51557143D01*
X18433035Y51985714D01*
X18522321Y52128571D01*
X18602678Y52200000D01*
X18754465Y52271429D01*
X18968750Y52271429D01*
X19102678Y52200000D01*
X19165178Y52128571D01*
X19218750Y51985714D01*
X19165179Y51557143D01*
X19075893Y51414286D01*
X18995535Y51342857D01*
X18843750Y51271429D01*
X18629465Y51271429D01*
X20415179Y51271429D02*
X20513393Y52057143D01*
X20459821Y52200000D01*
X20325893Y52271429D01*
X20040179Y52271429D01*
X19888393Y52200000D01*
X20424107Y51342857D02*
X20272322Y51271429D01*
X19915179Y51271429D01*
X19781250Y51342857D01*
X19727678Y51485714D01*
X19745535Y51628571D01*
X19834822Y51771429D01*
X19986607Y51842857D01*
X20343750Y51842857D01*
X20495536Y51914286D01*
X21129465Y51271429D02*
X21254465Y52271429D01*
X21218750Y51985714D02*
X21308035Y52128571D01*
X21388393Y52200000D01*
X21540179Y52271429D01*
X21683036Y52271429D01*
X22700893Y51271429D02*
X22888393Y52771429D01*
X22709821Y51342857D02*
X22558036Y51271429D01*
X22272322Y51271429D01*
X22138392Y51342857D01*
X22075893Y51414286D01*
X22022321Y51557143D01*
X22075892Y51985714D01*
X22165178Y52128571D01*
X22245535Y52200000D01*
X22397322Y52271429D01*
X22683036Y52271429D01*
X22816964Y52200000D01*
X6290179Y49871429D02*
X6522322Y48871429D01*
X7004464Y49871429D01*
X7924107Y50371429D02*
X8066964Y50371429D01*
X8200892Y50300000D01*
X8263392Y50228571D01*
X8316964Y50085714D01*
X8352678Y49800000D01*
X8308035Y49442857D01*
X8200893Y49157143D01*
X8111607Y49014286D01*
X8031249Y48942857D01*
X7879464Y48871429D01*
X7736607Y48871429D01*
X7602678Y48942857D01*
X7540178Y49014286D01*
X7486607Y49157143D01*
X7450892Y49442857D01*
X7495535Y49800000D01*
X7602678Y50085714D01*
X7691963Y50228571D01*
X7772321Y50300000D01*
X7924107Y50371429D01*
X8897321Y49014286D02*
X8959820Y48942857D01*
X8879464Y48871429D01*
X8816963Y48942857D01*
X8897321Y49014286D01*
X8879464Y48871429D01*
X9665178Y48871429D02*
X9950893Y48871429D01*
X10102678Y48942857D01*
X10183035Y49014286D01*
X10352678Y49228571D01*
X10459821Y49514286D01*
X10531249Y50085714D01*
X10477678Y50228571D01*
X10415178Y50300000D01*
X10281250Y50371429D01*
X9995536Y50371429D01*
X9843749Y50300000D01*
X9763392Y50228571D01*
X9674106Y50085714D01*
X9629463Y49728571D01*
X9683035Y49585714D01*
X9745535Y49514286D01*
X9879464Y49442857D01*
X10165178Y49442857D01*
X10316964Y49514286D01*
X10397321Y49585714D01*
X10486606Y49728571D01*
X11093749Y49442857D02*
X12236606Y49442857D01*
X12879464Y48871429D02*
X13066964Y50371429D01*
X13736607Y48871429D01*
X13924107Y50371429D01*
X15093750Y48871429D02*
X15191964Y49657143D01*
X15138392Y49800000D01*
X15004464Y49871429D01*
X14718750Y49871429D01*
X14566964Y49800000D01*
X15102678Y48942857D02*
X14950893Y48871429D01*
X14593750Y48871429D01*
X14459821Y48942857D01*
X14406249Y49085714D01*
X14424106Y49228571D01*
X14513393Y49371429D01*
X14665178Y49442857D01*
X15022321Y49442857D01*
X15174107Y49514286D01*
X15933036Y49871429D02*
X15808036Y48871429D01*
X15915178Y49728571D02*
X15995535Y49800000D01*
X16147322Y49871429D01*
X16361607Y49871429D01*
X16495535Y49800000D01*
X16549107Y49657143D01*
X16450893Y48871429D01*
X17379465Y48871429D02*
X17245535Y48942857D01*
X17183036Y49014286D01*
X17129464Y49157143D01*
X17183035Y49585714D01*
X17272321Y49728571D01*
X17352678Y49800000D01*
X17504465Y49871429D01*
X17718750Y49871429D01*
X17852678Y49800000D01*
X17915178Y49728571D01*
X17968750Y49585714D01*
X17915179Y49157143D01*
X17825893Y49014286D01*
X17745535Y48942857D01*
X17593750Y48871429D01*
X17379465Y48871429D01*
X18593750Y49442857D02*
X19736607Y49442857D01*
X20504465Y49871429D02*
X20316965Y48371429D01*
X20495536Y49800000D02*
X20647322Y49871429D01*
X20933036Y49871429D01*
X21066964Y49800000D01*
X21129464Y49728571D01*
X21183036Y49585714D01*
X21129465Y49157143D01*
X21040179Y49014286D01*
X20959821Y48942857D01*
X20808036Y48871429D01*
X20522322Y48871429D01*
X20388393Y48942857D01*
D12*
X10940000Y3440000D02*
X10940000Y7250000D01*
X10940000Y7250000D02*
X18560000Y7250000D01*
X18560000Y7250000D02*
X18560000Y3440000D01*
X5860000Y46620000D02*
X23640000Y46620000D01*
X23640000Y46620000D02*
X23640000Y3440000D01*
X23640000Y3440000D02*
X5860000Y3440000D01*
X5860000Y3440000D02*
X5860000Y46620000D01*
X35714888Y48774904D02*
G75*
G03X35730000Y45750000I-2484888J-1524904D01*
G01*
X35730000Y48750000D02*
X35730000Y45750000D01*
X35747936Y47250000D02*
G75*
G03X35747936Y47250000I-2517936J0D01*
G01*
X35754888Y31774904D02*
G75*
G03X35770000Y28750000I-2484888J-1524904D01*
G01*
X35770000Y31750000D02*
X35770000Y28750000D01*
X35787936Y30250000D02*
G75*
G03X35787936Y30250000I-2517936J0D01*
G01*
X35714888Y14774904D02*
G75*
G03X35730000Y11750000I-2484888J-1524904D01*
G01*
X35730000Y14750000D02*
X35730000Y11750000D01*
X35747936Y13250000D02*
G75*
G03X35747936Y13250000I-2517936J0D01*
G01*
X27250000Y42750000D02*
X27250000Y40750000D01*
X29250000Y34750000D02*
X25250000Y34750000D01*
X25250000Y34750000D02*
X25250000Y42750000D01*
X29250000Y42750000D02*
X29250000Y34750000D01*
X25250000Y42750000D02*
X29250000Y42750000D01*
X27250000Y40750000D02*
X25250000Y40750000D01*
X27250000Y25750000D02*
X27250000Y23750000D01*
X29250000Y17750000D02*
X25250000Y17750000D01*
X25250000Y17750000D02*
X25250000Y25750000D01*
X29250000Y25750000D02*
X29250000Y17750000D01*
X25250000Y25750000D02*
X29250000Y25750000D01*
X27250000Y23750000D02*
X25250000Y23750000D01*
D10*
X7080000Y42060000D02*
X8480000Y42060000D01*
X7080000Y43560000D02*
X8480000Y43560000D01*
X8480000Y42060000D02*
G75*
G03X8480000Y43560000I0J750000D01*
G01*
X7080000Y43560000D02*
G75*
G03X7080000Y42060000I0J-750000D01*
G01*
X7080000Y39520000D02*
X8480000Y39520000D01*
X7080000Y41020000D02*
X8480000Y41020000D01*
X8480000Y39520000D02*
G75*
G03X8480000Y41020000I0J750000D01*
G01*
X7080000Y41020000D02*
G75*
G03X7080000Y39520000I0J-750000D01*
G01*
X7080000Y36980000D02*
X8480000Y36980000D01*
X7080000Y38480000D02*
X8480000Y38480000D01*
X8480000Y36980000D02*
G75*
G03X8480000Y38480000I0J750000D01*
G01*
X7080000Y38480000D02*
G75*
G03X7080000Y36980000I0J-750000D01*
G01*
X7080000Y34440000D02*
X8480000Y34440000D01*
X7080000Y35940000D02*
X8480000Y35940000D01*
X8480000Y34440000D02*
G75*
G03X8480000Y35940000I0J750000D01*
G01*
X7080000Y35940000D02*
G75*
G03X7080000Y34440000I0J-750000D01*
G01*
X7080000Y31900000D02*
X8480000Y31900000D01*
X7080000Y33400000D02*
X8480000Y33400000D01*
X8480000Y31900000D02*
G75*
G03X8480000Y33400000I0J750000D01*
G01*
X7080000Y33400000D02*
G75*
G03X7080000Y31900000I0J-750000D01*
G01*
X7080000Y29360000D02*
X8480000Y29360000D01*
X7080000Y30860000D02*
X8480000Y30860000D01*
X8480000Y29360000D02*
G75*
G03X8480000Y30860000I0J750000D01*
G01*
X7080000Y30860000D02*
G75*
G03X7080000Y29360000I0J-750000D01*
G01*
X7080000Y26820000D02*
X8480000Y26820000D01*
X7080000Y28320000D02*
X8480000Y28320000D01*
X8480000Y26820000D02*
G75*
G03X8480000Y28320000I0J750000D01*
G01*
X7080000Y28320000D02*
G75*
G03X7080000Y26820000I0J-750000D01*
G01*
X7080000Y24280000D02*
X8480000Y24280000D01*
X7080000Y25780000D02*
X8480000Y25780000D01*
X8480000Y24280000D02*
G75*
G03X8480000Y25780000I0J750000D01*
G01*
X7080000Y25780000D02*
G75*
G03X7080000Y24280000I0J-750000D01*
G01*
X7080000Y21740000D02*
X8480000Y21740000D01*
X7080000Y23240000D02*
X8480000Y23240000D01*
X8480000Y21740000D02*
G75*
G03X8480000Y23240000I0J750000D01*
G01*
X7080000Y23240000D02*
G75*
G03X7080000Y21740000I0J-750000D01*
G01*
X7080000Y19200000D02*
X8480000Y19200000D01*
X7080000Y20700000D02*
X8480000Y20700000D01*
X8480000Y19200000D02*
G75*
G03X8480000Y20700000I0J750000D01*
G01*
X7080000Y20700000D02*
G75*
G03X7080000Y19200000I0J-750000D01*
G01*
X7080000Y16660000D02*
X8480000Y16660000D01*
X7080000Y18160000D02*
X8480000Y18160000D01*
X8480000Y16660000D02*
G75*
G03X8480000Y18160000I0J750000D01*
G01*
X7080000Y18160000D02*
G75*
G03X7080000Y16660000I0J-750000D01*
G01*
X7080000Y14120000D02*
X8480000Y14120000D01*
X7080000Y15620000D02*
X8480000Y15620000D01*
X8480000Y14120000D02*
G75*
G03X8480000Y15620000I0J750000D01*
G01*
X7080000Y15620000D02*
G75*
G03X7080000Y14120000I0J-750000D01*
G01*
X7080000Y11580000D02*
X8480000Y11580000D01*
X7080000Y13080000D02*
X8480000Y13080000D01*
X8480000Y11580000D02*
G75*
G03X8480000Y13080000I0J750000D01*
G01*
X7080000Y13080000D02*
G75*
G03X7080000Y11580000I0J-750000D01*
G01*
X7080000Y9040000D02*
X8480000Y9040000D01*
X7080000Y10540000D02*
X8480000Y10540000D01*
X8480000Y9040000D02*
G75*
G03X8480000Y10540000I0J750000D01*
G01*
X7080000Y10540000D02*
G75*
G03X7080000Y9040000I0J-750000D01*
G01*
X7080000Y6500000D02*
X8480000Y6500000D01*
X7080000Y8000000D02*
X8480000Y8000000D01*
X8480000Y6500000D02*
G75*
G03X8480000Y8000000I0J750000D01*
G01*
X7080000Y8000000D02*
G75*
G03X7080000Y6500000I0J-750000D01*
G01*
X21020000Y6500000D02*
X22420000Y6500000D01*
X21020000Y8000000D02*
X22420000Y8000000D01*
X22420000Y6500000D02*
G75*
G03X22420000Y8000000I0J750000D01*
G01*
X21020000Y8000000D02*
G75*
G03X21020000Y6500000I0J-750000D01*
G01*
X21020000Y9040000D02*
X22420000Y9040000D01*
X21020000Y10540000D02*
X22420000Y10540000D01*
X22420000Y9040000D02*
G75*
G03X22420000Y10540000I0J750000D01*
G01*
X21020000Y10540000D02*
G75*
G03X21020000Y9040000I0J-750000D01*
G01*
X21020000Y11580000D02*
X22420000Y11580000D01*
X21020000Y13080000D02*
X22420000Y13080000D01*
X22420000Y11580000D02*
G75*
G03X22420000Y13080000I0J750000D01*
G01*
X21020000Y13080000D02*
G75*
G03X21020000Y11580000I0J-750000D01*
G01*
X21020000Y14120000D02*
X22420000Y14120000D01*
X21020000Y15620000D02*
X22420000Y15620000D01*
X22420000Y14120000D02*
G75*
G03X22420000Y15620000I0J750000D01*
G01*
X21020000Y15620000D02*
G75*
G03X21020000Y14120000I0J-750000D01*
G01*
X21020000Y16660000D02*
X22420000Y16660000D01*
X21020000Y18160000D02*
X22420000Y18160000D01*
X22420000Y16660000D02*
G75*
G03X22420000Y18160000I0J750000D01*
G01*
X21020000Y18160000D02*
G75*
G03X21020000Y16660000I0J-750000D01*
G01*
X21020000Y19200000D02*
X22420000Y19200000D01*
X21020000Y20700000D02*
X22420000Y20700000D01*
X22420000Y19200000D02*
G75*
G03X22420000Y20700000I0J750000D01*
G01*
X21020000Y20700000D02*
G75*
G03X21020000Y19200000I0J-750000D01*
G01*
X21020000Y21740000D02*
X22420000Y21740000D01*
X21020000Y23240000D02*
X22420000Y23240000D01*
X22420000Y21740000D02*
G75*
G03X22420000Y23240000I0J750000D01*
G01*
X21020000Y23240000D02*
G75*
G03X21020000Y21740000I0J-750000D01*
G01*
X21020000Y24280000D02*
X22420000Y24280000D01*
X21020000Y25780000D02*
X22420000Y25780000D01*
X22420000Y24280000D02*
G75*
G03X22420000Y25780000I0J750000D01*
G01*
X21020000Y25780000D02*
G75*
G03X21020000Y24280000I0J-750000D01*
G01*
X21020000Y26820000D02*
X22420000Y26820000D01*
X21020000Y28320000D02*
X22420000Y28320000D01*
X22420000Y26820000D02*
G75*
G03X22420000Y28320000I0J750000D01*
G01*
X21020000Y28320000D02*
G75*
G03X21020000Y26820000I0J-750000D01*
G01*
X21020000Y29360000D02*
X22420000Y29360000D01*
X21020000Y30860000D02*
X22420000Y30860000D01*
X22420000Y29360000D02*
G75*
G03X22420000Y30860000I0J750000D01*
G01*
X21020000Y30860000D02*
G75*
G03X21020000Y29360000I0J-750000D01*
G01*
X21020000Y31900000D02*
X22420000Y31900000D01*
X21020000Y33400000D02*
X22420000Y33400000D01*
X22420000Y31900000D02*
G75*
G03X22420000Y33400000I0J750000D01*
G01*
X21020000Y33400000D02*
G75*
G03X21020000Y31900000I0J-750000D01*
G01*
X21020000Y34440000D02*
X22420000Y34440000D01*
X21020000Y35940000D02*
X22420000Y35940000D01*
X22420000Y34440000D02*
G75*
G03X22420000Y35940000I0J750000D01*
G01*
X21020000Y35940000D02*
G75*
G03X21020000Y34440000I0J-750000D01*
G01*
X21020000Y36980000D02*
X22420000Y36980000D01*
X21020000Y38480000D02*
X22420000Y38480000D01*
X22420000Y36980000D02*
G75*
G03X22420000Y38480000I0J750000D01*
G01*
X21020000Y38480000D02*
G75*
G03X21020000Y36980000I0J-750000D01*
G01*
X21020000Y39520000D02*
X22420000Y39520000D01*
X21020000Y41020000D02*
X22420000Y41020000D01*
X22420000Y39520000D02*
G75*
G03X22420000Y41020000I0J750000D01*
G01*
X21020000Y41020000D02*
G75*
G03X21020000Y39520000I0J-750000D01*
G01*
X21020000Y42060000D02*
X22420000Y42060000D01*
X21020000Y43560000D02*
X22420000Y43560000D01*
X22420000Y42060000D02*
G75*
G03X22420000Y43560000I0J750000D01*
G01*
X21020000Y43560000D02*
G75*
G03X21020000Y42060000I0J-750000D01*
G01*
X32860000Y47250000D02*
G75*
G03X32860000Y47250000I-900000J0D01*
G01*
X32900000Y30250000D02*
G75*
G03X32900000Y30250000I-900000J0D01*
G01*
X32860000Y13250000D02*
G75*
G03X32860000Y13250000I-900000J0D01*
G01*
X28750000Y42350000D02*
X28250000Y42350000D01*
X28750000Y41150000D02*
X28250000Y41150000D01*
X28250000Y42350000D02*
G75*
G03X28250000Y41150000I0J-600000D01*
G01*
X28750000Y41150000D02*
G75*
G03X28750000Y42350000I0J600000D01*
G01*
X26250000Y40350000D02*
X25750000Y40350000D01*
X26250000Y39150000D02*
X25750000Y39150000D01*
X25750000Y40350000D02*
G75*
G03X25750000Y39150000I0J-600000D01*
G01*
X26250000Y39150000D02*
G75*
G03X26250000Y40350000I0J600000D01*
G01*
X28750000Y40350000D02*
X28250000Y40350000D01*
X28750000Y39150000D02*
X28250000Y39150000D01*
X28250000Y40350000D02*
G75*
G03X28250000Y39150000I0J-600000D01*
G01*
X28750000Y39150000D02*
G75*
G03X28750000Y40350000I0J600000D01*
G01*
X26250000Y38350000D02*
X25750000Y38350000D01*
X26250000Y37150000D02*
X25750000Y37150000D01*
X25750000Y38350000D02*
G75*
G03X25750000Y37150000I0J-600000D01*
G01*
X26250000Y37150000D02*
G75*
G03X26250000Y38350000I0J600000D01*
G01*
X28750000Y38350000D02*
X28250000Y38350000D01*
X28750000Y37150000D02*
X28250000Y37150000D01*
X28250000Y38350000D02*
G75*
G03X28250000Y37150000I0J-600000D01*
G01*
X28750000Y37150000D02*
G75*
G03X28750000Y38350000I0J600000D01*
G01*
X26250000Y36350000D02*
X25750000Y36350000D01*
X26250000Y35150000D02*
X25750000Y35150000D01*
X25750000Y36350000D02*
G75*
G03X25750000Y35150000I0J-600000D01*
G01*
X26250000Y35150000D02*
G75*
G03X26250000Y36350000I0J600000D01*
G01*
X28750000Y36350000D02*
X28250000Y36350000D01*
X28750000Y35150000D02*
X28250000Y35150000D01*
X28250000Y36350000D02*
G75*
G03X28250000Y35150000I0J-600000D01*
G01*
X28750000Y35150000D02*
G75*
G03X28750000Y36350000I0J600000D01*
G01*
X28750000Y25350000D02*
X28250000Y25350000D01*
X28750000Y24150000D02*
X28250000Y24150000D01*
X28250000Y25350000D02*
G75*
G03X28250000Y24150000I0J-600000D01*
G01*
X28750000Y24150000D02*
G75*
G03X28750000Y25350000I0J600000D01*
G01*
X26250000Y23350000D02*
X25750000Y23350000D01*
X26250000Y22150000D02*
X25750000Y22150000D01*
X25750000Y23350000D02*
G75*
G03X25750000Y22150000I0J-600000D01*
G01*
X26250000Y22150000D02*
G75*
G03X26250000Y23350000I0J600000D01*
G01*
X28750000Y23350000D02*
X28250000Y23350000D01*
X28750000Y22150000D02*
X28250000Y22150000D01*
X28250000Y23350000D02*
G75*
G03X28250000Y22150000I0J-600000D01*
G01*
X28750000Y22150000D02*
G75*
G03X28750000Y23350000I0J600000D01*
G01*
X26250000Y21350000D02*
X25750000Y21350000D01*
X26250000Y20150000D02*
X25750000Y20150000D01*
X25750000Y21350000D02*
G75*
G03X25750000Y20150000I0J-600000D01*
G01*
X26250000Y20150000D02*
G75*
G03X26250000Y21350000I0J600000D01*
G01*
X28750000Y21350000D02*
X28250000Y21350000D01*
X28750000Y20150000D02*
X28250000Y20150000D01*
X28250000Y21350000D02*
G75*
G03X28250000Y20150000I0J-600000D01*
G01*
X28750000Y20150000D02*
G75*
G03X28750000Y21350000I0J600000D01*
G01*
X26250000Y19350000D02*
X25750000Y19350000D01*
X26250000Y18150000D02*
X25750000Y18150000D01*
X25750000Y19350000D02*
G75*
G03X25750000Y18150000I0J-600000D01*
G01*
X26250000Y18150000D02*
G75*
G03X26250000Y19350000I0J600000D01*
G01*
X28750000Y19350000D02*
X28250000Y19350000D01*
X28750000Y18150000D02*
X28250000Y18150000D01*
X28250000Y19350000D02*
G75*
G03X28250000Y18150000I0J-600000D01*
G01*
X28750000Y18150000D02*
G75*
G03X28750000Y19350000I0J600000D01*
G01*
D12*
X7638095Y48437619D02*
X7638095Y47628095D01*
X7685714Y47532857D01*
X7733333Y47485238D01*
X7828571Y47437619D01*
X8019048Y47437619D01*
X8114286Y47485238D01*
X8161905Y47532857D01*
X8209524Y47628095D01*
X8209524Y48437619D01*
X9209524Y47437619D02*
X8638095Y47437619D01*
X8923809Y47437619D02*
X8923809Y48437619D01*
X8828571Y48294762D01*
X8733333Y48199524D01*
X8638095Y48151905D01*
D13*
X15300000Y12258571D02*
X15300000Y13687142D01*
X16157143Y11972856D02*
X13157143Y12972856D01*
X16157143Y13972856D01*
X16157143Y14972857D02*
X14157143Y14972857D01*
X14728571Y14972857D02*
X14442857Y15115714D01*
X14300000Y15258571D01*
X14157143Y15544285D01*
X14157143Y15830000D01*
X16157143Y18115714D02*
X13157143Y18115714D01*
X16014286Y18115714D02*
X16157143Y17830000D01*
X16157143Y17258571D01*
X16014286Y16972857D01*
X15871429Y16830000D01*
X15585714Y16687143D01*
X14728571Y16687143D01*
X14442857Y16830000D01*
X14300000Y16972857D01*
X14157143Y17258571D01*
X14157143Y17830000D01*
X14300000Y18115714D01*
X14157143Y20830000D02*
X16157143Y20830000D01*
X14157143Y19544286D02*
X15728571Y19544286D01*
X16014286Y19687143D01*
X16157143Y19972857D01*
X16157143Y20401429D01*
X16014286Y20687143D01*
X15871429Y20830000D01*
X16157143Y22258572D02*
X14157143Y22258572D01*
X13157143Y22258572D02*
X13300000Y22115715D01*
X13442857Y22258572D01*
X13300000Y22401429D01*
X13157143Y22258572D01*
X13442857Y22258572D01*
X14157143Y23687143D02*
X16157143Y23687143D01*
X14442857Y23687143D02*
X14300000Y23830000D01*
X14157143Y24115714D01*
X14157143Y24544286D01*
X14300000Y24830000D01*
X14585714Y24972857D01*
X16157143Y24972857D01*
X16157143Y26830000D02*
X16014286Y26544286D01*
X15871429Y26401429D01*
X15585714Y26258572D01*
X14728571Y26258572D01*
X14442857Y26401429D01*
X14300000Y26544286D01*
X14157143Y26830000D01*
X14157143Y27258572D01*
X14300000Y27544286D01*
X14442857Y27687143D01*
X14728571Y27830000D01*
X15585714Y27830000D01*
X15871429Y27687143D01*
X16014286Y27544286D01*
X16157143Y27258572D01*
X16157143Y26830000D01*
X16157143Y31401429D02*
X13157143Y31401429D01*
X16157143Y33115714D01*
X13157143Y33115714D01*
X16157143Y35830000D02*
X14585714Y35830000D01*
X14300000Y35687143D01*
X14157143Y35401429D01*
X14157143Y34830000D01*
X14300000Y34544286D01*
X16014286Y35830000D02*
X16157143Y35544286D01*
X16157143Y34830000D01*
X16014286Y34544286D01*
X15728571Y34401429D01*
X15442857Y34401429D01*
X15157143Y34544286D01*
X15014286Y34830000D01*
X15014286Y35544286D01*
X14871429Y35830000D01*
X14157143Y37258572D02*
X16157143Y37258572D01*
X14442857Y37258572D02*
X14300000Y37401429D01*
X14157143Y37687143D01*
X14157143Y38115715D01*
X14300000Y38401429D01*
X14585714Y38544286D01*
X16157143Y38544286D01*
X16157143Y40401429D02*
X16014286Y40115715D01*
X15871429Y39972858D01*
X15585714Y39830001D01*
X14728571Y39830001D01*
X14442857Y39972858D01*
X14300000Y40115715D01*
X14157143Y40401429D01*
X14157143Y40830001D01*
X14300000Y41115715D01*
X14442857Y41258572D01*
X14728571Y41401429D01*
X15585714Y41401429D01*
X15871429Y41258572D01*
X16014286Y41115715D01*
X16157143Y40830001D01*
X16157143Y40401429D01*
D12*
X12857143Y5531429D02*
X12857143Y4317143D01*
X12928571Y4174286D01*
X13000000Y4102857D01*
X13142857Y4031429D01*
X13428571Y4031429D01*
X13571429Y4102857D01*
X13642857Y4174286D01*
X13714286Y4317143D01*
X13714286Y5531429D01*
X14357143Y4102857D02*
X14571429Y4031429D01*
X14928572Y4031429D01*
X15071429Y4102857D01*
X15142858Y4174286D01*
X15214286Y4317143D01*
X15214286Y4460000D01*
X15142858Y4602857D01*
X15071429Y4674286D01*
X14928572Y4745714D01*
X14642858Y4817143D01*
X14500000Y4888571D01*
X14428572Y4960000D01*
X14357143Y5102857D01*
X14357143Y5245714D01*
X14428572Y5388571D01*
X14500000Y5460000D01*
X14642858Y5531429D01*
X15000000Y5531429D01*
X15214286Y5460000D01*
X16357143Y4817143D02*
X16571429Y4745714D01*
X16642857Y4674286D01*
X16714286Y4531429D01*
X16714286Y4317143D01*
X16642857Y4174286D01*
X16571429Y4102857D01*
X16428571Y4031429D01*
X15857143Y4031429D01*
X15857143Y5531429D01*
X16357143Y5531429D01*
X16500000Y5460000D01*
X16571429Y5388571D01*
X16642857Y5245714D01*
X16642857Y5102857D01*
X16571429Y4960000D01*
X16500000Y4888571D01*
X16357143Y4817143D01*
X15857143Y4817143D01*
X32680953Y50947619D02*
X32204762Y50947619D01*
X32204762Y51947619D01*
X33014286Y51471429D02*
X33347620Y51471429D01*
X33490477Y50947619D02*
X33014286Y50947619D01*
X33014286Y51947619D01*
X33490477Y51947619D01*
X33919048Y50947619D02*
X33919048Y51947619D01*
X34157143Y51947619D01*
X34300001Y51900000D01*
X34395239Y51804762D01*
X34442858Y51709524D01*
X34490477Y51519048D01*
X34490477Y51376190D01*
X34442858Y51185714D01*
X34395239Y51090476D01*
X34300001Y50995238D01*
X34157143Y50947619D01*
X33919048Y50947619D01*
X35442858Y50947619D02*
X34871429Y50947619D01*
X35157143Y50947619D02*
X35157143Y51947619D01*
X35061905Y51804762D01*
X34966667Y51709524D01*
X34871429Y51661905D01*
X36143095Y48702619D02*
X36143095Y49702619D01*
X36714524Y48702619D02*
X36285952Y49274048D01*
X36714524Y49702619D02*
X36143095Y49131190D01*
X33380953Y33847619D02*
X32904762Y33847619D01*
X32904762Y34847619D01*
X33714286Y34371429D02*
X34047620Y34371429D01*
X34190477Y33847619D02*
X33714286Y33847619D01*
X33714286Y34847619D01*
X34190477Y34847619D01*
X34619048Y33847619D02*
X34619048Y34847619D01*
X34857143Y34847619D01*
X35000001Y34800000D01*
X35095239Y34704762D01*
X35142858Y34609524D01*
X35190477Y34419048D01*
X35190477Y34276190D01*
X35142858Y34085714D01*
X35095239Y33990476D01*
X35000001Y33895238D01*
X34857143Y33847619D01*
X34619048Y33847619D01*
X35571429Y34752381D02*
X35619048Y34800000D01*
X35714286Y34847619D01*
X35952382Y34847619D01*
X36047620Y34800000D01*
X36095239Y34752381D01*
X36142858Y34657143D01*
X36142858Y34561905D01*
X36095239Y34419048D01*
X35523810Y33847619D01*
X36142858Y33847619D01*
X36183095Y31702619D02*
X36183095Y32702619D01*
X36754524Y31702619D02*
X36325952Y32274048D01*
X36754524Y32702619D02*
X36183095Y32131190D01*
X33480953Y16747619D02*
X33004762Y16747619D01*
X33004762Y17747619D01*
X33814286Y17271429D02*
X34147620Y17271429D01*
X34290477Y16747619D02*
X33814286Y16747619D01*
X33814286Y17747619D01*
X34290477Y17747619D01*
X34719048Y16747619D02*
X34719048Y17747619D01*
X34957143Y17747619D01*
X35100001Y17700000D01*
X35195239Y17604762D01*
X35242858Y17509524D01*
X35290477Y17319048D01*
X35290477Y17176190D01*
X35242858Y16985714D01*
X35195239Y16890476D01*
X35100001Y16795238D01*
X34957143Y16747619D01*
X34719048Y16747619D01*
X35623810Y17747619D02*
X36242858Y17747619D01*
X35909524Y17366667D01*
X36052382Y17366667D01*
X36147620Y17319048D01*
X36195239Y17271429D01*
X36242858Y17176190D01*
X36242858Y16938095D01*
X36195239Y16842857D01*
X36147620Y16795238D01*
X36052382Y16747619D01*
X35766667Y16747619D01*
X35671429Y16795238D01*
X35623810Y16842857D01*
X36143095Y14702619D02*
X36143095Y15702619D01*
X36714524Y14702619D02*
X36285952Y15274048D01*
X36714524Y15702619D02*
X36143095Y15131190D01*
X26452381Y32511905D02*
X25452381Y32511905D01*
X25452381Y32892858D01*
X25500000Y32988096D01*
X25547619Y33035715D01*
X25642857Y33083334D01*
X25785714Y33083334D01*
X25880952Y33035715D01*
X25928571Y32988096D01*
X25976190Y32892858D01*
X25976190Y32511905D01*
X26452381Y34035715D02*
X26452381Y33464286D01*
X26452381Y33750000D02*
X25452381Y33750000D01*
X25595238Y33654762D01*
X25690476Y33559524D01*
X25738095Y33464286D01*
X26202381Y15761905D02*
X25202381Y15761905D01*
X25202381Y16142858D01*
X25250000Y16238096D01*
X25297619Y16285715D01*
X25392857Y16333334D01*
X25535714Y16333334D01*
X25630952Y16285715D01*
X25678571Y16238096D01*
X25726190Y16142858D01*
X25726190Y15761905D01*
X25297619Y16714286D02*
X25250000Y16761905D01*
X25202381Y16857143D01*
X25202381Y17095239D01*
X25250000Y17190477D01*
X25297619Y17238096D01*
X25392857Y17285715D01*
X25488095Y17285715D01*
X25630952Y17238096D01*
X26202381Y16666667D01*
X26202381Y17285715D01*
M02*
