G04 #@! TF.FileFunction,Soldermask,Top*
%FSLAX46Y46*%
G04 Gerber Fmt 4.6, Leading zero omitted, Abs format (unit mm)*
G04 Created by KiCad (PCBNEW (2016-01-25 BZR 6514, Git a23e712)-product) date Tue 24 May 2016 06:15:30 PM CST*
%MOMM*%
G01*
G04 APERTURE LIST*
%ADD10C,0.100000*%
%ADD11O,3.400000X2.000000*%
%ADD12R,2.300000X2.400000*%
%ADD13C,2.300000*%
%ADD14R,2.200000X1.700000*%
%ADD15O,2.200000X1.700000*%
G04 APERTURE END LIST*
D10*
D11*
X7780000Y42810000D03*
X7780000Y40270000D03*
X7780000Y37730000D03*
X7780000Y35190000D03*
X7780000Y32650000D03*
X7780000Y30110000D03*
X7780000Y27570000D03*
X7780000Y25030000D03*
X7780000Y22490000D03*
X7780000Y19950000D03*
X7780000Y17410000D03*
X7780000Y14870000D03*
X7780000Y12330000D03*
X7780000Y9790000D03*
X7780000Y7250000D03*
X21720000Y7250000D03*
X21720000Y9790000D03*
X21720000Y12330000D03*
X21720000Y14870000D03*
X21720000Y17410000D03*
X21720000Y19950000D03*
X21720000Y22490000D03*
X21720000Y25030000D03*
X21720000Y27570000D03*
X21720000Y30110000D03*
X21720000Y32650000D03*
X21720000Y35190000D03*
X21720000Y37730000D03*
X21720000Y40270000D03*
X21720000Y42810000D03*
D12*
X34500000Y47250000D03*
D13*
X31960000Y47250000D03*
D12*
X34540000Y30250000D03*
D13*
X32000000Y30250000D03*
D12*
X34500000Y13250000D03*
D13*
X31960000Y13250000D03*
D14*
X26000000Y41750000D03*
D15*
X28500000Y41750000D03*
X26000000Y39750000D03*
X28500000Y39750000D03*
X26000000Y37750000D03*
X28500000Y37750000D03*
X26000000Y35750000D03*
X28500000Y35750000D03*
D14*
X26000000Y24750000D03*
D15*
X28500000Y24750000D03*
X26000000Y22750000D03*
X28500000Y22750000D03*
X26000000Y20750000D03*
X28500000Y20750000D03*
X26000000Y18750000D03*
X28500000Y18750000D03*
M02*
