G04 #@! TF.FileFunction,Copper,L2,Bot,Signal*
%FSLAX46Y46*%
G04 Gerber Fmt 4.6, Leading zero omitted, Abs format (unit mm)*
G04 Created by KiCad (PCBNEW (2016-01-25 BZR 6514, Git a23e712)-product) date Tue 24 May 2016 06:15:30 PM CST*
%MOMM*%
G01*
G04 APERTURE LIST*
%ADD10C,0.100000*%
%ADD11O,3.000000X1.600000*%
%ADD12R,0.500000X0.800000*%
%ADD13R,0.400000X0.800000*%
%ADD14R,1.900000X2.000000*%
%ADD15C,1.900000*%
%ADD16R,0.600000X1.950000*%
%ADD17R,1.800000X1.300000*%
%ADD18O,1.800000X1.300000*%
%ADD19R,1.000000X1.250000*%
%ADD20R,1.300000X0.700000*%
%ADD21R,0.700000X1.300000*%
%ADD22C,1.000000*%
%ADD23C,1.000000*%
%ADD24C,0.300000*%
%ADD25C,0.250000*%
%ADD26C,0.254000*%
G04 APERTURE END LIST*
D10*
D11*
X7780000Y42810000D03*
X7780000Y40270000D03*
X7780000Y37730000D03*
X7780000Y35190000D03*
X7780000Y32650000D03*
X7780000Y30110000D03*
X7780000Y27570000D03*
X7780000Y25030000D03*
X7780000Y22490000D03*
X7780000Y19950000D03*
X7780000Y17410000D03*
X7780000Y14870000D03*
X7780000Y12330000D03*
X7780000Y9790000D03*
X7780000Y7250000D03*
X21720000Y7250000D03*
X21720000Y9790000D03*
X21720000Y12330000D03*
X21720000Y14870000D03*
X21720000Y17410000D03*
X21720000Y19950000D03*
X21720000Y22490000D03*
X21720000Y25030000D03*
X21720000Y27570000D03*
X21720000Y30110000D03*
X21720000Y32650000D03*
X21720000Y35190000D03*
X21720000Y37730000D03*
X21720000Y40270000D03*
X21720000Y42810000D03*
D12*
X25650000Y32450000D03*
D13*
X27250000Y32450000D03*
X26450000Y32450000D03*
D12*
X28050000Y32450000D03*
D13*
X26450000Y30650000D03*
D12*
X25650000Y30650000D03*
D13*
X27250000Y30650000D03*
D12*
X28050000Y30650000D03*
D14*
X34500000Y47250000D03*
D15*
X31960000Y47250000D03*
D14*
X34540000Y30250000D03*
D15*
X32000000Y30250000D03*
D14*
X34500000Y13250000D03*
D15*
X31960000Y13250000D03*
D16*
X8035000Y55200000D03*
X9305000Y55200000D03*
X10575000Y55200000D03*
X11845000Y55200000D03*
X13115000Y55200000D03*
X14385000Y55200000D03*
X15655000Y55200000D03*
X16925000Y55200000D03*
X18195000Y55200000D03*
X19465000Y55200000D03*
X19465000Y45800000D03*
X18195000Y45800000D03*
X16925000Y45800000D03*
X15655000Y45800000D03*
X14385000Y45800000D03*
X13115000Y45800000D03*
X11845000Y45800000D03*
X10575000Y45800000D03*
X9305000Y45800000D03*
X8035000Y45800000D03*
D17*
X26000000Y41750000D03*
D18*
X28500000Y41750000D03*
X26000000Y39750000D03*
X28500000Y39750000D03*
X26000000Y37750000D03*
X28500000Y37750000D03*
X26000000Y35750000D03*
X28500000Y35750000D03*
D17*
X26000000Y24750000D03*
D18*
X28500000Y24750000D03*
X26000000Y22750000D03*
X28500000Y22750000D03*
X26000000Y20750000D03*
X28500000Y20750000D03*
X26000000Y18750000D03*
X28500000Y18750000D03*
D19*
X23750000Y49000000D03*
X25750000Y49000000D03*
X23750000Y53250000D03*
X25750000Y53250000D03*
D20*
X32750000Y41200000D03*
X32750000Y39300000D03*
X32700000Y24200000D03*
X32700000Y22300000D03*
D21*
X29700000Y9250000D03*
X27800000Y9250000D03*
D12*
X13900000Y32400000D03*
D13*
X15500000Y32400000D03*
X14700000Y32400000D03*
D12*
X16300000Y32400000D03*
D13*
X14700000Y30600000D03*
D12*
X13900000Y30600000D03*
D13*
X15500000Y30600000D03*
D12*
X16300000Y30600000D03*
D22*
X15100000Y28700000D03*
X26272967Y29013556D03*
X28250000Y53250000D03*
X14666540Y50264044D03*
X16948543Y50154068D03*
X18183740Y41819171D03*
X11250457Y35109840D03*
X14963704Y52760441D03*
X27750000Y51000000D03*
X14700000Y34250000D03*
X19171337Y51878623D03*
X14347712Y37036478D03*
X16912612Y40278409D03*
X24908585Y27567631D03*
X24169695Y32350010D03*
D23*
X31960000Y47250000D02*
X31960000Y52249656D01*
X31960000Y52249656D02*
X28509656Y55700000D01*
X28509656Y55700000D02*
X23770892Y55700000D01*
D24*
X16300000Y30600000D02*
X16300000Y29100000D01*
X16300000Y29100000D02*
X16700000Y28700000D01*
X15500000Y30600000D02*
X15500000Y29100000D01*
X15500000Y29100000D02*
X15100000Y28700000D01*
D23*
X16700000Y28700000D02*
X14658950Y28700000D01*
X14658950Y28700000D02*
X13550000Y28700000D01*
D24*
X14700000Y30600000D02*
X14700000Y28741050D01*
X14700000Y28741050D02*
X14658950Y28700000D01*
X13900000Y30600000D02*
X13900000Y29050000D01*
X13900000Y29050000D02*
X13550000Y28700000D01*
D23*
X15807106Y28700000D02*
X16700000Y28700000D01*
X15100000Y28700000D02*
X15807106Y28700000D01*
X21626424Y49000000D02*
X21360539Y48734115D01*
X21360539Y48734115D02*
X8994115Y48734115D01*
X8994115Y48734115D02*
X8035000Y47775000D01*
X8035000Y47775000D02*
X8035000Y45800000D01*
D25*
X28050000Y30650000D02*
X28050000Y29015615D01*
X28050000Y29015615D02*
X28052059Y29013556D01*
X27250000Y30650000D02*
X27250000Y29261481D01*
X27250000Y29261481D02*
X27002075Y29013556D01*
X26450000Y30650000D02*
X26450000Y29190589D01*
X26450000Y29190589D02*
X26272967Y29013556D01*
X25650000Y30650000D02*
X25650000Y29350000D01*
X25650000Y29350000D02*
X25500000Y29200000D01*
X23750000Y49000000D02*
X23000000Y49000000D01*
X23000000Y49000000D02*
X21626424Y49000000D01*
X23750000Y53250000D02*
X23750000Y52375000D01*
X23750000Y52375000D02*
X23750000Y49000000D01*
D23*
X23770892Y55700000D02*
X22502200Y55700000D01*
D25*
X23750000Y53250000D02*
X23750000Y55679108D01*
X23750000Y55679108D02*
X23770892Y55700000D01*
D23*
X21626424Y54824224D02*
X21626424Y53249875D01*
D25*
X23750000Y53250000D02*
X23000000Y53250000D01*
D23*
X21626424Y53249875D02*
X21626424Y49000000D01*
D25*
X23000000Y53250000D02*
X22999875Y53249875D01*
X22999875Y53249875D02*
X21626424Y53249875D01*
D23*
X22502200Y55700000D02*
X21626424Y54824224D01*
X25283111Y29013556D02*
X25686444Y29013556D01*
D24*
X26000000Y29286523D02*
X26272967Y29013556D01*
X26500000Y29240589D02*
X26272967Y29013556D01*
D23*
X26272967Y29013556D02*
X27002075Y29013556D01*
X25283111Y29013556D02*
X26272967Y29013556D01*
X25282342Y29012787D02*
X25283111Y29013556D01*
D24*
X28313556Y29013556D02*
X28052059Y29013556D01*
D23*
X27522933Y29013556D02*
X28052059Y29013556D01*
X27002075Y29013556D02*
X27522933Y29013556D01*
D24*
X27500000Y29200000D02*
X27522933Y29177067D01*
X27522933Y29177067D02*
X27522933Y29013556D01*
X25500000Y29200000D02*
X25686444Y29013556D01*
D25*
X25750000Y53250000D02*
X28250000Y53250000D01*
X26250000Y41750000D02*
X25750000Y42250000D01*
X25750000Y42250000D02*
X25750000Y49000000D01*
D23*
X26256263Y41756263D02*
X26250000Y41750000D01*
D24*
X34500000Y47250000D02*
X34500000Y42961911D01*
X34500000Y42961911D02*
X32749707Y41211618D01*
X32749707Y41211618D02*
X32749707Y41200293D01*
X32749707Y41200293D02*
X32750000Y41200000D01*
X32700000Y24200000D02*
X32700000Y25400000D01*
X32700000Y25400000D02*
X34540000Y27240000D01*
X34540000Y27240000D02*
X34540000Y30250000D01*
X30200000Y9250000D02*
X29700000Y9250000D01*
X30200000Y9250000D02*
X32250000Y9250000D01*
X32250000Y9250000D02*
X34500000Y11500000D01*
X34500000Y11500000D02*
X34500000Y13250000D01*
X13115000Y51815584D02*
X14166541Y50764043D01*
X13115000Y55200000D02*
X13115000Y51815584D01*
X14166541Y50764043D02*
X14666540Y50264044D01*
X26250000Y39750000D02*
X24690126Y39750000D01*
X24690126Y39750000D02*
X23811337Y38871211D01*
X23811337Y38871211D02*
X23811337Y35188663D01*
X23811337Y35188663D02*
X25400000Y33600000D01*
X25400000Y33600000D02*
X26150000Y33600000D01*
X26150000Y33600000D02*
X26450000Y33300000D01*
X26450000Y33300000D02*
X26450000Y32450000D01*
X13365000Y55275000D02*
X13365000Y55950000D01*
X16925000Y50177611D02*
X16948543Y50154068D01*
X16925000Y55200000D02*
X16925000Y50177611D01*
X26250000Y37750000D02*
X24960951Y37750000D01*
X27250000Y33150000D02*
X27250000Y32450000D01*
X24960951Y37750000D02*
X24556700Y37345749D01*
X24556700Y37345749D02*
X24556700Y35243300D01*
X27250000Y33457120D02*
X27250000Y33150000D01*
X24556700Y35243300D02*
X25699990Y34100010D01*
X25699990Y34100010D02*
X26607110Y34100010D01*
X26607110Y34100010D02*
X27250000Y33457120D01*
X26250000Y35750000D02*
X26250000Y35403417D01*
X26250000Y35403417D02*
X28050000Y33603417D01*
X28050000Y33603417D02*
X28050000Y33050000D01*
X28050000Y33050000D02*
X28050000Y32450000D01*
X18195000Y41830431D02*
X18183740Y41819171D01*
X18195000Y45800000D02*
X18195000Y41830431D01*
X13100000Y31550000D02*
X11250457Y33399543D01*
X11250457Y34402734D02*
X11250457Y35109840D01*
X11250457Y33399543D02*
X11250457Y34402734D01*
X15500000Y32400000D02*
X15500000Y31700000D01*
X15350000Y31550000D02*
X13100000Y31550000D01*
X15500000Y31700000D02*
X15350000Y31550000D01*
X28622624Y39750000D02*
X28250000Y39750000D01*
X14385000Y53339145D02*
X14463705Y53260440D01*
X14463705Y53260440D02*
X14963704Y52760441D01*
X14385000Y55200000D02*
X14385000Y53339145D01*
X27750000Y51000000D02*
X28000000Y51000000D01*
X29750000Y39750000D02*
X28250000Y39750000D01*
X28000000Y51000000D02*
X30250000Y48750000D01*
X30250000Y48750000D02*
X30250000Y40250000D01*
X30250000Y40250000D02*
X29750000Y39750000D01*
X14635000Y55275000D02*
X14635000Y55950000D01*
X14700000Y34250000D02*
X14700000Y32400000D01*
X28820134Y37750000D02*
X28250000Y37750000D01*
X18671338Y52378622D02*
X19171337Y51878623D01*
X18195000Y52854960D02*
X18671338Y52378622D01*
X18195000Y55200000D02*
X18195000Y52854960D01*
X13350000Y36038766D02*
X13847713Y36536479D01*
X13847713Y36536479D02*
X14347712Y37036478D01*
X13350000Y33100000D02*
X13350000Y36038766D01*
X13900000Y32400000D02*
X13900000Y32550000D01*
X13900000Y32550000D02*
X13350000Y33100000D01*
X16925000Y45800000D02*
X16925000Y40290797D01*
X16925000Y40290797D02*
X16912612Y40278409D01*
X9305000Y43918553D02*
X9305000Y44525000D01*
X18828054Y34395499D02*
X9305000Y43918553D01*
X18828054Y31396281D02*
X18828054Y34395499D01*
X9305000Y44525000D02*
X9305000Y45800000D01*
X24908585Y27567631D02*
X24408586Y28067630D01*
X24408586Y28067630D02*
X24408586Y31369673D01*
X24408586Y31369673D02*
X24428210Y31389297D01*
X24428210Y31389297D02*
X18763998Y31389297D01*
X18763998Y31389297D02*
X17753295Y32400000D01*
X17753295Y32400000D02*
X16300000Y32400000D01*
X9555000Y45875000D02*
X9555000Y46550000D01*
X10588539Y45786461D02*
X10575000Y45800000D01*
X10588539Y43831964D02*
X10588539Y45786461D01*
X20502581Y33917922D02*
X10588539Y43831964D01*
X23308889Y33917922D02*
X20502581Y33917922D01*
X24169695Y33057116D02*
X23308889Y33917922D01*
X24169695Y32350010D02*
X24169695Y33057116D01*
X25650000Y32450000D02*
X24269685Y32450000D01*
X24269685Y32450000D02*
X24169695Y32350010D01*
X24219685Y32400000D02*
X24169695Y32350010D01*
X7130000Y32650000D02*
X10200000Y32650000D01*
X10200000Y32650000D02*
X11650000Y31200000D01*
X17650000Y27350000D02*
X19141431Y28841431D01*
X11650000Y31200000D02*
X11650000Y28350000D01*
X11650000Y28350000D02*
X12650000Y27350000D01*
X23908698Y28049729D02*
X23908698Y27309516D01*
X12650000Y27350000D02*
X17650000Y27350000D01*
X19141431Y28841431D02*
X23116996Y28841431D01*
X23116996Y28841431D02*
X23908698Y28049729D01*
X23908698Y27309516D02*
X24500584Y26717630D01*
X24500584Y26717630D02*
X27256448Y26717630D01*
X27256448Y26717630D02*
X28250000Y25724078D01*
X32750000Y39300000D02*
X32750000Y34269099D01*
X32750000Y34269099D02*
X30199998Y31719097D01*
X30199998Y31719097D02*
X30199998Y27674076D01*
X30199998Y27674076D02*
X28250000Y25724078D01*
X28250000Y24750000D02*
X28250000Y25724078D01*
X7130000Y32650000D02*
X9050000Y32650000D01*
X9276162Y32650000D02*
X7130000Y32650000D01*
X7130000Y27570000D02*
X9621417Y27570000D01*
X9621417Y27570000D02*
X10877184Y26314233D01*
X10877184Y26314233D02*
X17464233Y26314233D01*
X17464233Y26314233D02*
X22726771Y26314233D01*
X30200000Y22750000D02*
X30650000Y22300000D01*
X30650000Y22300000D02*
X32700000Y22300000D01*
X28250000Y22750000D02*
X30200000Y22750000D01*
X22727428Y26314233D02*
X23221667Y26314233D01*
X23221667Y26314233D02*
X24093438Y25442462D01*
X24093438Y25442462D02*
X24093438Y24264051D01*
X24093438Y24264051D02*
X24597058Y23760431D01*
D25*
X24612471Y23750156D02*
X27249844Y23750156D01*
D24*
X27249844Y23750156D02*
X27274990Y23725010D01*
X27274990Y23725010D02*
X28250000Y22750000D01*
X7130000Y22490000D02*
X14487479Y22490000D01*
X14487479Y22490000D02*
X15770383Y23772904D01*
X15770383Y23772904D02*
X23565407Y23772904D01*
X23565407Y23772904D02*
X24625878Y22712433D01*
X24625878Y22712433D02*
X24625878Y20213360D01*
X24625878Y20213360D02*
X25087338Y19751900D01*
X30400000Y16050000D02*
X27800000Y13450000D01*
X27800000Y13450000D02*
X27800000Y11980000D01*
X30400000Y19900000D02*
X30400000Y16050000D01*
X29550000Y20750000D02*
X30400000Y19900000D01*
X28250000Y20750000D02*
X29550000Y20750000D01*
D25*
X25087338Y19751900D02*
X27251900Y19751900D01*
D24*
X27251900Y19751900D02*
X27274990Y19774990D01*
X27274990Y19774990D02*
X28250000Y20750000D01*
X27800000Y11980000D02*
X27800000Y9250000D01*
D26*
G36*
X12040000Y57750000D02*
X12094046Y57478295D01*
X12247954Y57247954D01*
X12478295Y57094046D01*
X12750000Y57040000D01*
X32750000Y57040000D01*
X33021705Y57094046D01*
X33252046Y57247954D01*
X33405954Y57478295D01*
X33460000Y57750000D01*
X33460000Y59790000D01*
X37040000Y59790000D01*
X37040000Y777000D01*
X33460000Y777000D01*
X33460000Y2750000D01*
X33405954Y3021705D01*
X33252046Y3252046D01*
X33021705Y3405954D01*
X32750000Y3460000D01*
X12750000Y3460000D01*
X12478295Y3405954D01*
X12247954Y3252046D01*
X12094046Y3021705D01*
X12040000Y2750000D01*
X12040000Y777000D01*
X8460000Y777000D01*
X8460000Y2750000D01*
X8405954Y3021705D01*
X8252046Y3252046D01*
X8021705Y3405954D01*
X7750000Y3460000D01*
X3460000Y3460000D01*
X3460000Y6900961D01*
X5688096Y6900961D01*
X5705633Y6818181D01*
X5975500Y6325104D01*
X6413517Y5972834D01*
X6953000Y5815000D01*
X7653000Y5815000D01*
X7653000Y7123000D01*
X7907000Y7123000D01*
X7907000Y5815000D01*
X8607000Y5815000D01*
X9146483Y5972834D01*
X9584500Y6325104D01*
X9854367Y6818181D01*
X9871904Y6900961D01*
X19628096Y6900961D01*
X19645633Y6818181D01*
X19915500Y6325104D01*
X20353517Y5972834D01*
X20893000Y5815000D01*
X21593000Y5815000D01*
X21593000Y7123000D01*
X21847000Y7123000D01*
X21847000Y5815000D01*
X22547000Y5815000D01*
X23086483Y5972834D01*
X23524500Y6325104D01*
X23794367Y6818181D01*
X23811904Y6900961D01*
X23689915Y7123000D01*
X21847000Y7123000D01*
X21593000Y7123000D01*
X19750085Y7123000D01*
X19628096Y6900961D01*
X9871904Y6900961D01*
X9749915Y7123000D01*
X7907000Y7123000D01*
X7653000Y7123000D01*
X5810085Y7123000D01*
X5688096Y6900961D01*
X3460000Y6900961D01*
X3460000Y9440961D01*
X5688096Y9440961D01*
X5705633Y9358181D01*
X5975500Y8865104D01*
X6404607Y8520000D01*
X5975500Y8174896D01*
X5705633Y7681819D01*
X5688096Y7599039D01*
X5810085Y7377000D01*
X7653000Y7377000D01*
X7653000Y9663000D01*
X7907000Y9663000D01*
X7907000Y7377000D01*
X9749915Y7377000D01*
X9871904Y7599039D01*
X9854367Y7681819D01*
X9584500Y8174896D01*
X9155393Y8520000D01*
X9584500Y8865104D01*
X9854367Y9358181D01*
X9871904Y9440961D01*
X9749915Y9663000D01*
X7907000Y9663000D01*
X7653000Y9663000D01*
X5810085Y9663000D01*
X5688096Y9440961D01*
X3460000Y9440961D01*
X3460000Y9750000D01*
X3405954Y10021705D01*
X3252046Y10252046D01*
X3021705Y10405954D01*
X2750000Y10460000D01*
X710000Y10460000D01*
X710000Y11980961D01*
X5688096Y11980961D01*
X5705633Y11898181D01*
X5975500Y11405104D01*
X6404607Y11060000D01*
X5975500Y10714896D01*
X5705633Y10221819D01*
X5688096Y10139039D01*
X5810085Y9917000D01*
X7653000Y9917000D01*
X7653000Y12203000D01*
X7907000Y12203000D01*
X7907000Y9917000D01*
X9749915Y9917000D01*
X9871904Y10139039D01*
X9854367Y10221819D01*
X9584500Y10714896D01*
X9155393Y11060000D01*
X9584500Y11405104D01*
X9854367Y11898181D01*
X9871904Y11980961D01*
X9749915Y12203000D01*
X7907000Y12203000D01*
X7653000Y12203000D01*
X5810085Y12203000D01*
X5688096Y11980961D01*
X710000Y11980961D01*
X710000Y14520961D01*
X5688096Y14520961D01*
X5705633Y14438181D01*
X5975500Y13945104D01*
X6404607Y13600000D01*
X5975500Y13254896D01*
X5705633Y12761819D01*
X5688096Y12679039D01*
X5810085Y12457000D01*
X7653000Y12457000D01*
X7653000Y14743000D01*
X7907000Y14743000D01*
X7907000Y12457000D01*
X9749915Y12457000D01*
X9871904Y12679039D01*
X9854367Y12761819D01*
X9584500Y13254896D01*
X9155393Y13600000D01*
X9584500Y13945104D01*
X9854367Y14438181D01*
X9871904Y14520961D01*
X9749915Y14743000D01*
X7907000Y14743000D01*
X7653000Y14743000D01*
X5810085Y14743000D01*
X5688096Y14520961D01*
X710000Y14520961D01*
X710000Y16040000D01*
X2750000Y16040000D01*
X3021705Y16094046D01*
X3252046Y16247954D01*
X3405954Y16478295D01*
X3460000Y16750000D01*
X3460000Y17060961D01*
X5688096Y17060961D01*
X5705633Y16978181D01*
X5975500Y16485104D01*
X6404607Y16140000D01*
X5975500Y15794896D01*
X5705633Y15301819D01*
X5688096Y15219039D01*
X5810085Y14997000D01*
X7653000Y14997000D01*
X7653000Y17283000D01*
X7907000Y17283000D01*
X7907000Y14997000D01*
X9749915Y14997000D01*
X9871904Y15219039D01*
X9854367Y15301819D01*
X9584500Y15794896D01*
X9155393Y16140000D01*
X9584500Y16485104D01*
X9854367Y16978181D01*
X9871904Y17060961D01*
X9749915Y17283000D01*
X7907000Y17283000D01*
X7653000Y17283000D01*
X5810085Y17283000D01*
X5688096Y17060961D01*
X3460000Y17060961D01*
X3460000Y42810000D01*
X5603173Y42810000D01*
X5712406Y42260849D01*
X6023475Y41795302D01*
X6405561Y41540000D01*
X6023475Y41284698D01*
X5712406Y40819151D01*
X5603173Y40270000D01*
X5712406Y39720849D01*
X6023475Y39255302D01*
X6405561Y39000000D01*
X6023475Y38744698D01*
X5712406Y38279151D01*
X5603173Y37730000D01*
X5712406Y37180849D01*
X6023475Y36715302D01*
X6405040Y36460348D01*
X5975500Y36114896D01*
X5705633Y35621819D01*
X5688096Y35539039D01*
X5810085Y35317000D01*
X7653000Y35317000D01*
X7653000Y35337000D01*
X7907000Y35337000D01*
X7907000Y35317000D01*
X9749915Y35317000D01*
X9871904Y35539039D01*
X9854367Y35621819D01*
X9584500Y36114896D01*
X9154960Y36460348D01*
X9536525Y36715302D01*
X9847594Y37180849D01*
X9956827Y37730000D01*
X9847594Y38279151D01*
X9536525Y38744698D01*
X9154439Y39000000D01*
X9536525Y39255302D01*
X9847594Y39720849D01*
X9956827Y40270000D01*
X9847594Y40819151D01*
X9536525Y41284698D01*
X9154439Y41540000D01*
X9536525Y41795302D01*
X9847594Y42260849D01*
X9848416Y42264979D01*
X13994705Y38118690D01*
X13705626Y37999245D01*
X13386067Y37680243D01*
X13212909Y37263234D01*
X13212689Y37011613D01*
X12794921Y36593845D01*
X12624755Y36339173D01*
X12606030Y36245037D01*
X12565000Y36038766D01*
X12565000Y33195158D01*
X12035457Y33724701D01*
X12035457Y34289738D01*
X12212102Y34466075D01*
X12385260Y34883084D01*
X12385654Y35334615D01*
X12213224Y35751926D01*
X11894222Y36071485D01*
X11477213Y36244643D01*
X11025682Y36245037D01*
X10608371Y36072607D01*
X10288812Y35753605D01*
X10115654Y35336596D01*
X10115260Y34885065D01*
X10287690Y34467754D01*
X10465457Y34289677D01*
X10465457Y33399543D01*
X10469049Y33381482D01*
X10200000Y33435000D01*
X9690005Y33435000D01*
X9536525Y33664698D01*
X9154960Y33919652D01*
X9584500Y34265104D01*
X9854367Y34758181D01*
X9871904Y34840961D01*
X9749915Y35063000D01*
X7907000Y35063000D01*
X7907000Y35043000D01*
X7653000Y35043000D01*
X7653000Y35063000D01*
X5810085Y35063000D01*
X5688096Y34840961D01*
X5705633Y34758181D01*
X5975500Y34265104D01*
X6405040Y33919652D01*
X6023475Y33664698D01*
X5712406Y33199151D01*
X5603173Y32650000D01*
X5712406Y32100849D01*
X6023475Y31635302D01*
X6405561Y31380000D01*
X6023475Y31124698D01*
X5712406Y30659151D01*
X5603173Y30110000D01*
X5712406Y29560849D01*
X6023475Y29095302D01*
X6405561Y28840000D01*
X6023475Y28584698D01*
X5712406Y28119151D01*
X5603173Y27570000D01*
X5712406Y27020849D01*
X6023475Y26555302D01*
X6405561Y26300000D01*
X6023475Y26044698D01*
X5712406Y25579151D01*
X5603173Y25030000D01*
X5712406Y24480849D01*
X6023475Y24015302D01*
X6405561Y23760000D01*
X6023475Y23504698D01*
X5712406Y23039151D01*
X5603173Y22490000D01*
X5712406Y21940849D01*
X6023475Y21475302D01*
X6405561Y21220000D01*
X6023475Y20964698D01*
X5712406Y20499151D01*
X5603173Y19950000D01*
X5712406Y19400849D01*
X6023475Y18935302D01*
X6405040Y18680348D01*
X5975500Y18334896D01*
X5705633Y17841819D01*
X5688096Y17759039D01*
X5810085Y17537000D01*
X7653000Y17537000D01*
X7653000Y17557000D01*
X7907000Y17557000D01*
X7907000Y17537000D01*
X9749915Y17537000D01*
X9871904Y17759039D01*
X9854367Y17841819D01*
X9584500Y18334896D01*
X9154960Y18680348D01*
X9536525Y18935302D01*
X9847594Y19400849D01*
X9956827Y19950000D01*
X9847594Y20499151D01*
X9536525Y20964698D01*
X9154439Y21220000D01*
X9536525Y21475302D01*
X9690005Y21705000D01*
X14487479Y21705000D01*
X14787886Y21764755D01*
X15042558Y21934921D01*
X16095541Y22987904D01*
X19642212Y22987904D01*
X19543173Y22490000D01*
X19652406Y21940849D01*
X19963475Y21475302D01*
X20345561Y21220000D01*
X19963475Y20964698D01*
X19652406Y20499151D01*
X19543173Y19950000D01*
X19652406Y19400849D01*
X19963475Y18935302D01*
X20345561Y18680000D01*
X19963475Y18424698D01*
X19652406Y17959151D01*
X19543173Y17410000D01*
X19652406Y16860849D01*
X19963475Y16395302D01*
X20345561Y16140000D01*
X19963475Y15884698D01*
X19652406Y15419151D01*
X19543173Y14870000D01*
X19652406Y14320849D01*
X19963475Y13855302D01*
X20345561Y13600000D01*
X19963475Y13344698D01*
X19652406Y12879151D01*
X19543173Y12330000D01*
X19652406Y11780849D01*
X19963475Y11315302D01*
X20345561Y11060000D01*
X19963475Y10804698D01*
X19652406Y10339151D01*
X19543173Y9790000D01*
X19652406Y9240849D01*
X19963475Y8775302D01*
X20345040Y8520348D01*
X19915500Y8174896D01*
X19645633Y7681819D01*
X19628096Y7599039D01*
X19750085Y7377000D01*
X21593000Y7377000D01*
X21593000Y7397000D01*
X21847000Y7397000D01*
X21847000Y7377000D01*
X23689915Y7377000D01*
X23811904Y7599039D01*
X23794367Y7681819D01*
X23524500Y8174896D01*
X23094960Y8520348D01*
X23476525Y8775302D01*
X23787594Y9240849D01*
X23896827Y9790000D01*
X23787594Y10339151D01*
X23476525Y10804698D01*
X23094439Y11060000D01*
X23476525Y11315302D01*
X23787594Y11780849D01*
X23896827Y12330000D01*
X23787594Y12879151D01*
X23476525Y13344698D01*
X23094439Y13600000D01*
X23476525Y13855302D01*
X23787594Y14320849D01*
X23896827Y14870000D01*
X23787594Y15419151D01*
X23476525Y15884698D01*
X23094439Y16140000D01*
X23476525Y16395302D01*
X23787594Y16860849D01*
X23896827Y17410000D01*
X23787594Y17959151D01*
X23476525Y18424698D01*
X23094439Y18680000D01*
X23476525Y18935302D01*
X23787594Y19400849D01*
X23895045Y19941043D01*
X23900633Y19912953D01*
X24070799Y19658281D01*
X24525209Y19203871D01*
X24434928Y18750000D01*
X24532743Y18258252D01*
X24811296Y17841368D01*
X25228180Y17562815D01*
X25719928Y17465000D01*
X26280072Y17465000D01*
X26771820Y17562815D01*
X27188704Y17841368D01*
X27250000Y17933104D01*
X27311296Y17841368D01*
X27728180Y17562815D01*
X28219928Y17465000D01*
X28780072Y17465000D01*
X29271820Y17562815D01*
X29615000Y17792121D01*
X29615000Y16375158D01*
X27244921Y14005079D01*
X27074755Y13750407D01*
X27043412Y13592834D01*
X27015000Y13450000D01*
X27015000Y10374669D01*
X26998559Y10364090D01*
X26853569Y10151890D01*
X26802560Y9900000D01*
X26802560Y8600000D01*
X26846838Y8364683D01*
X26985910Y8148559D01*
X27198110Y8003569D01*
X27450000Y7952560D01*
X28150000Y7952560D01*
X28385317Y7996838D01*
X28601441Y8135910D01*
X28746431Y8348110D01*
X28749081Y8361197D01*
X28885910Y8148559D01*
X29098110Y8003569D01*
X29350000Y7952560D01*
X30050000Y7952560D01*
X30285317Y7996838D01*
X30501441Y8135910D01*
X30646431Y8348110D01*
X30670102Y8465000D01*
X32250000Y8465000D01*
X32550407Y8524755D01*
X32805079Y8694921D01*
X35055076Y10944919D01*
X35055079Y10944921D01*
X35225245Y11199594D01*
X35248261Y11315302D01*
X35285001Y11500000D01*
X35285000Y11500005D01*
X35285000Y11602560D01*
X35450000Y11602560D01*
X35685317Y11646838D01*
X35901441Y11785910D01*
X36046431Y11998110D01*
X36097440Y12250000D01*
X36097440Y14250000D01*
X36053162Y14485317D01*
X35914090Y14701441D01*
X35701890Y14846431D01*
X35450000Y14897440D01*
X33550000Y14897440D01*
X33314683Y14853162D01*
X33098559Y14714090D01*
X32953569Y14501890D01*
X32952945Y14498808D01*
X32859003Y14592914D01*
X32276659Y14834724D01*
X31646107Y14835275D01*
X31063343Y14594481D01*
X30617086Y14149003D01*
X30375276Y13566659D01*
X30374725Y12936107D01*
X30615519Y12353343D01*
X31060997Y11907086D01*
X31643341Y11665276D01*
X32273893Y11664725D01*
X32856657Y11905519D01*
X32954337Y12003029D01*
X33085910Y11798559D01*
X33298110Y11653569D01*
X33502102Y11612260D01*
X31924842Y10035000D01*
X30672038Y10035000D01*
X30653162Y10135317D01*
X30514090Y10351441D01*
X30301890Y10496431D01*
X30050000Y10547440D01*
X29350000Y10547440D01*
X29114683Y10503162D01*
X28898559Y10364090D01*
X28753569Y10151890D01*
X28750919Y10138803D01*
X28614090Y10351441D01*
X28585000Y10371317D01*
X28585000Y13124842D01*
X30955079Y15494921D01*
X31125245Y15749593D01*
X31185000Y16050000D01*
X31185000Y19899995D01*
X31185001Y19900000D01*
X31125245Y20200406D01*
X31086594Y20258252D01*
X30955079Y20455079D01*
X30955076Y20455081D01*
X30105079Y21305079D01*
X29850407Y21475245D01*
X29805236Y21484230D01*
X29688704Y21658632D01*
X29551962Y21750000D01*
X29688704Y21841368D01*
X29771312Y21965000D01*
X29874842Y21965000D01*
X30094921Y21744921D01*
X30349593Y21574755D01*
X30650000Y21515000D01*
X31575331Y21515000D01*
X31585910Y21498559D01*
X31798110Y21353569D01*
X32050000Y21302560D01*
X33350000Y21302560D01*
X33585317Y21346838D01*
X33801441Y21485910D01*
X33946431Y21698110D01*
X33997440Y21950000D01*
X33997440Y22650000D01*
X33953162Y22885317D01*
X33814090Y23101441D01*
X33601890Y23246431D01*
X33588803Y23249081D01*
X33801441Y23385910D01*
X33946431Y23598110D01*
X33997440Y23850000D01*
X33997440Y24550000D01*
X33953162Y24785317D01*
X33814090Y25001441D01*
X33601890Y25146431D01*
X33564218Y25154060D01*
X35095079Y26684921D01*
X35265245Y26939593D01*
X35325000Y27240000D01*
X35325000Y28602560D01*
X35490000Y28602560D01*
X35725317Y28646838D01*
X35941441Y28785910D01*
X36086431Y28998110D01*
X36137440Y29250000D01*
X36137440Y31250000D01*
X36093162Y31485317D01*
X35954090Y31701441D01*
X35741890Y31846431D01*
X35490000Y31897440D01*
X33590000Y31897440D01*
X33354683Y31853162D01*
X33138559Y31714090D01*
X32993569Y31501890D01*
X32992945Y31498808D01*
X32899003Y31592914D01*
X32316659Y31834724D01*
X31686107Y31835275D01*
X31243418Y31652359D01*
X33305079Y33714020D01*
X33429618Y33900407D01*
X33475245Y33968693D01*
X33535000Y34269099D01*
X33535000Y38327962D01*
X33635317Y38346838D01*
X33851441Y38485910D01*
X33996431Y38698110D01*
X34047440Y38950000D01*
X34047440Y39650000D01*
X34003162Y39885317D01*
X33864090Y40101441D01*
X33651890Y40246431D01*
X33638803Y40249081D01*
X33851441Y40385910D01*
X33996431Y40598110D01*
X34047440Y40850000D01*
X34047440Y41399193D01*
X35055079Y42406832D01*
X35225245Y42661504D01*
X35285000Y42961911D01*
X35285000Y45602560D01*
X35450000Y45602560D01*
X35685317Y45646838D01*
X35901441Y45785910D01*
X36046431Y45998110D01*
X36097440Y46250000D01*
X36097440Y48250000D01*
X36053162Y48485317D01*
X35914090Y48701441D01*
X35701890Y48846431D01*
X35450000Y48897440D01*
X33550000Y48897440D01*
X33314683Y48853162D01*
X33098559Y48714090D01*
X33095000Y48708881D01*
X33095000Y52249656D01*
X33008603Y52684002D01*
X32762566Y53052222D01*
X29312222Y56502566D01*
X29126830Y56626441D01*
X28944002Y56748603D01*
X28509656Y56835000D01*
X22502200Y56835000D01*
X22067854Y56748603D01*
X21885026Y56626441D01*
X21699634Y56502566D01*
X20823858Y55626790D01*
X20577821Y55258570D01*
X20491424Y54824224D01*
X20491424Y49869115D01*
X18059180Y49869115D01*
X18083346Y49927312D01*
X18083740Y50378843D01*
X17911310Y50796154D01*
X17710000Y50997816D01*
X17710000Y52229802D01*
X18036358Y51903444D01*
X18036140Y51653848D01*
X18208570Y51236537D01*
X18527572Y50916978D01*
X18944581Y50743820D01*
X19396112Y50743426D01*
X19813423Y50915856D01*
X20132982Y51234858D01*
X20306140Y51651867D01*
X20306534Y52103398D01*
X20134104Y52520709D01*
X19815102Y52840268D01*
X19398093Y53013426D01*
X19146472Y53013646D01*
X18980000Y53180118D01*
X18980000Y53614310D01*
X19038690Y53590000D01*
X19179250Y53590000D01*
X19338000Y53748750D01*
X19338000Y55073000D01*
X19592000Y55073000D01*
X19592000Y53748750D01*
X19750750Y53590000D01*
X19891310Y53590000D01*
X20124699Y53686673D01*
X20303327Y53865302D01*
X20400000Y54098691D01*
X20400000Y54914250D01*
X20241250Y55073000D01*
X19592000Y55073000D01*
X19338000Y55073000D01*
X19318000Y55073000D01*
X19318000Y55327000D01*
X19338000Y55327000D01*
X19338000Y56651250D01*
X19592000Y56651250D01*
X19592000Y55327000D01*
X20241250Y55327000D01*
X20400000Y55485750D01*
X20400000Y56301309D01*
X20303327Y56534698D01*
X20124699Y56713327D01*
X19891310Y56810000D01*
X19750750Y56810000D01*
X19592000Y56651250D01*
X19338000Y56651250D01*
X19179250Y56810000D01*
X19038690Y56810000D01*
X18821878Y56720194D01*
X18746890Y56771431D01*
X18495000Y56822440D01*
X17895000Y56822440D01*
X17659683Y56778162D01*
X17560472Y56714322D01*
X17476890Y56771431D01*
X17225000Y56822440D01*
X16625000Y56822440D01*
X16389683Y56778162D01*
X16290472Y56714322D01*
X16206890Y56771431D01*
X15955000Y56822440D01*
X15355000Y56822440D01*
X15119683Y56778162D01*
X15020472Y56714322D01*
X14936890Y56771431D01*
X14685000Y56822440D01*
X14085000Y56822440D01*
X13849683Y56778162D01*
X13750472Y56714322D01*
X13666890Y56771431D01*
X13415000Y56822440D01*
X12815000Y56822440D01*
X12579683Y56778162D01*
X12480472Y56714322D01*
X12396890Y56771431D01*
X12145000Y56822440D01*
X11545000Y56822440D01*
X11309683Y56778162D01*
X11219020Y56719822D01*
X11001310Y56810000D01*
X10860750Y56810000D01*
X10702000Y56651250D01*
X10702000Y55327000D01*
X10722000Y55327000D01*
X10722000Y55073000D01*
X10702000Y55073000D01*
X10702000Y53748750D01*
X10860750Y53590000D01*
X11001310Y53590000D01*
X11218122Y53679806D01*
X11293110Y53628569D01*
X11545000Y53577560D01*
X12145000Y53577560D01*
X12330000Y53612370D01*
X12330000Y51815584D01*
X12389755Y51515177D01*
X12559921Y51260505D01*
X13531561Y50288865D01*
X13531343Y50039269D01*
X13601649Y49869115D01*
X8994115Y49869115D01*
X8559769Y49782718D01*
X8191548Y49536681D01*
X7232434Y48577566D01*
X6986397Y48209346D01*
X6900000Y47775000D01*
X6900000Y45800000D01*
X6986397Y45365654D01*
X7087560Y45214253D01*
X7087560Y44825000D01*
X7131838Y44589683D01*
X7270910Y44373559D01*
X7459062Y44245000D01*
X7038173Y44245000D01*
X6489022Y44135767D01*
X6023475Y43824698D01*
X5712406Y43359151D01*
X5603173Y42810000D01*
X3460000Y42810000D01*
X3460000Y43750000D01*
X3405954Y44021705D01*
X3252046Y44252046D01*
X3021705Y44405954D01*
X2750000Y44460000D01*
X710000Y44460000D01*
X710000Y50040000D01*
X2750000Y50040000D01*
X3021705Y50094046D01*
X3252046Y50247954D01*
X3405954Y50478295D01*
X3460000Y50750000D01*
X3460000Y54914250D01*
X7100000Y54914250D01*
X7100000Y54098691D01*
X7196673Y53865302D01*
X7375301Y53686673D01*
X7608690Y53590000D01*
X7749250Y53590000D01*
X7908000Y53748750D01*
X7908000Y55073000D01*
X8162000Y55073000D01*
X8162000Y53748750D01*
X8320750Y53590000D01*
X8461310Y53590000D01*
X8670000Y53676442D01*
X8878690Y53590000D01*
X9019250Y53590000D01*
X9178000Y53748750D01*
X9178000Y55073000D01*
X9432000Y55073000D01*
X9432000Y53748750D01*
X9590750Y53590000D01*
X9731310Y53590000D01*
X9940000Y53676442D01*
X10148690Y53590000D01*
X10289250Y53590000D01*
X10448000Y53748750D01*
X10448000Y55073000D01*
X9432000Y55073000D01*
X9178000Y55073000D01*
X8162000Y55073000D01*
X7908000Y55073000D01*
X7258750Y55073000D01*
X7100000Y54914250D01*
X3460000Y54914250D01*
X3460000Y56301309D01*
X7100000Y56301309D01*
X7100000Y55485750D01*
X7258750Y55327000D01*
X7908000Y55327000D01*
X7908000Y56651250D01*
X8162000Y56651250D01*
X8162000Y55327000D01*
X9178000Y55327000D01*
X9178000Y56651250D01*
X9432000Y56651250D01*
X9432000Y55327000D01*
X10448000Y55327000D01*
X10448000Y56651250D01*
X10289250Y56810000D01*
X10148690Y56810000D01*
X9940000Y56723558D01*
X9731310Y56810000D01*
X9590750Y56810000D01*
X9432000Y56651250D01*
X9178000Y56651250D01*
X9019250Y56810000D01*
X8878690Y56810000D01*
X8670000Y56723558D01*
X8461310Y56810000D01*
X8320750Y56810000D01*
X8162000Y56651250D01*
X7908000Y56651250D01*
X7749250Y56810000D01*
X7608690Y56810000D01*
X7375301Y56713327D01*
X7196673Y56534698D01*
X7100000Y56301309D01*
X3460000Y56301309D01*
X3460000Y57040000D01*
X7750000Y57040000D01*
X8021705Y57094046D01*
X8252046Y57247954D01*
X8405954Y57478295D01*
X8460000Y57750000D01*
X8460000Y59790000D01*
X12040000Y59790000D01*
X12040000Y57750000D01*
X12040000Y57750000D01*
G37*
X12040000Y57750000D02*
X12094046Y57478295D01*
X12247954Y57247954D01*
X12478295Y57094046D01*
X12750000Y57040000D01*
X32750000Y57040000D01*
X33021705Y57094046D01*
X33252046Y57247954D01*
X33405954Y57478295D01*
X33460000Y57750000D01*
X33460000Y59790000D01*
X37040000Y59790000D01*
X37040000Y777000D01*
X33460000Y777000D01*
X33460000Y2750000D01*
X33405954Y3021705D01*
X33252046Y3252046D01*
X33021705Y3405954D01*
X32750000Y3460000D01*
X12750000Y3460000D01*
X12478295Y3405954D01*
X12247954Y3252046D01*
X12094046Y3021705D01*
X12040000Y2750000D01*
X12040000Y777000D01*
X8460000Y777000D01*
X8460000Y2750000D01*
X8405954Y3021705D01*
X8252046Y3252046D01*
X8021705Y3405954D01*
X7750000Y3460000D01*
X3460000Y3460000D01*
X3460000Y6900961D01*
X5688096Y6900961D01*
X5705633Y6818181D01*
X5975500Y6325104D01*
X6413517Y5972834D01*
X6953000Y5815000D01*
X7653000Y5815000D01*
X7653000Y7123000D01*
X7907000Y7123000D01*
X7907000Y5815000D01*
X8607000Y5815000D01*
X9146483Y5972834D01*
X9584500Y6325104D01*
X9854367Y6818181D01*
X9871904Y6900961D01*
X19628096Y6900961D01*
X19645633Y6818181D01*
X19915500Y6325104D01*
X20353517Y5972834D01*
X20893000Y5815000D01*
X21593000Y5815000D01*
X21593000Y7123000D01*
X21847000Y7123000D01*
X21847000Y5815000D01*
X22547000Y5815000D01*
X23086483Y5972834D01*
X23524500Y6325104D01*
X23794367Y6818181D01*
X23811904Y6900961D01*
X23689915Y7123000D01*
X21847000Y7123000D01*
X21593000Y7123000D01*
X19750085Y7123000D01*
X19628096Y6900961D01*
X9871904Y6900961D01*
X9749915Y7123000D01*
X7907000Y7123000D01*
X7653000Y7123000D01*
X5810085Y7123000D01*
X5688096Y6900961D01*
X3460000Y6900961D01*
X3460000Y9440961D01*
X5688096Y9440961D01*
X5705633Y9358181D01*
X5975500Y8865104D01*
X6404607Y8520000D01*
X5975500Y8174896D01*
X5705633Y7681819D01*
X5688096Y7599039D01*
X5810085Y7377000D01*
X7653000Y7377000D01*
X7653000Y9663000D01*
X7907000Y9663000D01*
X7907000Y7377000D01*
X9749915Y7377000D01*
X9871904Y7599039D01*
X9854367Y7681819D01*
X9584500Y8174896D01*
X9155393Y8520000D01*
X9584500Y8865104D01*
X9854367Y9358181D01*
X9871904Y9440961D01*
X9749915Y9663000D01*
X7907000Y9663000D01*
X7653000Y9663000D01*
X5810085Y9663000D01*
X5688096Y9440961D01*
X3460000Y9440961D01*
X3460000Y9750000D01*
X3405954Y10021705D01*
X3252046Y10252046D01*
X3021705Y10405954D01*
X2750000Y10460000D01*
X710000Y10460000D01*
X710000Y11980961D01*
X5688096Y11980961D01*
X5705633Y11898181D01*
X5975500Y11405104D01*
X6404607Y11060000D01*
X5975500Y10714896D01*
X5705633Y10221819D01*
X5688096Y10139039D01*
X5810085Y9917000D01*
X7653000Y9917000D01*
X7653000Y12203000D01*
X7907000Y12203000D01*
X7907000Y9917000D01*
X9749915Y9917000D01*
X9871904Y10139039D01*
X9854367Y10221819D01*
X9584500Y10714896D01*
X9155393Y11060000D01*
X9584500Y11405104D01*
X9854367Y11898181D01*
X9871904Y11980961D01*
X9749915Y12203000D01*
X7907000Y12203000D01*
X7653000Y12203000D01*
X5810085Y12203000D01*
X5688096Y11980961D01*
X710000Y11980961D01*
X710000Y14520961D01*
X5688096Y14520961D01*
X5705633Y14438181D01*
X5975500Y13945104D01*
X6404607Y13600000D01*
X5975500Y13254896D01*
X5705633Y12761819D01*
X5688096Y12679039D01*
X5810085Y12457000D01*
X7653000Y12457000D01*
X7653000Y14743000D01*
X7907000Y14743000D01*
X7907000Y12457000D01*
X9749915Y12457000D01*
X9871904Y12679039D01*
X9854367Y12761819D01*
X9584500Y13254896D01*
X9155393Y13600000D01*
X9584500Y13945104D01*
X9854367Y14438181D01*
X9871904Y14520961D01*
X9749915Y14743000D01*
X7907000Y14743000D01*
X7653000Y14743000D01*
X5810085Y14743000D01*
X5688096Y14520961D01*
X710000Y14520961D01*
X710000Y16040000D01*
X2750000Y16040000D01*
X3021705Y16094046D01*
X3252046Y16247954D01*
X3405954Y16478295D01*
X3460000Y16750000D01*
X3460000Y17060961D01*
X5688096Y17060961D01*
X5705633Y16978181D01*
X5975500Y16485104D01*
X6404607Y16140000D01*
X5975500Y15794896D01*
X5705633Y15301819D01*
X5688096Y15219039D01*
X5810085Y14997000D01*
X7653000Y14997000D01*
X7653000Y17283000D01*
X7907000Y17283000D01*
X7907000Y14997000D01*
X9749915Y14997000D01*
X9871904Y15219039D01*
X9854367Y15301819D01*
X9584500Y15794896D01*
X9155393Y16140000D01*
X9584500Y16485104D01*
X9854367Y16978181D01*
X9871904Y17060961D01*
X9749915Y17283000D01*
X7907000Y17283000D01*
X7653000Y17283000D01*
X5810085Y17283000D01*
X5688096Y17060961D01*
X3460000Y17060961D01*
X3460000Y42810000D01*
X5603173Y42810000D01*
X5712406Y42260849D01*
X6023475Y41795302D01*
X6405561Y41540000D01*
X6023475Y41284698D01*
X5712406Y40819151D01*
X5603173Y40270000D01*
X5712406Y39720849D01*
X6023475Y39255302D01*
X6405561Y39000000D01*
X6023475Y38744698D01*
X5712406Y38279151D01*
X5603173Y37730000D01*
X5712406Y37180849D01*
X6023475Y36715302D01*
X6405040Y36460348D01*
X5975500Y36114896D01*
X5705633Y35621819D01*
X5688096Y35539039D01*
X5810085Y35317000D01*
X7653000Y35317000D01*
X7653000Y35337000D01*
X7907000Y35337000D01*
X7907000Y35317000D01*
X9749915Y35317000D01*
X9871904Y35539039D01*
X9854367Y35621819D01*
X9584500Y36114896D01*
X9154960Y36460348D01*
X9536525Y36715302D01*
X9847594Y37180849D01*
X9956827Y37730000D01*
X9847594Y38279151D01*
X9536525Y38744698D01*
X9154439Y39000000D01*
X9536525Y39255302D01*
X9847594Y39720849D01*
X9956827Y40270000D01*
X9847594Y40819151D01*
X9536525Y41284698D01*
X9154439Y41540000D01*
X9536525Y41795302D01*
X9847594Y42260849D01*
X9848416Y42264979D01*
X13994705Y38118690D01*
X13705626Y37999245D01*
X13386067Y37680243D01*
X13212909Y37263234D01*
X13212689Y37011613D01*
X12794921Y36593845D01*
X12624755Y36339173D01*
X12606030Y36245037D01*
X12565000Y36038766D01*
X12565000Y33195158D01*
X12035457Y33724701D01*
X12035457Y34289738D01*
X12212102Y34466075D01*
X12385260Y34883084D01*
X12385654Y35334615D01*
X12213224Y35751926D01*
X11894222Y36071485D01*
X11477213Y36244643D01*
X11025682Y36245037D01*
X10608371Y36072607D01*
X10288812Y35753605D01*
X10115654Y35336596D01*
X10115260Y34885065D01*
X10287690Y34467754D01*
X10465457Y34289677D01*
X10465457Y33399543D01*
X10469049Y33381482D01*
X10200000Y33435000D01*
X9690005Y33435000D01*
X9536525Y33664698D01*
X9154960Y33919652D01*
X9584500Y34265104D01*
X9854367Y34758181D01*
X9871904Y34840961D01*
X9749915Y35063000D01*
X7907000Y35063000D01*
X7907000Y35043000D01*
X7653000Y35043000D01*
X7653000Y35063000D01*
X5810085Y35063000D01*
X5688096Y34840961D01*
X5705633Y34758181D01*
X5975500Y34265104D01*
X6405040Y33919652D01*
X6023475Y33664698D01*
X5712406Y33199151D01*
X5603173Y32650000D01*
X5712406Y32100849D01*
X6023475Y31635302D01*
X6405561Y31380000D01*
X6023475Y31124698D01*
X5712406Y30659151D01*
X5603173Y30110000D01*
X5712406Y29560849D01*
X6023475Y29095302D01*
X6405561Y28840000D01*
X6023475Y28584698D01*
X5712406Y28119151D01*
X5603173Y27570000D01*
X5712406Y27020849D01*
X6023475Y26555302D01*
X6405561Y26300000D01*
X6023475Y26044698D01*
X5712406Y25579151D01*
X5603173Y25030000D01*
X5712406Y24480849D01*
X6023475Y24015302D01*
X6405561Y23760000D01*
X6023475Y23504698D01*
X5712406Y23039151D01*
X5603173Y22490000D01*
X5712406Y21940849D01*
X6023475Y21475302D01*
X6405561Y21220000D01*
X6023475Y20964698D01*
X5712406Y20499151D01*
X5603173Y19950000D01*
X5712406Y19400849D01*
X6023475Y18935302D01*
X6405040Y18680348D01*
X5975500Y18334896D01*
X5705633Y17841819D01*
X5688096Y17759039D01*
X5810085Y17537000D01*
X7653000Y17537000D01*
X7653000Y17557000D01*
X7907000Y17557000D01*
X7907000Y17537000D01*
X9749915Y17537000D01*
X9871904Y17759039D01*
X9854367Y17841819D01*
X9584500Y18334896D01*
X9154960Y18680348D01*
X9536525Y18935302D01*
X9847594Y19400849D01*
X9956827Y19950000D01*
X9847594Y20499151D01*
X9536525Y20964698D01*
X9154439Y21220000D01*
X9536525Y21475302D01*
X9690005Y21705000D01*
X14487479Y21705000D01*
X14787886Y21764755D01*
X15042558Y21934921D01*
X16095541Y22987904D01*
X19642212Y22987904D01*
X19543173Y22490000D01*
X19652406Y21940849D01*
X19963475Y21475302D01*
X20345561Y21220000D01*
X19963475Y20964698D01*
X19652406Y20499151D01*
X19543173Y19950000D01*
X19652406Y19400849D01*
X19963475Y18935302D01*
X20345561Y18680000D01*
X19963475Y18424698D01*
X19652406Y17959151D01*
X19543173Y17410000D01*
X19652406Y16860849D01*
X19963475Y16395302D01*
X20345561Y16140000D01*
X19963475Y15884698D01*
X19652406Y15419151D01*
X19543173Y14870000D01*
X19652406Y14320849D01*
X19963475Y13855302D01*
X20345561Y13600000D01*
X19963475Y13344698D01*
X19652406Y12879151D01*
X19543173Y12330000D01*
X19652406Y11780849D01*
X19963475Y11315302D01*
X20345561Y11060000D01*
X19963475Y10804698D01*
X19652406Y10339151D01*
X19543173Y9790000D01*
X19652406Y9240849D01*
X19963475Y8775302D01*
X20345040Y8520348D01*
X19915500Y8174896D01*
X19645633Y7681819D01*
X19628096Y7599039D01*
X19750085Y7377000D01*
X21593000Y7377000D01*
X21593000Y7397000D01*
X21847000Y7397000D01*
X21847000Y7377000D01*
X23689915Y7377000D01*
X23811904Y7599039D01*
X23794367Y7681819D01*
X23524500Y8174896D01*
X23094960Y8520348D01*
X23476525Y8775302D01*
X23787594Y9240849D01*
X23896827Y9790000D01*
X23787594Y10339151D01*
X23476525Y10804698D01*
X23094439Y11060000D01*
X23476525Y11315302D01*
X23787594Y11780849D01*
X23896827Y12330000D01*
X23787594Y12879151D01*
X23476525Y13344698D01*
X23094439Y13600000D01*
X23476525Y13855302D01*
X23787594Y14320849D01*
X23896827Y14870000D01*
X23787594Y15419151D01*
X23476525Y15884698D01*
X23094439Y16140000D01*
X23476525Y16395302D01*
X23787594Y16860849D01*
X23896827Y17410000D01*
X23787594Y17959151D01*
X23476525Y18424698D01*
X23094439Y18680000D01*
X23476525Y18935302D01*
X23787594Y19400849D01*
X23895045Y19941043D01*
X23900633Y19912953D01*
X24070799Y19658281D01*
X24525209Y19203871D01*
X24434928Y18750000D01*
X24532743Y18258252D01*
X24811296Y17841368D01*
X25228180Y17562815D01*
X25719928Y17465000D01*
X26280072Y17465000D01*
X26771820Y17562815D01*
X27188704Y17841368D01*
X27250000Y17933104D01*
X27311296Y17841368D01*
X27728180Y17562815D01*
X28219928Y17465000D01*
X28780072Y17465000D01*
X29271820Y17562815D01*
X29615000Y17792121D01*
X29615000Y16375158D01*
X27244921Y14005079D01*
X27074755Y13750407D01*
X27043412Y13592834D01*
X27015000Y13450000D01*
X27015000Y10374669D01*
X26998559Y10364090D01*
X26853569Y10151890D01*
X26802560Y9900000D01*
X26802560Y8600000D01*
X26846838Y8364683D01*
X26985910Y8148559D01*
X27198110Y8003569D01*
X27450000Y7952560D01*
X28150000Y7952560D01*
X28385317Y7996838D01*
X28601441Y8135910D01*
X28746431Y8348110D01*
X28749081Y8361197D01*
X28885910Y8148559D01*
X29098110Y8003569D01*
X29350000Y7952560D01*
X30050000Y7952560D01*
X30285317Y7996838D01*
X30501441Y8135910D01*
X30646431Y8348110D01*
X30670102Y8465000D01*
X32250000Y8465000D01*
X32550407Y8524755D01*
X32805079Y8694921D01*
X35055076Y10944919D01*
X35055079Y10944921D01*
X35225245Y11199594D01*
X35248261Y11315302D01*
X35285001Y11500000D01*
X35285000Y11500005D01*
X35285000Y11602560D01*
X35450000Y11602560D01*
X35685317Y11646838D01*
X35901441Y11785910D01*
X36046431Y11998110D01*
X36097440Y12250000D01*
X36097440Y14250000D01*
X36053162Y14485317D01*
X35914090Y14701441D01*
X35701890Y14846431D01*
X35450000Y14897440D01*
X33550000Y14897440D01*
X33314683Y14853162D01*
X33098559Y14714090D01*
X32953569Y14501890D01*
X32952945Y14498808D01*
X32859003Y14592914D01*
X32276659Y14834724D01*
X31646107Y14835275D01*
X31063343Y14594481D01*
X30617086Y14149003D01*
X30375276Y13566659D01*
X30374725Y12936107D01*
X30615519Y12353343D01*
X31060997Y11907086D01*
X31643341Y11665276D01*
X32273893Y11664725D01*
X32856657Y11905519D01*
X32954337Y12003029D01*
X33085910Y11798559D01*
X33298110Y11653569D01*
X33502102Y11612260D01*
X31924842Y10035000D01*
X30672038Y10035000D01*
X30653162Y10135317D01*
X30514090Y10351441D01*
X30301890Y10496431D01*
X30050000Y10547440D01*
X29350000Y10547440D01*
X29114683Y10503162D01*
X28898559Y10364090D01*
X28753569Y10151890D01*
X28750919Y10138803D01*
X28614090Y10351441D01*
X28585000Y10371317D01*
X28585000Y13124842D01*
X30955079Y15494921D01*
X31125245Y15749593D01*
X31185000Y16050000D01*
X31185000Y19899995D01*
X31185001Y19900000D01*
X31125245Y20200406D01*
X31086594Y20258252D01*
X30955079Y20455079D01*
X30955076Y20455081D01*
X30105079Y21305079D01*
X29850407Y21475245D01*
X29805236Y21484230D01*
X29688704Y21658632D01*
X29551962Y21750000D01*
X29688704Y21841368D01*
X29771312Y21965000D01*
X29874842Y21965000D01*
X30094921Y21744921D01*
X30349593Y21574755D01*
X30650000Y21515000D01*
X31575331Y21515000D01*
X31585910Y21498559D01*
X31798110Y21353569D01*
X32050000Y21302560D01*
X33350000Y21302560D01*
X33585317Y21346838D01*
X33801441Y21485910D01*
X33946431Y21698110D01*
X33997440Y21950000D01*
X33997440Y22650000D01*
X33953162Y22885317D01*
X33814090Y23101441D01*
X33601890Y23246431D01*
X33588803Y23249081D01*
X33801441Y23385910D01*
X33946431Y23598110D01*
X33997440Y23850000D01*
X33997440Y24550000D01*
X33953162Y24785317D01*
X33814090Y25001441D01*
X33601890Y25146431D01*
X33564218Y25154060D01*
X35095079Y26684921D01*
X35265245Y26939593D01*
X35325000Y27240000D01*
X35325000Y28602560D01*
X35490000Y28602560D01*
X35725317Y28646838D01*
X35941441Y28785910D01*
X36086431Y28998110D01*
X36137440Y29250000D01*
X36137440Y31250000D01*
X36093162Y31485317D01*
X35954090Y31701441D01*
X35741890Y31846431D01*
X35490000Y31897440D01*
X33590000Y31897440D01*
X33354683Y31853162D01*
X33138559Y31714090D01*
X32993569Y31501890D01*
X32992945Y31498808D01*
X32899003Y31592914D01*
X32316659Y31834724D01*
X31686107Y31835275D01*
X31243418Y31652359D01*
X33305079Y33714020D01*
X33429618Y33900407D01*
X33475245Y33968693D01*
X33535000Y34269099D01*
X33535000Y38327962D01*
X33635317Y38346838D01*
X33851441Y38485910D01*
X33996431Y38698110D01*
X34047440Y38950000D01*
X34047440Y39650000D01*
X34003162Y39885317D01*
X33864090Y40101441D01*
X33651890Y40246431D01*
X33638803Y40249081D01*
X33851441Y40385910D01*
X33996431Y40598110D01*
X34047440Y40850000D01*
X34047440Y41399193D01*
X35055079Y42406832D01*
X35225245Y42661504D01*
X35285000Y42961911D01*
X35285000Y45602560D01*
X35450000Y45602560D01*
X35685317Y45646838D01*
X35901441Y45785910D01*
X36046431Y45998110D01*
X36097440Y46250000D01*
X36097440Y48250000D01*
X36053162Y48485317D01*
X35914090Y48701441D01*
X35701890Y48846431D01*
X35450000Y48897440D01*
X33550000Y48897440D01*
X33314683Y48853162D01*
X33098559Y48714090D01*
X33095000Y48708881D01*
X33095000Y52249656D01*
X33008603Y52684002D01*
X32762566Y53052222D01*
X29312222Y56502566D01*
X29126830Y56626441D01*
X28944002Y56748603D01*
X28509656Y56835000D01*
X22502200Y56835000D01*
X22067854Y56748603D01*
X21885026Y56626441D01*
X21699634Y56502566D01*
X20823858Y55626790D01*
X20577821Y55258570D01*
X20491424Y54824224D01*
X20491424Y49869115D01*
X18059180Y49869115D01*
X18083346Y49927312D01*
X18083740Y50378843D01*
X17911310Y50796154D01*
X17710000Y50997816D01*
X17710000Y52229802D01*
X18036358Y51903444D01*
X18036140Y51653848D01*
X18208570Y51236537D01*
X18527572Y50916978D01*
X18944581Y50743820D01*
X19396112Y50743426D01*
X19813423Y50915856D01*
X20132982Y51234858D01*
X20306140Y51651867D01*
X20306534Y52103398D01*
X20134104Y52520709D01*
X19815102Y52840268D01*
X19398093Y53013426D01*
X19146472Y53013646D01*
X18980000Y53180118D01*
X18980000Y53614310D01*
X19038690Y53590000D01*
X19179250Y53590000D01*
X19338000Y53748750D01*
X19338000Y55073000D01*
X19592000Y55073000D01*
X19592000Y53748750D01*
X19750750Y53590000D01*
X19891310Y53590000D01*
X20124699Y53686673D01*
X20303327Y53865302D01*
X20400000Y54098691D01*
X20400000Y54914250D01*
X20241250Y55073000D01*
X19592000Y55073000D01*
X19338000Y55073000D01*
X19318000Y55073000D01*
X19318000Y55327000D01*
X19338000Y55327000D01*
X19338000Y56651250D01*
X19592000Y56651250D01*
X19592000Y55327000D01*
X20241250Y55327000D01*
X20400000Y55485750D01*
X20400000Y56301309D01*
X20303327Y56534698D01*
X20124699Y56713327D01*
X19891310Y56810000D01*
X19750750Y56810000D01*
X19592000Y56651250D01*
X19338000Y56651250D01*
X19179250Y56810000D01*
X19038690Y56810000D01*
X18821878Y56720194D01*
X18746890Y56771431D01*
X18495000Y56822440D01*
X17895000Y56822440D01*
X17659683Y56778162D01*
X17560472Y56714322D01*
X17476890Y56771431D01*
X17225000Y56822440D01*
X16625000Y56822440D01*
X16389683Y56778162D01*
X16290472Y56714322D01*
X16206890Y56771431D01*
X15955000Y56822440D01*
X15355000Y56822440D01*
X15119683Y56778162D01*
X15020472Y56714322D01*
X14936890Y56771431D01*
X14685000Y56822440D01*
X14085000Y56822440D01*
X13849683Y56778162D01*
X13750472Y56714322D01*
X13666890Y56771431D01*
X13415000Y56822440D01*
X12815000Y56822440D01*
X12579683Y56778162D01*
X12480472Y56714322D01*
X12396890Y56771431D01*
X12145000Y56822440D01*
X11545000Y56822440D01*
X11309683Y56778162D01*
X11219020Y56719822D01*
X11001310Y56810000D01*
X10860750Y56810000D01*
X10702000Y56651250D01*
X10702000Y55327000D01*
X10722000Y55327000D01*
X10722000Y55073000D01*
X10702000Y55073000D01*
X10702000Y53748750D01*
X10860750Y53590000D01*
X11001310Y53590000D01*
X11218122Y53679806D01*
X11293110Y53628569D01*
X11545000Y53577560D01*
X12145000Y53577560D01*
X12330000Y53612370D01*
X12330000Y51815584D01*
X12389755Y51515177D01*
X12559921Y51260505D01*
X13531561Y50288865D01*
X13531343Y50039269D01*
X13601649Y49869115D01*
X8994115Y49869115D01*
X8559769Y49782718D01*
X8191548Y49536681D01*
X7232434Y48577566D01*
X6986397Y48209346D01*
X6900000Y47775000D01*
X6900000Y45800000D01*
X6986397Y45365654D01*
X7087560Y45214253D01*
X7087560Y44825000D01*
X7131838Y44589683D01*
X7270910Y44373559D01*
X7459062Y44245000D01*
X7038173Y44245000D01*
X6489022Y44135767D01*
X6023475Y43824698D01*
X5712406Y43359151D01*
X5603173Y42810000D01*
X3460000Y42810000D01*
X3460000Y43750000D01*
X3405954Y44021705D01*
X3252046Y44252046D01*
X3021705Y44405954D01*
X2750000Y44460000D01*
X710000Y44460000D01*
X710000Y50040000D01*
X2750000Y50040000D01*
X3021705Y50094046D01*
X3252046Y50247954D01*
X3405954Y50478295D01*
X3460000Y50750000D01*
X3460000Y54914250D01*
X7100000Y54914250D01*
X7100000Y54098691D01*
X7196673Y53865302D01*
X7375301Y53686673D01*
X7608690Y53590000D01*
X7749250Y53590000D01*
X7908000Y53748750D01*
X7908000Y55073000D01*
X8162000Y55073000D01*
X8162000Y53748750D01*
X8320750Y53590000D01*
X8461310Y53590000D01*
X8670000Y53676442D01*
X8878690Y53590000D01*
X9019250Y53590000D01*
X9178000Y53748750D01*
X9178000Y55073000D01*
X9432000Y55073000D01*
X9432000Y53748750D01*
X9590750Y53590000D01*
X9731310Y53590000D01*
X9940000Y53676442D01*
X10148690Y53590000D01*
X10289250Y53590000D01*
X10448000Y53748750D01*
X10448000Y55073000D01*
X9432000Y55073000D01*
X9178000Y55073000D01*
X8162000Y55073000D01*
X7908000Y55073000D01*
X7258750Y55073000D01*
X7100000Y54914250D01*
X3460000Y54914250D01*
X3460000Y56301309D01*
X7100000Y56301309D01*
X7100000Y55485750D01*
X7258750Y55327000D01*
X7908000Y55327000D01*
X7908000Y56651250D01*
X8162000Y56651250D01*
X8162000Y55327000D01*
X9178000Y55327000D01*
X9178000Y56651250D01*
X9432000Y56651250D01*
X9432000Y55327000D01*
X10448000Y55327000D01*
X10448000Y56651250D01*
X10289250Y56810000D01*
X10148690Y56810000D01*
X9940000Y56723558D01*
X9731310Y56810000D01*
X9590750Y56810000D01*
X9432000Y56651250D01*
X9178000Y56651250D01*
X9019250Y56810000D01*
X8878690Y56810000D01*
X8670000Y56723558D01*
X8461310Y56810000D01*
X8320750Y56810000D01*
X8162000Y56651250D01*
X7908000Y56651250D01*
X7749250Y56810000D01*
X7608690Y56810000D01*
X7375301Y56713327D01*
X7196673Y56534698D01*
X7100000Y56301309D01*
X3460000Y56301309D01*
X3460000Y57040000D01*
X7750000Y57040000D01*
X8021705Y57094046D01*
X8252046Y57247954D01*
X8405954Y57478295D01*
X8460000Y57750000D01*
X8460000Y59790000D01*
X12040000Y59790000D01*
X12040000Y57750000D01*
G36*
X30825000Y51779524D02*
X30825000Y49275265D01*
X30805079Y49305079D01*
X30805076Y49305081D01*
X28885066Y51225092D01*
X28712767Y51642086D01*
X28393765Y51961645D01*
X27976756Y52134803D01*
X27525225Y52135197D01*
X27107914Y51962767D01*
X26788355Y51643765D01*
X26615197Y51226756D01*
X26614803Y50775225D01*
X26787233Y50357914D01*
X27106235Y50038355D01*
X27523244Y49865197D01*
X27974775Y49864803D01*
X28010343Y49879499D01*
X29465000Y48424843D01*
X29465000Y42808106D01*
X29271820Y42937185D01*
X28780072Y43035000D01*
X28219928Y43035000D01*
X27728180Y42937185D01*
X27443578Y42747020D01*
X27438327Y42759698D01*
X27259699Y42938327D01*
X27026310Y43035000D01*
X26285750Y43035000D01*
X26127000Y42876250D01*
X26127000Y41877000D01*
X26147000Y41877000D01*
X26147000Y41623000D01*
X26127000Y41623000D01*
X26127000Y41603000D01*
X25873000Y41603000D01*
X25873000Y41623000D01*
X24623750Y41623000D01*
X24465000Y41464250D01*
X24465000Y40973691D01*
X24561673Y40740302D01*
X24740301Y40561673D01*
X24745164Y40559659D01*
X24728688Y40535000D01*
X24690126Y40535000D01*
X24389719Y40475245D01*
X24135047Y40305079D01*
X23846386Y40016418D01*
X23896827Y40270000D01*
X23787594Y40819151D01*
X23476525Y41284698D01*
X23094439Y41540000D01*
X23476525Y41795302D01*
X23787594Y42260849D01*
X23840397Y42526309D01*
X24465000Y42526309D01*
X24465000Y42035750D01*
X24623750Y41877000D01*
X25873000Y41877000D01*
X25873000Y42876250D01*
X25714250Y43035000D01*
X24973690Y43035000D01*
X24740301Y42938327D01*
X24561673Y42759698D01*
X24465000Y42526309D01*
X23840397Y42526309D01*
X23896827Y42810000D01*
X23787594Y43359151D01*
X23476525Y43824698D01*
X23010978Y44135767D01*
X22461827Y44245000D01*
X20978173Y44245000D01*
X20429022Y44135767D01*
X19963475Y43824698D01*
X19652406Y43359151D01*
X19543173Y42810000D01*
X19652406Y42260849D01*
X19963475Y41795302D01*
X20345561Y41540000D01*
X19963475Y41284698D01*
X19652406Y40819151D01*
X19543173Y40270000D01*
X19652406Y39720849D01*
X19963475Y39255302D01*
X20345561Y39000000D01*
X19963475Y38744698D01*
X19652406Y38279151D01*
X19543173Y37730000D01*
X19652406Y37180849D01*
X19963475Y36715302D01*
X20345561Y36460000D01*
X19963475Y36204698D01*
X19708123Y35822538D01*
X11373539Y44157122D01*
X11373539Y44212282D01*
X11545000Y44177560D01*
X12145000Y44177560D01*
X12380317Y44221838D01*
X12479528Y44285678D01*
X12563110Y44228569D01*
X12815000Y44177560D01*
X13415000Y44177560D01*
X13650317Y44221838D01*
X13749528Y44285678D01*
X13833110Y44228569D01*
X14085000Y44177560D01*
X14685000Y44177560D01*
X14920317Y44221838D01*
X15019528Y44285678D01*
X15103110Y44228569D01*
X15355000Y44177560D01*
X15955000Y44177560D01*
X16140000Y44212370D01*
X16140000Y41110878D01*
X15950967Y40922174D01*
X15777809Y40505165D01*
X15777415Y40053634D01*
X15949845Y39636323D01*
X16268847Y39316764D01*
X16685856Y39143606D01*
X17137387Y39143212D01*
X17554698Y39315642D01*
X17874257Y39634644D01*
X18047415Y40051653D01*
X18047809Y40503184D01*
X17972951Y40684354D01*
X18408515Y40683974D01*
X18825826Y40856404D01*
X19145385Y41175406D01*
X19318543Y41592415D01*
X19318937Y42043946D01*
X19146507Y42461257D01*
X18980000Y42628055D01*
X18980000Y44215023D01*
X19165000Y44177560D01*
X19765000Y44177560D01*
X20000317Y44221838D01*
X20216441Y44360910D01*
X20361431Y44573110D01*
X20412440Y44825000D01*
X20412440Y46775000D01*
X20368162Y47010317D01*
X20229090Y47226441D01*
X20016890Y47371431D01*
X19765000Y47422440D01*
X19165000Y47422440D01*
X18929683Y47378162D01*
X18830472Y47314322D01*
X18746890Y47371431D01*
X18495000Y47422440D01*
X17895000Y47422440D01*
X17659683Y47378162D01*
X17560472Y47314322D01*
X17476890Y47371431D01*
X17225000Y47422440D01*
X16625000Y47422440D01*
X16389683Y47378162D01*
X16290472Y47314322D01*
X16206890Y47371431D01*
X15955000Y47422440D01*
X15355000Y47422440D01*
X15119683Y47378162D01*
X15020472Y47314322D01*
X14936890Y47371431D01*
X14685000Y47422440D01*
X14085000Y47422440D01*
X13849683Y47378162D01*
X13750472Y47314322D01*
X13666890Y47371431D01*
X13415000Y47422440D01*
X12815000Y47422440D01*
X12579683Y47378162D01*
X12480472Y47314322D01*
X12396890Y47371431D01*
X12145000Y47422440D01*
X11545000Y47422440D01*
X11309683Y47378162D01*
X11210472Y47314322D01*
X11126890Y47371431D01*
X10875000Y47422440D01*
X10275000Y47422440D01*
X10039683Y47378162D01*
X9940472Y47314322D01*
X9856890Y47371431D01*
X9605000Y47422440D01*
X9287572Y47422440D01*
X9464248Y47599115D01*
X21360539Y47599115D01*
X21794885Y47685512D01*
X22163105Y47931549D01*
X22428990Y48197434D01*
X22457432Y48240000D01*
X22627962Y48240000D01*
X22646838Y48139683D01*
X22785910Y47923559D01*
X22998110Y47778569D01*
X23250000Y47727560D01*
X24250000Y47727560D01*
X24485317Y47771838D01*
X24701441Y47910910D01*
X24747969Y47979006D01*
X24890302Y47836673D01*
X25123691Y47740000D01*
X25464250Y47740000D01*
X25623000Y47898750D01*
X25623000Y48873000D01*
X25877000Y48873000D01*
X25877000Y47898750D01*
X26035750Y47740000D01*
X26376309Y47740000D01*
X26609698Y47836673D01*
X26788327Y48015301D01*
X26885000Y48248690D01*
X26885000Y48714250D01*
X26726250Y48873000D01*
X25877000Y48873000D01*
X25623000Y48873000D01*
X25603000Y48873000D01*
X25603000Y49127000D01*
X25623000Y49127000D01*
X25623000Y50101250D01*
X25877000Y50101250D01*
X25877000Y49127000D01*
X26726250Y49127000D01*
X26885000Y49285750D01*
X26885000Y49751310D01*
X26788327Y49984699D01*
X26609698Y50163327D01*
X26376309Y50260000D01*
X26035750Y50260000D01*
X25877000Y50101250D01*
X25623000Y50101250D01*
X25464250Y50260000D01*
X25123691Y50260000D01*
X24890302Y50163327D01*
X24749064Y50022090D01*
X24714090Y50076441D01*
X24510000Y50215890D01*
X24510000Y52037721D01*
X24701441Y52160910D01*
X24747969Y52229006D01*
X24890302Y52086673D01*
X25123691Y51990000D01*
X25464250Y51990000D01*
X25623000Y52148750D01*
X25623000Y53123000D01*
X25877000Y53123000D01*
X25877000Y52148750D01*
X26035750Y51990000D01*
X26376309Y51990000D01*
X26609698Y52086673D01*
X26788327Y52265301D01*
X26885000Y52498690D01*
X26885000Y52964250D01*
X26726250Y53123000D01*
X25877000Y53123000D01*
X25623000Y53123000D01*
X25603000Y53123000D01*
X25603000Y53377000D01*
X25623000Y53377000D01*
X25623000Y54351250D01*
X25877000Y54351250D01*
X25877000Y53377000D01*
X26726250Y53377000D01*
X26885000Y53535750D01*
X26885000Y54001310D01*
X26788327Y54234699D01*
X26609698Y54413327D01*
X26376309Y54510000D01*
X26035750Y54510000D01*
X25877000Y54351250D01*
X25623000Y54351250D01*
X25464250Y54510000D01*
X25123691Y54510000D01*
X24890302Y54413327D01*
X24749064Y54272090D01*
X24714090Y54326441D01*
X24510000Y54465890D01*
X24510000Y54565000D01*
X28039524Y54565000D01*
X30825000Y51779524D01*
X30825000Y51779524D01*
G37*
X30825000Y51779524D02*
X30825000Y49275265D01*
X30805079Y49305079D01*
X30805076Y49305081D01*
X28885066Y51225092D01*
X28712767Y51642086D01*
X28393765Y51961645D01*
X27976756Y52134803D01*
X27525225Y52135197D01*
X27107914Y51962767D01*
X26788355Y51643765D01*
X26615197Y51226756D01*
X26614803Y50775225D01*
X26787233Y50357914D01*
X27106235Y50038355D01*
X27523244Y49865197D01*
X27974775Y49864803D01*
X28010343Y49879499D01*
X29465000Y48424843D01*
X29465000Y42808106D01*
X29271820Y42937185D01*
X28780072Y43035000D01*
X28219928Y43035000D01*
X27728180Y42937185D01*
X27443578Y42747020D01*
X27438327Y42759698D01*
X27259699Y42938327D01*
X27026310Y43035000D01*
X26285750Y43035000D01*
X26127000Y42876250D01*
X26127000Y41877000D01*
X26147000Y41877000D01*
X26147000Y41623000D01*
X26127000Y41623000D01*
X26127000Y41603000D01*
X25873000Y41603000D01*
X25873000Y41623000D01*
X24623750Y41623000D01*
X24465000Y41464250D01*
X24465000Y40973691D01*
X24561673Y40740302D01*
X24740301Y40561673D01*
X24745164Y40559659D01*
X24728688Y40535000D01*
X24690126Y40535000D01*
X24389719Y40475245D01*
X24135047Y40305079D01*
X23846386Y40016418D01*
X23896827Y40270000D01*
X23787594Y40819151D01*
X23476525Y41284698D01*
X23094439Y41540000D01*
X23476525Y41795302D01*
X23787594Y42260849D01*
X23840397Y42526309D01*
X24465000Y42526309D01*
X24465000Y42035750D01*
X24623750Y41877000D01*
X25873000Y41877000D01*
X25873000Y42876250D01*
X25714250Y43035000D01*
X24973690Y43035000D01*
X24740301Y42938327D01*
X24561673Y42759698D01*
X24465000Y42526309D01*
X23840397Y42526309D01*
X23896827Y42810000D01*
X23787594Y43359151D01*
X23476525Y43824698D01*
X23010978Y44135767D01*
X22461827Y44245000D01*
X20978173Y44245000D01*
X20429022Y44135767D01*
X19963475Y43824698D01*
X19652406Y43359151D01*
X19543173Y42810000D01*
X19652406Y42260849D01*
X19963475Y41795302D01*
X20345561Y41540000D01*
X19963475Y41284698D01*
X19652406Y40819151D01*
X19543173Y40270000D01*
X19652406Y39720849D01*
X19963475Y39255302D01*
X20345561Y39000000D01*
X19963475Y38744698D01*
X19652406Y38279151D01*
X19543173Y37730000D01*
X19652406Y37180849D01*
X19963475Y36715302D01*
X20345561Y36460000D01*
X19963475Y36204698D01*
X19708123Y35822538D01*
X11373539Y44157122D01*
X11373539Y44212282D01*
X11545000Y44177560D01*
X12145000Y44177560D01*
X12380317Y44221838D01*
X12479528Y44285678D01*
X12563110Y44228569D01*
X12815000Y44177560D01*
X13415000Y44177560D01*
X13650317Y44221838D01*
X13749528Y44285678D01*
X13833110Y44228569D01*
X14085000Y44177560D01*
X14685000Y44177560D01*
X14920317Y44221838D01*
X15019528Y44285678D01*
X15103110Y44228569D01*
X15355000Y44177560D01*
X15955000Y44177560D01*
X16140000Y44212370D01*
X16140000Y41110878D01*
X15950967Y40922174D01*
X15777809Y40505165D01*
X15777415Y40053634D01*
X15949845Y39636323D01*
X16268847Y39316764D01*
X16685856Y39143606D01*
X17137387Y39143212D01*
X17554698Y39315642D01*
X17874257Y39634644D01*
X18047415Y40051653D01*
X18047809Y40503184D01*
X17972951Y40684354D01*
X18408515Y40683974D01*
X18825826Y40856404D01*
X19145385Y41175406D01*
X19318543Y41592415D01*
X19318937Y42043946D01*
X19146507Y42461257D01*
X18980000Y42628055D01*
X18980000Y44215023D01*
X19165000Y44177560D01*
X19765000Y44177560D01*
X20000317Y44221838D01*
X20216441Y44360910D01*
X20361431Y44573110D01*
X20412440Y44825000D01*
X20412440Y46775000D01*
X20368162Y47010317D01*
X20229090Y47226441D01*
X20016890Y47371431D01*
X19765000Y47422440D01*
X19165000Y47422440D01*
X18929683Y47378162D01*
X18830472Y47314322D01*
X18746890Y47371431D01*
X18495000Y47422440D01*
X17895000Y47422440D01*
X17659683Y47378162D01*
X17560472Y47314322D01*
X17476890Y47371431D01*
X17225000Y47422440D01*
X16625000Y47422440D01*
X16389683Y47378162D01*
X16290472Y47314322D01*
X16206890Y47371431D01*
X15955000Y47422440D01*
X15355000Y47422440D01*
X15119683Y47378162D01*
X15020472Y47314322D01*
X14936890Y47371431D01*
X14685000Y47422440D01*
X14085000Y47422440D01*
X13849683Y47378162D01*
X13750472Y47314322D01*
X13666890Y47371431D01*
X13415000Y47422440D01*
X12815000Y47422440D01*
X12579683Y47378162D01*
X12480472Y47314322D01*
X12396890Y47371431D01*
X12145000Y47422440D01*
X11545000Y47422440D01*
X11309683Y47378162D01*
X11210472Y47314322D01*
X11126890Y47371431D01*
X10875000Y47422440D01*
X10275000Y47422440D01*
X10039683Y47378162D01*
X9940472Y47314322D01*
X9856890Y47371431D01*
X9605000Y47422440D01*
X9287572Y47422440D01*
X9464248Y47599115D01*
X21360539Y47599115D01*
X21794885Y47685512D01*
X22163105Y47931549D01*
X22428990Y48197434D01*
X22457432Y48240000D01*
X22627962Y48240000D01*
X22646838Y48139683D01*
X22785910Y47923559D01*
X22998110Y47778569D01*
X23250000Y47727560D01*
X24250000Y47727560D01*
X24485317Y47771838D01*
X24701441Y47910910D01*
X24747969Y47979006D01*
X24890302Y47836673D01*
X25123691Y47740000D01*
X25464250Y47740000D01*
X25623000Y47898750D01*
X25623000Y48873000D01*
X25877000Y48873000D01*
X25877000Y47898750D01*
X26035750Y47740000D01*
X26376309Y47740000D01*
X26609698Y47836673D01*
X26788327Y48015301D01*
X26885000Y48248690D01*
X26885000Y48714250D01*
X26726250Y48873000D01*
X25877000Y48873000D01*
X25623000Y48873000D01*
X25603000Y48873000D01*
X25603000Y49127000D01*
X25623000Y49127000D01*
X25623000Y50101250D01*
X25877000Y50101250D01*
X25877000Y49127000D01*
X26726250Y49127000D01*
X26885000Y49285750D01*
X26885000Y49751310D01*
X26788327Y49984699D01*
X26609698Y50163327D01*
X26376309Y50260000D01*
X26035750Y50260000D01*
X25877000Y50101250D01*
X25623000Y50101250D01*
X25464250Y50260000D01*
X25123691Y50260000D01*
X24890302Y50163327D01*
X24749064Y50022090D01*
X24714090Y50076441D01*
X24510000Y50215890D01*
X24510000Y52037721D01*
X24701441Y52160910D01*
X24747969Y52229006D01*
X24890302Y52086673D01*
X25123691Y51990000D01*
X25464250Y51990000D01*
X25623000Y52148750D01*
X25623000Y53123000D01*
X25877000Y53123000D01*
X25877000Y52148750D01*
X26035750Y51990000D01*
X26376309Y51990000D01*
X26609698Y52086673D01*
X26788327Y52265301D01*
X26885000Y52498690D01*
X26885000Y52964250D01*
X26726250Y53123000D01*
X25877000Y53123000D01*
X25623000Y53123000D01*
X25603000Y53123000D01*
X25603000Y53377000D01*
X25623000Y53377000D01*
X25623000Y54351250D01*
X25877000Y54351250D01*
X25877000Y53377000D01*
X26726250Y53377000D01*
X26885000Y53535750D01*
X26885000Y54001310D01*
X26788327Y54234699D01*
X26609698Y54413327D01*
X26376309Y54510000D01*
X26035750Y54510000D01*
X25877000Y54351250D01*
X25623000Y54351250D01*
X25464250Y54510000D01*
X25123691Y54510000D01*
X24890302Y54413327D01*
X24749064Y54272090D01*
X24714090Y54326441D01*
X24510000Y54465890D01*
X24510000Y54565000D01*
X28039524Y54565000D01*
X30825000Y51779524D01*
M02*
