M48
;DRILL file {KiCad (2016-01-25 BZR 6514, Git a23e712)-product} date Tue 24 May 2016 06:15:37 PM CST
;FORMAT={-:-/ absolute / metric / decimal}
FMAT,2
METRIC,TZ
T1C0.500
T2C0.800
T3C1.001
T4C1.200
%
G90
G05
M71
T1
X11.25Y35.11
X14.348Y37.036
X14.667Y50.264
X14.7Y34.25
X14.964Y52.76
X15.1Y28.7
X16.913Y40.278
X16.949Y50.154
X18.184Y41.819
X19.171Y51.879
X24.17Y32.35
X24.909Y27.568
X26.273Y29.014
X27.75Y51.
X28.25Y53.25
T2
X26.25Y41.75
X26.25Y39.75
X26.25Y37.75
X26.25Y35.75
X26.25Y24.75
X26.25Y22.75
X26.25Y20.75
X26.25Y18.75
X28.25Y41.75
X28.25Y39.75
X28.25Y37.75
X28.25Y35.75
X28.25Y24.75
X28.25Y22.75
X28.25Y20.75
X28.25Y18.75
T3
X31.96Y47.25
X31.96Y13.25
X32.Y30.25
X34.5Y47.25
X34.5Y13.25
X34.54Y30.25
T4
X7.13Y42.81
X7.13Y40.27
X7.13Y37.73
X7.13Y35.19
X7.13Y32.65
X7.13Y30.11
X7.13Y27.57
X7.13Y25.03
X7.13Y22.49
X7.13Y19.95
X7.13Y17.41
X7.13Y14.87
X7.13Y12.33
X7.13Y9.79
X7.13Y7.25
X22.37Y42.81
X22.37Y40.27
X22.37Y37.73
X22.37Y35.19
X22.37Y32.65
X22.37Y30.11
X22.37Y27.57
X22.37Y25.03
X22.37Y22.49
X22.37Y19.95
X22.37Y17.41
X22.37Y14.87
X22.37Y12.33
X22.37Y9.79
X22.37Y7.25
T0
M30
